<?xml version="1.0" encoding="UTF-8" standalone="no"?>
<!-- Created with Inkscape (http://www.inkscape.org/) -->

<svg
   version="1.1"
   id="svg2"
   width="373.47498"
   height="499.99997"
   viewBox="0 0 373.47498 499.99997"
   xmlns="http://www.w3.org/2000/svg"
   xmlns:svg="http://www.w3.org/2000/svg">
  <defs
     id="defs6">
    <clipPath
       clipPathUnits="userSpaceOnUse"
       id="clipPath16">
      <path
         d="M 0,689 H 525 V 0 H 0 Z"
         id="path14" />
    </clipPath>
  </defs>
  <g
     id="g8"
     transform="matrix(1.3333333,0,0,-1.3333333,-488.29004,1750.0553)">
    <rect
       style="fill:none;stroke-width:0.360323"
       id="rect1"
       width="280.10626"
       height="375"
       x="366.21753"
       y="-1312.5415"
       transform="scale(1,-1)" />
    <g
       id="g10"
       transform="matrix(0.47862158,0,0,0.47862158,380.89578,960.67368)">
      <g
         id="g12"
         clip-path="url(#clipPath16)">
        <g
           id="g18"
           transform="translate(396.1885,287.9912)">
          <path
             d="m 0,0 c -0.405,-0.03 -1.42,-0.211 -1.837,-0.245 -0.256,0.442 0.255,-0.427 0,0 -0.4,0.668 -0.778,1.299 -1.135,1.949 -5.86,10.707 -12.08,21.252 -16.843,29.243 -2.503,4.199 -5.331,8.942 -7.684,13.784 0.145,0.182 0.251,0.346 0.326,0.466 2.967,3.774 3.624,8.148 3.86,11.118 0.444,5.598 -0.158,11.502 -1.84,18.048 l -0.048,0.187 c -0.712,2.773 -1.52,5.916 -3.432,8.707 -1.238,1.806 -1.75,4.04 -1.61,7.031 0.054,1.161 0.152,2.356 0.248,3.524 0.099,1.204 0.2,2.449 0.26,3.689 0.17,3.554 0.123,6.301 -0.153,8.91 -0.472,4.457 -0.726,9.045 -0.971,13.481 l -0.071,1.27 c -0.157,2.819 -0.213,5.711 -0.266,8.507 l -0.002,0.102 c -0.025,1.227 -0.048,2.453 -0.08,3.679 -0.015,0.572 -0.026,1.144 -0.038,1.805 -0.024,1.224 -0.048,2.491 -0.108,3.746 -0.279,5.838 -0.272,10.967 0.023,15.678 2.436,2.366 4.561,5.253 6.496,8.823 2.162,3.994 3.28,8.275 4.166,12.307 0.965,4.387 1.106,8.487 0.434,12.534 -0.115,0.689 -0.072,1.317 0.127,1.865 2.503,6.885 5.151,12.218 8.331,16.784 0.772,1.107 1.243,2.161 1.487,3.318 0.387,1.854 0.894,4.02 1.707,6.026 0.082,0.204 0.207,0.42 0.34,0.665 0.356,0.647 0.797,1.452 1.036,2.475 0.482,2.069 1.118,4.192 1.737,6.26 0.972,3.246 1.977,6.603 2.53,10.149 0.14,0.89 0.287,1.78 0.436,2.67 0.509,3.058 1.035,6.221 1.201,9.482 0.177,3.484 0.124,6.967 0.072,10.336 l -0.022,1.496 c -0.027,1.961 -0.59,3.865 -1.628,5.508 -1.884,2.977 -5.159,4.755 -8.763,4.755 -1.176,0 -2.318,-0.187 -3.394,-0.55 -0.35,3.084 -0.737,5.961 -1.085,8.467 -0.047,0.337 -0.086,0.678 -0.127,1.042 -0.191,1.668 -0.407,3.558 -1.374,5.417 -1.721,3.304 -5.19,5.357 -9.054,5.357 -1.069,0 -2.13,-0.162 -3.135,-0.472 -0.233,4.056 -0.564,7.69 -1.191,11.39 -0.139,0.821 -0.197,1.708 -0.257,2.65 -0.07,1.09 -0.143,2.218 -0.349,3.416 -0.771,4.501 -4.981,7.894 -9.792,7.894 -0.72,0 -1.436,-0.077 -2.127,-0.231 -1.783,-0.396 -3.419,-1.069 -4.89,-2.01 -0.534,2.957 -1.203,6.145 -2.148,9.342 -1.509,5.114 -4.905,8.33 -9.817,9.303 -3.103,0.614 -6.032,0.011 -8.624,-1.773 -0.536,-0.369 -1.017,-0.766 -1.448,-1.173 -0.047,0.162 -0.096,0.324 -0.146,0.486 l -0.225,0.736 c -1.301,4.254 -2.647,8.654 -4.334,12.94 -0.802,2.037 -1.953,3.655 -2.971,4.968 -0.906,1.168 -2.199,2.099 -3.739,2.69 -1.375,0.529 -2.793,0.797 -4.217,0.797 -3.677,0 -7.034,-1.752 -9.211,-4.806 -0.917,-1.287 -1.762,-2.683 -2.658,-4.395 -0.076,-0.144 -0.15,-0.288 -0.222,-0.432 -1.673,3.74 -3.526,7.598 -5.615,11.687 -0.287,0.563 -0.546,1.138 -0.822,1.748 -0.704,1.557 -1.502,3.322 -2.793,4.946 -1.959,2.466 -4.667,3.769 -7.829,3.769 -0.216,0 -0.437,-0.007 -0.663,-0.02 -4.13,-0.245 -7.355,-2.585 -8.962,-6.461 -0.245,0.638 -0.486,1.281 -0.728,1.923 -0.42,1.115 -0.854,2.268 -1.304,3.399 -1.535,3.855 -5.441,6.652 -9.289,6.652 -0.321,0 -0.641,-0.019 -0.953,-0.057 -4.58,-0.561 -7.825,-3.136 -9.139,-7.251 -0.313,-0.981 -0.654,-1.99 -1.044,-3.086 -0.516,-1.451 -1.037,-2.9 -1.57,-4.384 -0.894,-2.482 -1.816,-5.048 -2.699,-7.584 -1.902,-5.468 -3.243,-11.092 -4.536,-16.539 l -0.021,0.032 c -1.086,1.645 -2.172,3.291 -3.263,4.933 -0.432,0.649 -0.86,1.301 -1.342,2.035 -2.133,3.247 -4.337,6.605 -6.986,9.719 -1.894,2.226 -4.487,5.274 -8.959,5.947 -2.774,0.419 -5.402,-0.112 -7.656,-1.555 -2.761,-1.771 -4.587,-4.401 -5.427,-7.815 -1.234,-5.016 -1.715,-10.081 -2.071,-15.034 -0.071,0.079 -0.142,0.158 -0.213,0.236 l -0.595,0.658 c -1.272,1.408 -2.587,2.864 -3.949,4.279 -1.752,1.82 -4.34,2.864 -7.098,2.864 -2.182,0 -4.325,-0.649 -6.034,-1.827 -3.891,-2.681 -4.165,-6.992 -4.255,-8.409 -0.116,-1.823 -0.166,-3.637 -0.215,-5.392 l -0.042,-1.477 c -0.119,-3.877 -0.186,-7.808 -0.251,-11.659 l -0.005,-0.272 c -3.002,1.708 -6.168,2.134 -9.442,1.271 -3.223,-0.851 -5.649,-2.979 -6.833,-5.991 -1.154,-2.937 -1.428,-6.052 -0.793,-9.007 0.1,-0.461 0.172,-0.916 0.216,-1.354 0.241,-2.383 0.464,-4.609 0.675,-6.804 -0.059,0.013 -0.117,0.026 -0.174,0.038 -0.649,0.144 -1.333,0.217 -2.034,0.217 -3.266,0 -6.571,-1.56 -8.42,-3.976 -2.18,-2.847 -2.465,-6.02 -2.491,-8.158 -0.005,-0.515 0.015,-1.016 0.036,-1.504 0.022,-0.51 0.042,-0.992 0.02,-1.399 -0.142,-2.565 0.177,-4.954 0.949,-7.099 0.339,-0.942 0.517,-1.973 0.724,-3.173 0.082,-0.478 0.167,-0.972 0.264,-1.466 l 0.127,-0.647 c -3.018,0.163 -5.677,-0.853 -7.646,-2.895 -1.971,-2.042 -2.994,-4.885 -2.882,-8.004 0.075,-2.101 0.521,-4.033 0.952,-5.9 l 0.285,-1.225 c 0.273,-1.151 0.51,-2.145 0.534,-3.101 0.022,-0.861 0.135,-1.712 0.335,-2.533 -1.363,-0.194 -2.763,-0.647 -4.306,-1.383 -2.677,-1.28 -4.661,-3.693 -5.442,-6.62 -0.818,-3.06 -0.259,-6.307 1.533,-8.909 0.065,-0.094 0.079,-0.134 0.079,-0.134 l 0.337,-1.386 c 0.266,-1.1 0.541,-2.239 0.843,-3.356 l 0.035,-0.131 c 0.399,-1.483 0.851,-3.165 1.787,-4.859 0.69,-1.247 1.439,-2.694 1.604,-4.077 0.338,-2.843 1.598,-5.153 3.653,-6.71 0.341,-0.542 0.685,-1.082 1.031,-1.623 0.943,-1.481 1.919,-3.012 2.795,-4.524 2.723,-4.696 5.994,-8.971 9.722,-12.706 1.071,-1.073 2.23,-2.263 3.542,-3.636 0.828,-0.866 1.65,-1.739 2.523,-2.664 1.678,-1.782 3.415,-3.625 5.205,-5.419 1.541,-1.546 2.8,-2.961 3.849,-4.328 0.577,-0.752 0.596,-0.968 0.594,-1.002 -0.114,-1.921 0.071,-3.768 0.289,-5.479 0.065,-0.512 0.124,-1.023 0.183,-1.546 0.322,-2.833 0.687,-6.044 2.236,-9.208 2.285,-4.673 5.005,-8.447 8.314,-11.538 1.898,-1.771 3.86,-2.959 5.975,-3.614 0.046,-0.203 0.093,-0.406 0.139,-0.607 0.2,-0.87 0.389,-1.691 0.506,-2.478 1.045,-7.041 2.358,-14.144 3.902,-21.11 1.498,-6.753 2.412,-13.074 2.793,-19.326 0.32,-5.231 0.555,-10.547 0.782,-15.688 l 0.231,-5.157 c 0.233,-5.049 0.484,-9.261 1.404,-13.668 0.754,-3.611 1.608,-7.701 4.12,-11.372 0.315,-0.461 0.288,-0.588 0.145,-0.958 -0.114,-0.296 -0.209,-0.583 -0.31,-0.889 -0.046,-0.139 -0.091,-0.276 -0.14,-0.413 -0.63,-1.767 -1.257,-3.533 -1.884,-5.301 l -0.108,-0.304 c -1.492,-4.208 -3.034,-8.558 -4.599,-12.826 -1.127,-3.071 -2.233,-6.202 -3.333,-9.313 -2.189,-6.199 -4.454,-12.61 -6.979,-18.76 -1.986,-4.835 -4.222,-9.954 -7.116,-14.634 -5.361,-8.67 -11.702,-17.379 -19.386,-26.625 -2.612,-3.143 -5.839,-6.696 -9.971,-9.218 -1.179,-0.72 -2.387,-1.458 -3.616,-2.156 -0.58,0.847 -1.172,1.652 -1.75,2.439 l -0.087,0.117 c -3.054,4.157 -6.407,7.343 -10.249,9.738 l -0.28,0.175 c -1.406,0.88 -3,1.877 -4.952,2.483 -2.685,0.835 -5.506,1.004 -8.534,0.506 -0.317,0.712 -0.692,1.307 -1.016,1.821 l -0.1,0.159 c -0.566,0.901 -1.137,1.8 -1.708,2.699 -0.82,1.292 -1.669,2.628 -2.485,3.947 -0.189,0.307 -0.386,0.612 -0.583,0.918 -0.578,0.895 -1.123,1.739 -1.349,2.478 -0.826,2.694 -2.191,4.936 -3.418,6.775 -0.17,0.255 -0.336,0.512 -0.506,0.776 -0.359,0.556 -0.727,1.125 -1.147,1.704 1.338,3.571 2.536,8.247 0.86,13.474 -0.277,0.866 -0.526,1.776 -0.768,2.658 -0.633,2.307 -1.288,4.692 -2.541,7.037 -2.035,3.812 -4.594,7.466 -7.824,11.173 -1.279,1.467 -2.869,3.292 -5.108,4.452 -1.184,0.614 -2.312,1.461 -3.508,2.359 l -0.645,0.482 c -1.143,0.852 -2.335,1.357 -3.644,1.545 -0.778,0.113 -1.449,0.424 -2.112,0.98 -1.11,0.93 -2.262,2.009 -3.626,3.396 l -0.101,0.103 c -0.633,0.642 -1.084,1.12 -1.129,1.41 -0.18,1.152 -0.775,1.967 -1.116,2.433 l -0.076,0.106 c -2.055,3.059 -5.037,4.626 -7.684,5.756 -8.19,3.497 -16.784,3.299 -25.423,-0.6 -3.946,-1.782 -7.742,-4.429 -11.605,-8.094 -2.822,-2.676 -4.614,-5.285 -5.639,-8.209 -1.127,-3.214 -1.503,-6.673 -1.118,-10.279 0.289,-2.696 0.971,-6.144 3.691,-9.002 1.405,-3.32 3.278,-6.553 5.566,-9.607 0.844,-1.127 1.376,-2.552 1.849,-3.914 0.337,-0.97 0.421,-2.101 0.524,-3.474 l 0.07,-0.893 c 0.168,-1.95 0.726,-3.723 1.218,-5.287 0.352,-1.119 0.684,-2.175 0.844,-3.172 0.421,-2.65 1.612,-4.768 2.722,-6.491 1.663,-2.583 3.514,-4.928 5.779,-7.657 3.273,-3.939 7.307,-7.377 11.993,-10.219 2.717,-1.647 4.558,-3.683 5.628,-6.223 l 0.213,-0.506 c 0.982,-2.344 2.095,-5.001 4.1,-7.281 0.634,-2.036 1.606,-3.948 2.894,-5.701 -0.114,-0.233 -0.227,-0.466 -0.34,-0.698 l -0.044,-0.091 c -0.338,-0.699 -0.689,-1.422 -1.045,-2.117 -1.934,-3.763 -2.365,-7.477 -1.32,-11.358 1.166,-4.334 3.583,-7.528 7.414,-9.767 0.449,-2.175 0.966,-4.633 2.514,-6.974 0.536,-0.812 0.902,-1.97 1.189,-2.998 0.486,-1.732 1.242,-3.311 2.314,-4.827 1.243,-1.756 2.653,-3.252 4.312,-4.572 1.379,-1.097 1.774,-1.545 1.835,-2.084 0.154,-1.349 0.889,-2.306 1.327,-2.874 l 0.622,-0.821 c 0.795,-1.057 1.618,-2.149 2.594,-3.201 1.328,-1.432 2.8,-2.365 4.373,-2.771 1.584,-0.41 3.38,-0.875 5.29,-1.129 2.659,-0.351 5.291,-0.454 7.865,-0.554 l 1.148,-0.045 c 0.403,-0.556 0.813,-1.081 1.215,-1.596 0.609,-0.778 1.184,-1.514 1.645,-2.254 3.114,-4.985 6.507,-9.884 10.085,-14.561 2.55,-3.333 6.099,-7.578 10.946,-10.836 3.443,-2.316 7.459,-3.541 11.613,-3.541 0.159,0 0.319,0.002 0.477,0.006 2.453,0.054 4.727,0.452 6.797,1.186 -0.114,-2.115 -0.155,-4.263 -0.123,-6.491 0.083,-5.741 0.425,-11.626 1.017,-17.495 0.566,-5.617 1.251,-11.626 2.415,-17.526 1.071,-5.435 2.388,-11.244 4.751,-16.894 4.103,-9.813 9.211,-17.639 15.616,-23.925 3.502,-3.436 6.795,-5.735 10.364,-7.236 0.708,-0.298 1.43,-0.628 2.217,-0.989 1.863,-0.855 3.79,-1.739 5.95,-2.322 0.695,-0.188 1.436,-0.494 2.232,-0.823 0.945,-0.39 2.017,-0.832 3.199,-1.139 1.641,-0.426 3.247,-0.567 4.662,-0.692 l 0.809,-0.074 c 1.422,-0.135 2.868,-0.204 4.298,-0.204 2.653,0 5.348,0.238 8.011,0.705 l 0.755,0.128 c 1.695,0.283 3.615,0.603 5.489,1.535 1.477,0.734 2.736,1.196 3.96,1.455 1.562,0.329 2.822,0.807 3.967,1.508 3.614,2.215 7.014,4.576 10.108,7.017 0.635,0.5 1.283,1.082 1.981,1.777 2.543,2.534 4.919,5.521 7.265,9.132 3.357,5.168 7.569,9.782 12.518,13.717 4.552,3.617 9.728,6.087 15.383,7.339 2.605,0.576 5.22,0.89 8.367,1.241 3.42,0.381 7.45,0.771 11.408,0.771 1.32,0 2.609,-0.043 3.832,-0.128 3.224,-0.223 6.236,-1.125 9.204,-2.759 5.338,-2.937 9.905,-7.479 14.372,-14.292 0.791,-1.207 1.476,-2.531 2.203,-3.932 0.759,-1.468 1.544,-2.984 2.508,-4.468 l 0.387,-0.6 c 1.284,-1.994 2.738,-4.254 5.017,-6.021 0.67,-0.517 1.355,-1.029 2.017,-1.522 0.808,-0.603 1.644,-1.226 2.436,-1.855 1.857,-1.475 3.989,-2.687 6.71,-3.812 1.287,-0.533 2.531,-0.79 3.64,-1.02 0.6,-0.123 1.168,-0.24 1.68,-0.39 3.941,-1.158 8.24,-1.809 12.776,-1.936 1.551,-0.044 3.063,-0.065 4.496,-0.065 5.699,0 10.785,0.341 15.546,1.043 2.94,0.432 6.429,1.003 10.005,1.953 2.439,0.647 4.835,1.384 7.151,2.096 1.119,0.343 2.277,0.7 3.416,1.038 4.735,1.406 8.794,3.55 12.408,6.557 2.009,1.672 3.608,3.565 5.155,5.396 0.445,0.528 0.906,1.072 1.363,1.594 4.766,5.446 8.431,11.457 10.894,17.866 2.594,6.751 4.074,13.602 5.605,21.215 0.903,4.486 1.509,9.45 1.905,15.624 l 0.021,0.315 c 0.258,4.012 0.526,8.159 0.216,12.389 -0.097,1.339 -0.192,2.616 -0.294,3.88 l 1.336,-0.003 c 1.333,-0.004 2.666,-0.008 3.999,-0.008 2.11,0 3.842,0.01 5.454,0.031 4.487,0.062 7.905,1.978 9.883,5.54 0.325,0.583 0.594,1.153 0.838,1.684 0.266,0.579 0.527,1.16 0.787,1.741 l 0.07,0.153 c 0.468,1.044 0.953,2.122 1.454,3.16 2.882,5.974 5.076,11.384 6.711,16.541 3.764,11.878 6.735,22.706 9.083,33.105 1.618,7.168 2.859,14.483 3.991,21.362 1.227,7.448 2.079,15.197 2.533,23.03 0.362,6.215 0.52,12.359 0.662,18.629 0.073,3.187 0.025,6.367 -0.142,9.45 -0.231,4.248 -0.815,7.973 -1.786,11.388 -1.175,4.128 -3.976,7.125 -8.101,8.667 -7.547,2.82 -15.381,4.429 -23.411,5.961 -6.045,1.154 -12.509,2.094 -19.213,2.797 -5.72,0.599 -11.315,1.129 -17.099,1.049 z"
             style="fill:#231f20;fill-opacity:1;fill-rule:nonzero;stroke:none"
             id="path20" />
        </g>
        <g
           id="g22"
           transform="translate(413.6045,283.4912)">
          <path
             d="m 0,0 c 4.511,0.103 6.344,0.055 10.459,0.083 0.907,0.007 1.719,-0.075 2.625,-0.062 5.44,0.084 10.873,-0.824 16.446,-1.409 6.565,-0.687 12.886,-1.607 18.789,-2.733 7.801,-1.488 15.397,-3.046 22.554,-5.721 2.481,-0.927 4.024,-2.562 4.718,-5 0.859,-3.019 1.378,-6.353 1.586,-10.192 0.16,-2.946 0.206,-5.987 0.136,-9.04 -0.142,-6.235 -0.299,-12.338 -0.655,-18.471 -0.444,-7.656 -1.277,-15.225 -2.473,-22.495 -1.122,-6.812 -2.35,-14.05 -3.938,-21.083 -2.316,-10.263 -5.253,-20.964 -8.977,-32.715 -1.558,-4.915 -3.663,-10.096 -6.433,-15.838 -0.53,-1.1 -1.031,-2.215 -1.531,-3.33 -0.275,-0.611 -0.549,-1.222 -0.829,-1.831 -0.203,-0.441 -0.412,-0.883 -0.647,-1.308 -1.002,-1.802 -2.63,-2.659 -5.124,-2.692 -3.121,-0.043 -6.304,-0.034 -9.382,-0.024 -1.333,0.004 -2.665,0.007 -3.998,0.007 H 29.87 l 0.222,-2.201 c 0.259,-2.556 0.441,-4.977 0.637,-7.65 0.281,-3.853 0.026,-7.815 -0.221,-11.646 l -0.021,-0.322 c -0.382,-5.931 -0.957,-10.672 -1.811,-14.916 -1.485,-7.376 -2.912,-13.999 -5.356,-20.359 -2.232,-5.811 -5.567,-11.273 -9.91,-16.235 -0.483,-0.551 -0.956,-1.111 -1.43,-1.671 -1.459,-1.727 -2.837,-3.359 -4.474,-4.721 -3.027,-2.52 -6.449,-4.324 -10.461,-5.517 -1.162,-0.345 -2.32,-0.701 -3.48,-1.056 -2.276,-0.7 -4.63,-1.422 -6.953,-2.04 -3.307,-0.879 -6.611,-1.418 -9.407,-1.83 -5.671,-0.835 -11.745,-1.128 -19.117,-0.922 -4.069,0.114 -7.902,0.692 -11.391,1.716 -0.727,0.214 -1.438,0.361 -2.127,0.502 -0.945,0.196 -1.838,0.38 -2.645,0.714 -2.236,0.925 -3.948,1.89 -5.392,3.037 -0.845,0.671 -1.71,1.317 -2.575,1.961 -0.65,0.486 -1.301,0.97 -1.941,1.466 -1.53,1.185 -2.612,2.867 -3.758,4.648 l -0.399,0.618 c -0.816,1.258 -1.507,2.592 -2.24,4.007 -0.76,1.466 -1.545,2.983 -2.494,4.431 -4.993,7.615 -10.193,12.744 -16.368,16.141 -3.695,2.033 -7.462,3.158 -11.517,3.438 -5.581,0.388 -11.117,-0.091 -16.267,-0.664 -2.611,-0.291 -5.859,-0.652 -8.969,-1.342 -6.497,-1.437 -12.442,-4.273 -17.669,-8.427 -5.43,-4.316 -10.054,-9.384 -13.745,-15.066 -2.135,-3.288 -4.276,-5.983 -6.542,-8.241 -0.547,-0.545 -1.039,-0.988 -1.504,-1.355 -2.933,-2.314 -6.159,-4.553 -9.59,-6.656 -0.588,-0.359 -1.292,-0.617 -2.218,-0.812 -1.68,-0.355 -3.412,-0.982 -5.296,-1.918 -1.135,-0.566 -2.495,-0.792 -3.936,-1.032 l -0.808,-0.138 c -3.617,-0.634 -7.266,-0.784 -10.846,-0.442 l -0.84,0.076 c -1.326,0.116 -2.578,0.226 -3.773,0.537 -0.817,0.213 -1.63,0.548 -2.49,0.903 -0.914,0.378 -1.859,0.769 -2.899,1.049 -1.716,0.463 -3.359,1.217 -5.099,2.015 -0.79,0.362 -1.579,0.724 -2.378,1.06 -2.909,1.224 -5.656,3.16 -8.647,6.096 -5.879,5.768 -10.594,13.014 -14.413,22.148 -2.178,5.208 -3.419,10.7 -4.437,15.86 -1.12,5.685 -1.788,11.551 -2.341,17.044 -0.578,5.721 -0.911,11.459 -0.992,17.051 -0.059,4.103 0.153,7.968 0.629,11.8 10.333,8.374 4.496,23.569 4.559,35.027 0.314,1.15 0.378,1.594 0.446,2.118 0.986,7.347 2.297,15.127 4.128,24.483 1.021,5.221 2.129,10.513 3.199,15.631 0.482,2.3 0.963,4.6 1.45,6.961 0.155,0.857 -0.046,1.672 -0.564,2.293 l -0.001,0.001 c -0.666,0.796 -1.739,1.128 -2.843,0.827 l -0.58,-0.157 -0.44,-0.408 c -8.337,-7.735 -16.583,-14.089 -25.207,-19.427 l -2.061,-1.276 1.262,-2.069 c 4.447,-7.3 9.312,-14.545 12.816,-22.162 1.098,-2.385 1.147,-2.94 2.207,-5.544 l 1.776,-3.666 c 2.183,-9.198 6.29,-22.762 -1.422,-29.795 l -2.843,-1.664 c -2.53,-1.775 -5.477,-2.108 -8.875,-2.184 -3.229,-0.086 -6.223,0.803 -8.892,2.598 -4.183,2.814 -7.357,6.621 -9.655,9.624 -3.479,4.546 -6.777,9.309 -9.804,14.156 -0.619,0.992 -1.315,1.882 -1.988,2.743 -0.5,0.638 -0.972,1.243 -1.4,1.868 -1.189,1.74 -3.106,1.819 -3.829,1.849 l -1.284,0.051 c -2.55,0.099 -4.957,0.192 -7.378,0.513 -1.577,0.208 -3.134,0.611 -4.639,1.001 -0.531,0.136 -1.103,0.532 -1.7,1.176 -0.781,0.841 -1.485,1.776 -2.232,2.766 l -0.703,0.927 c -0.064,0.083 -0.136,0.168 -0.195,0.257 -0.402,2.855 -2.405,4.448 -3.876,5.618 -1.245,0.99 -2.306,2.116 -3.243,3.441 -0.71,1.004 -1.188,1.998 -1.504,3.127 -0.404,1.444 -0.947,3.115 -1.907,4.567 -0.976,1.477 -1.34,3.243 -1.725,5.112 l -0.082,0.397 c -0.292,1.4 -1.002,2.366 -2.235,3.039 -2.718,1.487 -4.363,3.586 -5.177,6.609 -0.689,2.562 -0.412,4.844 0.9,7.397 0.381,0.741 0.744,1.49 1.107,2.239 0.362,0.748 0.724,1.496 1.105,2.233 0.581,1.126 0.437,2.272 -0.405,3.229 -1.373,1.558 -2.325,3.231 -2.911,5.114 -0.275,0.881 -0.759,1.556 -1.115,1.967 -1.419,1.634 -2.272,3.67 -3.175,5.825 l -0.215,0.512 c -1.522,3.613 -4.173,6.584 -7.879,8.832 -4.225,2.561 -7.7,5.518 -10.624,9.039 -2.14,2.575 -3.875,4.773 -5.393,7.129 -0.84,1.303 -1.652,2.735 -1.913,4.369 -0.223,1.403 -0.634,2.71 -1.032,3.973 -0.447,1.42 -0.869,2.762 -0.985,4.107 -0.025,0.297 -0.047,0.593 -0.07,0.89 -0.116,1.56 -0.236,3.172 -0.812,4.83 -0.59,1.701 -1.331,3.662 -2.653,5.429 -2.028,2.708 -3.682,5.561 -4.915,8.479 -0.267,0.63 -0.606,1.157 -1.008,1.568 -1.298,1.324 -1.978,3.077 -2.276,5.86 -0.297,2.787 -0.015,5.436 0.839,7.872 0.723,2.065 2.068,3.982 4.231,6.033 3.412,3.236 6.713,5.551 10.092,7.077 7.294,3.295 14.165,3.475 21.005,0.555 2.311,-0.987 4.092,-2.002 5.269,-3.755 0.07,-0.105 0.146,-0.209 0.223,-0.315 0.042,-0.056 0.086,-0.113 0.125,-0.17 0.369,-1.976 1.62,-3.247 2.631,-4.273 l 0.099,-0.101 c 1.493,-1.517 2.771,-2.714 4.024,-3.764 1.452,-1.217 3.099,-1.965 4.894,-2.222 0.388,-0.057 0.725,-0.208 1.127,-0.506 l 0.627,-0.471 c 1.327,-0.996 2.698,-2.025 4.295,-2.853 1.304,-0.675 2.413,-1.947 3.485,-3.178 2.958,-3.394 5.289,-6.719 7.128,-10.162 0.963,-1.805 1.51,-3.799 2.09,-5.91 0.265,-0.965 0.53,-1.93 0.835,-2.882 0.969,-3.02 0.688,-6.095 -0.936,-10.282 -0.263,-0.678 -0.962,-2.479 0.502,-4.306 0.472,-0.588 0.899,-1.249 1.35,-1.948 0.182,-0.279 0.363,-0.56 0.548,-0.837 1.006,-1.508 2.117,-3.321 2.734,-5.335 0.452,-1.476 1.237,-2.691 1.995,-3.866 0.179,-0.277 0.356,-0.552 0.528,-0.829 0.831,-1.344 1.677,-2.677 2.524,-4.01 0.567,-0.893 1.134,-1.785 1.696,-2.681 l 0.107,-0.169 c 0.361,-0.573 0.672,-1.067 0.798,-1.559 0.564,-2.207 2.621,-3.452 4.888,-2.962 2.557,0.554 4.824,0.505 6.931,-0.152 1.27,-0.395 2.436,-1.124 3.67,-1.896 l 0.282,-0.177 c 3.242,-2.02 6.099,-4.747 8.734,-8.332 l 0.084,-0.114 c 1.171,-1.594 2.277,-3.099 3.202,-4.806 l 0.911,-1.678 1.719,0.832 c 2.461,1.191 4.728,2.576 6.921,3.915 4.832,2.949 8.457,6.924 11.365,10.424 7.864,9.463 14.366,18.395 19.877,27.307 3.111,5.031 5.464,10.41 7.543,15.474 2.583,6.291 4.876,12.78 7.093,19.056 1.094,3.095 2.186,6.189 3.316,9.27 1.574,4.291 3.125,8.665 4.625,12.895 0.664,1.873 1.328,3.745 1.996,5.617 0.066,0.183 0.127,0.368 0.188,0.553 0.068,0.208 0.136,0.417 0.215,0.621 0.819,2.126 0.568,4.177 -0.745,6.095 -1.89,2.761 -2.594,6.133 -3.274,9.393 -0.838,4.011 -1.074,8.007 -1.296,12.814 l -0.23,5.148 c -0.23,5.185 -0.467,10.546 -0.789,15.823 -0.401,6.558 -1.356,13.174 -2.919,20.227 -1.52,6.853 -2.812,13.839 -3.839,20.765 -0.149,1.007 -0.374,1.98 -0.59,2.92 -0.133,0.578 -0.266,1.156 -0.38,1.738 -0.425,2.175 -2.38,2.635 -3.023,2.787 -1.509,0.355 -2.889,1.154 -4.343,2.512 -2.813,2.626 -5.146,5.877 -7.133,9.94 -1.13,2.311 -1.412,4.79 -1.711,7.416 -0.061,0.54 -0.123,1.08 -0.192,1.622 -0.184,1.445 -0.342,2.986 -0.255,4.457 0.12,2.009 -0.809,3.511 -1.732,4.715 -1.199,1.562 -2.616,3.158 -4.332,4.878 -1.725,1.729 -3.438,3.548 -5.096,5.306 -0.852,0.905 -1.705,1.81 -2.564,2.709 -1.199,1.254 -2.407,2.501 -3.633,3.728 -3.397,3.404 -6.38,7.305 -8.867,11.594 -0.937,1.616 -1.946,3.2 -2.923,4.732 -0.374,0.586 -0.747,1.173 -1.117,1.761 -0.233,0.37 -0.567,0.839 -1.087,1.193 -0.959,0.653 -1.485,1.626 -1.656,3.064 -0.284,2.384 -1.316,4.408 -2.262,6.119 -0.611,1.105 -0.94,2.328 -1.288,3.622 l -0.035,0.13 c -0.289,1.075 -0.55,2.157 -0.812,3.239 l -0.341,1.403 c -0.169,0.684 -0.463,1.324 -0.898,1.955 -0.872,1.266 -1.143,2.848 -0.745,4.341 0.369,1.381 1.251,2.466 2.482,3.055 1.998,0.955 3.504,1.18 4.884,0.735 0.429,-0.139 0.831,-0.211 1.186,-0.274 l 0.166,-0.03 c 0.474,-0.089 0.854,0.002 1.081,0.056 l 2.054,0.356 -0.438,2.04 c -0.234,1.089 -0.498,2.323 -1.126,3.515 -0.407,0.774 -0.646,1.726 -0.67,2.68 -0.039,1.539 -0.368,2.921 -0.686,4.258 l -0.277,1.189 c -0.39,1.689 -0.757,3.285 -0.813,4.855 -0.063,1.753 0.521,3.291 1.603,4.22 1.001,0.859 2.379,1.152 3.986,0.845 0.982,-0.187 1.898,-0.633 3.057,-1.293 l 3.786,-2.156 -2.112,10.825 c -0.087,0.446 -0.164,0.893 -0.241,1.34 -0.229,1.335 -0.467,2.715 -0.972,4.119 -0.52,1.445 -0.733,3.101 -0.632,4.924 0.038,0.681 0.01,1.326 -0.016,1.95 -0.018,0.4 -0.036,0.801 -0.031,1.201 0.026,2.205 0.43,3.66 1.351,4.863 0.975,1.274 3.247,2.079 4.864,1.72 1.714,-0.379 3.016,-0.707 4.173,-1.474 l 2.055,-1.363 0.909,2.292 c 0.475,1.196 0.269,2.226 0.134,2.907 -0.03,0.148 -0.062,0.292 -0.076,0.438 -0.302,3.322 -0.634,6.641 -0.969,9.96 -0.065,0.643 -0.17,1.305 -0.313,1.968 -0.412,1.915 -0.232,3.875 0.534,5.824 0.544,1.387 1.557,2.258 3.094,2.664 2.09,0.553 3.993,0.182 5.99,-1.162 0.944,-0.636 1.857,-1.303 2.824,-2.01 0.434,-0.317 0.87,-0.635 1.311,-0.952 l 1.192,-0.858 1.174,0.881 c 0.786,0.588 1.126,1.451 1.006,2.576 0.039,1.928 0.072,3.856 0.105,5.785 0.064,3.811 0.13,7.753 0.249,11.621 l 0.043,1.492 c 0.048,1.715 0.097,3.489 0.206,5.209 0.137,2.165 0.68,3.383 1.872,4.204 1.826,1.258 4.631,1.109 6.005,-0.318 1.297,-1.347 2.583,-2.771 3.826,-4.147 l 0.608,-0.673 c 0.666,-0.736 1.317,-1.486 1.968,-2.235 l 6.973,-7.971 0.745,10.584 c 0.378,5.588 0.767,11.366 2.116,16.847 0.498,2.021 1.493,3.488 3.044,4.482 1.12,0.719 2.378,0.962 3.845,0.742 2.255,-0.339 3.67,-1.83 5.572,-4.066 2.428,-2.854 4.544,-6.076 6.589,-9.191 0.452,-0.688 0.905,-1.377 1.361,-2.062 1.09,-1.64 2.174,-3.284 3.259,-4.927 1.254,-1.9 2.509,-3.801 3.772,-5.697 0.03,-0.044 0.055,-0.092 0.082,-0.139 0.219,-0.38 0.626,-1.087 1.519,-1.562 l 2.06,-1.094 0.767,2.202 c 0.386,1.106 0.583,2.181 0.773,3.219 0.099,0.541 0.197,1.08 0.324,1.611 0.243,1.007 0.482,2.015 0.722,3.023 1.275,5.378 2.595,10.939 4.429,16.21 0.882,2.535 1.79,5.06 2.698,7.586 0.524,1.456 1.048,2.912 1.566,4.369 0.386,1.083 0.756,2.171 1.105,3.266 0.663,2.076 2.063,3.137 4.54,3.44 1.614,0.203 3.68,-1.273 4.425,-3.146 0.444,-1.114 0.865,-2.235 1.287,-3.356 0.703,-1.869 1.43,-3.8 2.253,-5.685 l 3.973,-9.133 1.772,4.478 c 1.024,2.588 1.936,5.073 2.869,7.822 0.761,2.242 2.185,3.394 4.353,3.522 1.589,0.098 2.877,-0.466 3.832,-1.668 0.863,-1.085 1.457,-2.397 2.085,-3.786 0.301,-0.669 0.605,-1.338 0.938,-1.99 3.221,-6.305 5.889,-12.086 8.179,-17.733 0.125,-0.361 0.457,-1.322 1.589,-1.846 l 1.803,-0.835 0.847,1.798 c 0.47,0.998 0.905,2.013 1.341,3.027 0.638,1.49 1.243,2.897 1.957,4.261 0.778,1.486 1.498,2.68 2.265,3.757 1.606,2.252 4.33,3.06 6.939,2.056 0.597,-0.229 1.063,-0.545 1.35,-0.916 0.819,-1.055 1.652,-2.223 2.197,-3.607 1.611,-4.095 2.929,-8.398 4.202,-12.561 l 0.225,-0.734 c 0.519,-1.697 0.935,-3.492 1.338,-5.228 0.19,-0.819 0.38,-1.637 0.581,-2.452 l 0.282,-1.142 1.135,-0.309 c 1.001,-0.269 2.377,-0.012 2.94,1.569 l 0.097,0.19 c 1.03,2.034 2.004,3.955 3.683,5.11 1.368,0.942 2.772,1.23 4.413,0.904 2.924,-0.578 4.648,-2.258 5.589,-5.446 1.259,-4.265 2.025,-8.668 2.7,-12.813 l 0.821,-4.995 2.355,1.027 c 1.06,0.462 1.603,1.268 1.928,1.751 0.057,0.086 0.114,0.172 0.175,0.251 1.465,1.9 3.298,3.072 5.604,3.584 1.191,0.265 2.532,-0.002 3.59,-0.712 0.644,-0.432 1.456,-1.213 1.674,-2.483 0.156,-0.909 0.217,-1.848 0.28,-2.841 0.067,-1.042 0.137,-2.119 0.324,-3.225 0.741,-4.37 1.05,-8.768 1.288,-14.027 0.032,-0.685 0.022,-1.372 0.014,-2.1 -0.004,-0.375 -0.009,-0.76 -0.009,-1.161 v -2.9 l 2.711,1.031 c 1.15,0.437 1.685,1.248 1.973,1.684 0.036,0.054 0.07,0.109 0.107,0.159 0.889,1.199 2.477,1.855 4.142,1.731 1.657,-0.131 3.017,-0.991 3.73,-2.361 0.495,-0.951 0.635,-2.186 0.785,-3.494 0.045,-0.395 0.09,-0.788 0.144,-1.178 0.572,-4.117 1.214,-9.007 1.638,-14.061 l 0.21,-2.506 2.393,0.768 c 1.088,0.349 1.718,1.045 2.134,1.506 0.085,0.092 0.166,0.186 0.255,0.269 1.051,0.99 2.515,1.447 4.009,1.26 1.439,-0.182 2.692,-0.961 3.436,-2.138 0.492,-0.778 0.76,-1.686 0.773,-2.626 l 0.022,-1.504 c 0.05,-3.287 0.102,-6.685 -0.066,-9.992 -0.151,-2.951 -0.629,-5.828 -1.136,-8.874 -0.151,-0.908 -0.303,-1.818 -0.444,-2.729 -0.496,-3.179 -1.407,-6.217 -2.369,-9.433 -0.642,-2.142 -1.306,-4.357 -1.83,-6.603 -0.065,-0.283 -0.275,-0.665 -0.496,-1.069 -0.203,-0.37 -0.432,-0.789 -0.621,-1.254 -0.978,-2.417 -1.559,-4.886 -1.999,-6.983 -0.087,-0.414 -0.268,-0.799 -0.609,-1.288 -3.471,-4.981 -6.333,-10.731 -9.011,-18.095 -0.529,-1.457 -0.66,-3.031 -0.387,-4.677 0.556,-3.343 0.432,-6.763 -0.379,-10.456 -0.926,-4.21 -1.898,-7.671 -3.635,-10.877 -1.674,-3.091 -3.483,-5.556 -5.528,-7.536 -1.01,-0.977 -1.543,-2.093 -1.627,-3.412 -0.321,-4.973 -0.333,-10.374 -0.04,-16.513 0.057,-1.195 0.08,-2.393 0.102,-3.591 0.012,-0.617 0.023,-1.234 0.04,-1.851 0.032,-1.25 0.057,-2.5 0.08,-3.749 0.056,-2.856 0.112,-5.81 0.276,-8.727 l 0.07,-1.274 c 0.25,-4.513 0.509,-9.18 0.995,-13.781 0.246,-2.32 0.285,-4.81 0.129,-8.077 -0.056,-1.175 -0.152,-2.348 -0.249,-3.519 -0.102,-1.24 -0.202,-2.478 -0.26,-3.716 -0.199,-4.266 0.621,-7.585 2.58,-10.444 1.362,-1.986 1.984,-4.405 2.641,-6.966 l 0.048,-0.185 c 1.53,-5.957 2.082,-11.277 1.686,-16.264 -0.291,-3.67 -1.14,-6.205 -2.756,-8.221 -0.045,-0.056 -0.089,-0.115 -0.134,-0.181 -2.867,-1.72 -1.512,-4.522 -1.054,-5.469 l 0.076,-0.158 c 2.506,-5.223 5.499,-10.244 8.14,-14.672 4.746,-7.963 10.942,-18.469 16.775,-29.124 0.396,-0.724 0.819,-1.432 1.243,-2.141 0.43,-0.717 0.86,-1.434 1.255,-2.168 0.774,-1.435 1.348,-0.471 2.966,-0.289 z"
             style="fill:#231f20;fill-opacity:1;fill-rule:nonzero;stroke:none"
             id="path24" />
        </g>
        <g
           id="g26"
           transform="translate(165.5474,169.6787)">
          <path
             d="M 0,0 C -0.873,1.545 -1.743,3.09 -2.612,4.633 -6.584,11.686 -10.686,18.97 -14.972,26.046 -7.066,31.013 0.531,36.821 8.17,43.744 7.846,42.182 7.519,40.621 7.192,39.06 6.119,33.928 5.008,28.621 3.984,23.386 2.248,14.513 0.974,7.039 0,0"
             style="fill:#231f20;fill-opacity:1;fill-rule:nonzero;stroke:none"
             id="path28" />
        </g>
        <g
           id="g30"
           transform="translate(344.9111,256.2061)">
          <path
             d="m 0,0 c -0.287,-29.079 -23.879,-50.428 -50.644,-50.307 -27.551,0.124 -50.36,22.618 -50.154,50.744 0.205,28.037 23.282,50.203 50.754,50.007 C -23.443,50.255 -0.208,28.859 0,0"
             style="fill:#e91d27;fill-opacity:1;fill-rule:nonzero;stroke:none"
             id="path32" />
        </g>
        <g
           id="g34"
           transform="translate(350.3193,266.4385)">
          <path
             d="M 0,0 C -0.515,2.551 -1.099,5.083 -1.97,7.553 -1.209,8.03 -0.458,7.868 0.263,7.805 3.298,7.541 6.227,6.703 9.199,6.104 11.547,5.629 13.863,4.943 16.304,5.1 16.54,5.115 16.791,4.92 17.035,4.821 17.027,4.022 16.288,4.117 15.868,3.991 11.12,2.577 6.398,1.077 1.662,-0.375 0.998,-0.578 0.415,-0.747 0,0"
             style="fill:#ffffff;fill-opacity:1;fill-rule:nonzero;stroke:none"
             id="path36" />
        </g>
        <g
           id="g38"
           transform="translate(357.9619,338.8984)">
          <path
             d="M 0,0 C 0.255,-0.009 0.509,-0.018 0.763,-0.026 0.495,-0.41 0.249,-0.161 0,0"
             style="fill:#c7b197;fill-opacity:1;fill-rule:nonzero;stroke:none"
             id="path40" />
        </g>
        <g
           id="g42"
           transform="translate(118.0513,231.6689)">
          <path
             d="M 0,0 C -0.176,0.063 -0.262,0.185 -0.243,0.373 -0.071,0.308 0.006,0.182 0,0"
             style="fill:#8f7b60;fill-opacity:1;fill-rule:nonzero;stroke:none"
             id="path44" />
        </g>
        <g
           id="g46"
           transform="translate(346.0654,353.7041)">
          <path
             d="M 0,0 C 0.203,-0.007 0.313,-0.117 0.348,-0.312 0.158,-0.29 0.031,-0.198 0,0"
             style="fill:#9a846a;fill-opacity:1;fill-rule:nonzero;stroke:none"
             id="path48" />
        </g>
        <g
           id="g50"
           transform="translate(340.916,223.6396)">
          <path
             d="M 0,0 C 0.013,-0.183 -0.073,-0.3 -0.239,-0.363 -0.267,-0.172 -0.172,-0.062 0,0"
             style="fill:#9a846a;fill-opacity:1;fill-rule:nonzero;stroke:none"
             id="path52" />
        </g>
        <g
           id="g54"
           transform="translate(433.1475,129.9561)">
          <path
             d="m 0,0 -25.959,-0.007 c -9.981,0.009 -20.018,0.168 -30,0.125 -1.377,-0.006 -4.858,1.952 -5.666,3.084 -1.777,2.488 -4.241,6.165 -6,8.666 -4.475,6.364 -7.566,12.737 -11.167,19.667 -2.808,5.403 -4.908,11.711 -7.167,17.333 -3.791,9.438 -5.985,19.625 -8.333,29.5 -0.67,2.82 -0.758,5.615 -1.417,8.438 -0.155,0.668 -0.12,1.274 -0.639,1.405 -0.21,-0.162 -0.444,-0.301 -0.626,-0.49 -4.38,-4.551 -9.448,-8.224 -14.761,-11.588 -3.092,-1.958 -6.368,-3.483 -9.915,-4.427 -4.417,-1.175 -8.939,-1.584 -13.471,-1.928 -8.25,-0.626 -16.264,0.572 -23.91,3.65 -17.279,6.955 -28.686,19.425 -34.152,37.231 -1.887,6.15 -2.448,12.501 -2.087,18.925 0.103,1.829 -0.026,3.64 -0.281,5.451 -0.077,0.551 -0.302,0.738 -0.824,0.71 -2.621,-0.143 -5.201,-0.449 -7.725,-1.266 -3.577,-1.16 -6.915,-2.854 -10.289,-4.457 -3.136,-1.49 -6.297,-2.946 -9.29,-4.722 -1.449,-0.534 -2.781,-1.311 -4.115,-2.068 -2.441,-1.383 -4.989,-2.6 -7.158,-4.425 -0.395,-0.102 -0.737,-0.28 -0.944,-0.654 v 0 0 c -1.66,-1.014 -2.767,-2.401 -3.365,-4.306 -0.865,-2.758 -1.678,-5.53 -2.424,-8.321 -2.741,-10.25 -4.929,-20.628 -7.036,-31.022 -1.818,-8.971 -3.516,-17.965 -5.039,-26.99 -1.344,-7.97 -2.596,-15.955 -3.732,-23.961 -1.203,-8.488 -1.992,-17.01 -2.395,-25.559 -0.384,-8.14 -0.225,-16.286 0.434,-24.425 0.52,-6.412 1.349,-12.767 2.691,-19.053 1.571,-7.356 3.742,-14.515 7.237,-21.216 2.271,-4.357 4.995,-8.385 8.737,-11.63 4.71,-4.084 10.243,-6.516 16.232,-8.058 3.579,-0.921 7.228,-1.082 10.806,-0.549 3.634,0.542 7.097,1.872 10.432,3.511 5.498,2.702 9.606,6.904 13.148,11.761 2.712,3.72 5.203,7.594 8.399,10.96 3.339,3.517 6.874,6.765 11.045,9.258 3.854,2.302 7.69,4.633 12.038,5.977 8.297,2.567 16.591,4.981 25.42,4.902 4.472,-0.04 8.887,-0.408 13.248,-1.287 4.761,-0.96 9.169,-2.9 13.365,-5.327 2.554,-1.477 5.092,-3.032 7.255,-5.023 2.277,-2.097 4.532,-4.234 6.419,-6.745 2.642,-3.517 5.569,-6.844 7.218,-10.988 0.882,-2.217 2.366,-3.96 4.016,-5.551 5.82,-5.612 12.967,-8.201 20.908,-8.637 3.852,-0.212 7.713,0.111 11.569,0.462 5.851,0.531 11.539,1.699 17.115,3.534 1.94,0.639 3.773,1.516 5.682,2.215 3.104,1.138 5.865,2.883 8.398,4.973 5.302,4.375 8.877,9.976 11.358,16.318 1.153,2.944 1.989,5.993 2.915,9.016 1.687,5.504 2.887,11.102 3.385,16.824 0.386,4.427 0.584,8.879 0.654,13.323 C 0.338,-11.132 0.589,-6.318 0,0"
             style="fill:#ffffff;fill-opacity:1;fill-rule:nonzero;stroke:none"
             id="path56" />
        </g>
        <g
           id="g58"
           transform="translate(302.6348,422.3413)">
          <path
             d="M 0,0 C -0.016,0.351 -0.118,0.712 0.122,1.054 0.524,0.799 0.643,0.431 0.595,-0.013 Z"
             style="fill:#9f8b6f;fill-opacity:1;fill-rule:nonzero;stroke:none"
             id="path60" />
        </g>
        <g
           id="g62"
           transform="translate(335.1416,487.21)">
          <path
             d="M 0,0 C -0.275,-0.064 -0.513,-0.004 -0.705,0.21 -0.454,0.195 -0.204,0.178 0,0"
             style="fill:#518a4d;fill-opacity:1;fill-rule:nonzero;stroke:none"
             id="path64" />
        </g>
        <g
           id="g66"
           transform="translate(188.2715,451.6528)">
          <path
             d="M 0,0 C -0.006,0.3 0.075,0.545 0.403,0.633 0.345,0.374 0.265,0.128 0,0"
             style="fill:#6cac64;fill-opacity:1;fill-rule:nonzero;stroke:none"
             id="path68" />
        </g>
        <g
           id="g70"
           transform="translate(52.3442,277.7285)">
          <path
             d="M 0,0 C 0.105,-0.108 0.211,-0.218 0.317,-0.327 0.211,-0.218 0.105,-0.109 0,0"
             style="fill:#ccb8a2;fill-opacity:1;fill-rule:nonzero;stroke:none"
             id="path72" />
        </g>
        <g
           id="g74"
           transform="translate(69.416,250.0264)">
          <path
             d="M 0,0 C 0.101,-0.11 0.202,-0.221 0.304,-0.33 0.202,-0.221 0.101,-0.11 0,0"
             style="fill:#cdb8a2;fill-opacity:1;fill-rule:nonzero;stroke:none"
             id="path76" />
        </g>
        <g
           id="g78"
           transform="translate(304.5742,425.8896)">
          <path
             d="m 0,0 c -0.164,0.03 -0.273,0.122 -0.27,0.292 0.001,0.04 0.108,0.078 0.166,0.116 0.026,-0.142 0.052,-0.283 0.08,-0.426 z"
             style="fill:#9f896e;fill-opacity:1;fill-rule:nonzero;stroke:none"
             id="path80" />
        </g>
        <g
           id="g82"
           transform="translate(86.7632,255.1533)">
          <path
             d="m 0,0 c -0.532,-0.87 -1.238,-1.03 -2.203,-0.64 -1.524,0.619 -2.708,1.72 -3.889,2.802 -5.322,4.877 -9.485,10.61 -12.528,17.153 -1.379,2.967 -2.589,5.997 -3.133,9.247 -0.089,0.526 -0.102,1.065 -0.15,1.597 -0.007,0.761 0.054,1.501 0.347,2.213 0.458,1.118 1.411,1.618 2.57,1.316 1.718,-0.446 3.062,-1.502 4.318,-2.688 3.89,-3.673 6.973,-7.974 9.677,-12.557 2.1,-3.559 3.999,-7.223 5.253,-11.181 C 0.682,5.937 1.007,4.587 1.012,3.176 1.016,1.999 0.59,0.965 0,0 m 15.747,5.593 -2.04,5.7 c -7.524,11.44 -14.71,24.9 -22.305,33.883 -1.286,1.278 -2.595,2.537 -3.854,3.843 -1.15,1.193 -2.444,2.395 -2.891,3.984 -0.386,1.371 -1.171,2.08 -2.301,2.649 -3.775,1.902 -7.745,2.726 -11.948,2.018 -4.526,-0.762 -8.51,-2.705 -11.973,-5.716 v -10e-4 c -2.486,-1.717 -4.524,-3.862 -5.983,-6.507 -0.448,-0.811 -0.763,-1.726 -0.579,-2.715 0.034,-0.179 0.04,-0.363 0.035,-0.545 l -0.15,-6.115 c -0.01,-0.415 0.064,-0.829 0.218,-1.215 l 5.616,-11.018 c 0.139,-0.328 0.683,-0.994 0.917,-1.263 l 6.229,-8.4 c 0.136,-0.232 0.302,-0.446 0.49,-0.637 7.47,-7.584 9.415,-14.473 13.797,-21.868 l 10.032,-11.069 c 0.847,-1.275 1.531,-2.634 2.007,-4.086 0.315,-0.962 0.869,-1.665 1.818,-2.039 0.235,-0.507 0.299,-1.094 0.71,-1.518 0.841,-2.015 1.679,-4.03 2.523,-6.044 0.249,-0.593 0.59,-1.129 0.974,-1.649 0.451,-0.609 0.909,-0.745 1.643,-0.449 1.337,0.54 2.657,1.114 3.922,1.795 5.265,2.834 10.422,5.854 15.448,9.096 2.925,1.888 5.706,3.952 8.159,6.446 0.537,0.547 1.791,1.71 1.404,2.287 z"
             style="fill:#a0a2a4;fill-opacity:1;fill-rule:nonzero;stroke:none"
             id="path84" />
        </g>
        <g
           id="g86"
           transform="translate(346.0723,353.0527)">
          <path
             d="M 0,0 C -0.002,0.002 -0.004,0.004 -0.006,0.007 H -0.007 Z"
             style="fill:#a0a2a4;fill-opacity:1;fill-rule:nonzero;stroke:none"
             id="path88" />
        </g>
        <g
           id="g90"
           transform="translate(361.8154,353.8311)">
          <path
             d="m 0,0 c -0.588,3.824 -1.539,7.555 -3.625,10.881 -1.009,1.61 -1.703,3.329 -2.08,5.174 -0.277,1.358 -0.457,2.735 -0.68,4.104 -0.522,-0.95 -0.471,-2.055 -0.844,-3.054 -0.618,-1.657 -1.259,-2.022 -2.908,-1.51 -8.585,2.67 -17.264,4.996 -25.999,7.117 -4.573,1.11 -9.216,1.93 -13.907,2.221 -3.791,0.234 -7.59,0.609 -11.401,0.371 h 0.001 -0.001 c -6.602,0.061 -13.204,0.088 -19.806,-0.027 -0.075,0.068 -0.15,0.135 -0.223,0.208 -1.7,0.725 -3.393,-0.013 -5.087,-0.042 -5.588,-0.095 -11.118,-0.781 -16.615,-1.772 -8.513,-1.533 -16.575,-4.432 -24.392,-8.052 -5.063,-2.344 -10.133,-4.71 -14.634,-8.063 -3.728,-2.779 -6.629,-6.179 -6.956,-11.08 -0.269,-4.035 0.038,-8.04 1.118,-11.966 0.456,-1.656 0.784,-3.348 1.677,-4.851 1.139,-1.915 2.329,-2.07 3.781,-0.396 1.653,1.905 3.12,3.96 4.462,6.093 2.267,3.602 5.153,6.578 8.815,8.744 7.336,4.339 15.453,6.598 23.649,8.527 9.758,2.296 19.767,2.147 29.703,2.574 3.632,0.156 7.281,-0.107 10.92,-0.207 6.909,-0.189 13.802,-0.465 20.693,-1.016 6.894,-0.553 13.746,-1.354 20.531,-2.666 2.844,-0.55 5.93,-0.61 8.059,-3.083 0.167,-0.048 0.253,-0.185 0.347,-0.312 2.185,-2.506 3.715,-5.453 5.501,-8.225 1.182,-1.837 2.339,-3.686 3.59,-5.479 0.513,-0.734 1.064,-0.967 1.876,-0.738 0.195,-0.017 0.388,-0.035 0.581,-0.052 0.247,-0.15 0.499,-0.138 0.753,-0.03 0,-0.003 0,-0.007 10e-4,-0.01 1.305,-0.071 2.112,0.591 2.564,1.758 0.618,1.596 1.137,3.204 1.194,4.95 C 0.767,-6.581 0.504,-3.279 0,0"
             style="fill:#a0a2a4;fill-opacity:1;fill-rule:nonzero;stroke:none"
             id="path92" />
        </g>
        <g
           id="g94"
           transform="translate(163.5674,149.6426)">
          <path
             d="m 0,0 c -0.557,1.743 -1.285,3.423 -2.161,5.006 -4.745,8.573 -9.508,17.138 -14.377,25.64 -2.605,4.549 -5.45,8.961 -7.685,13.716 0.012,0.307 0.024,0.613 0.036,0.918 0.78,1.782 0.755,1.755 -0.538,2.963 -0.815,0.761 -1.657,1.501 -2.273,2.461 -0.978,1.524 -1.999,3.019 -3.02,4.513 -0.447,0.656 -0.885,1.338 -1.691,1.628 v -10e-4 l -0.001,10e-4 c -0.665,0.765 -1.406,0.781 -2.27,0.316 -1.977,-1.062 -3.639,-2.577 -5.52,-3.774 h -10e-4 c -0.157,-0.027 -0.329,-0.021 -0.47,-0.083 -4.459,-1.967 -9.124,-2.451 -13.922,-1.906 -2.567,0.292 -5.052,0.853 -7.111,2.57 -1.378,1.887 -1.354,2.387 0.191,4.269 0.065,0.08 0.1,0.186 0.148,0.279 2.141,1.577 2.141,1.577 2.396,2.689 -2.071,-1.04 -4.287,-1.284 -6.262,-2.253 -0.383,-0.187 -0.725,-0.458 -1.106,-0.654 -0.759,-0.391 -0.773,-0.875 -0.33,-1.554 0.965,-1.477 2.325,-2.505 3.767,-3.448 3.871,-2.528 8.229,-3.601 12.744,-4.012 3.583,-0.326 6.958,-1.141 10.008,-3.101 v 0 c 1.829,-1.902 2.437,-4.102 1.624,-6.649 -0.426,-0.43 -0.591,-1.008 -0.841,-1.532 -0.977,-2.053 -0.437,-3.111 1.844,-3.676 0.435,-0.307 0.871,-0.616 1.307,-0.925 0.097,-0.447 0.48,-0.696 0.731,-1.035 0.968,-1.31 1.099,-2.738 0.648,-4.26 -0.198,-0.671 -0.571,-1.261 -0.86,-1.89 -0.544,-1.187 -1.705,-1.917 -2.207,-3.118 v -10e-4 c -1.002,-0.445 -1.647,-1.346 -2.511,-1.972 -1.834,-1.327 -3.891,-2.144 -6.315,-2.76 1.543,-0.504 2.794,-0.967 3.919,-1.704 0.717,-0.471 1.483,-0.932 1.856,-1.726 0.846,-1.803 2.353,-3.122 3.394,-4.778 1.766,-2.97 3.752,-5.798 5.707,-8.642 1.229,-1.789 2.45,-3.593 3.919,-5.204 0.711,-1.206 1.663,-2.225 2.575,-3.265 1.828,-2.087 3.692,-4.152 6.158,-5.537 2.807,-2.039 5.928,-2.568 9.109,-1.309 4.367,1.729 7.522,4.846 9.285,9.259 C 0.488,-3.055 0.493,-1.544 0,0"
             style="fill:#a0a2a4;fill-opacity:1;fill-rule:nonzero;stroke:none"
             id="path96" />
        </g>
        <g
           id="g98"
           transform="translate(107.3999,216.4775)">
          <path
             d="M 0,0 C -0.017,0.01 -0.031,0.022 -0.048,0.032 -0.033,0.035 -0.019,0.036 -0.003,0.04 -0.002,0.026 0,0.014 0,0 Z m 12.194,15.013 c -0.552,-0.185 -1.044,-0.058 -1.537,0.17 l -0.006,0.008 c -0.13,0.092 -0.234,0.203 -0.242,0.373 -0.131,0.464 -0.06,1.168 -0.921,0.69 C 8.809,15.877 8.104,15.547 7.411,15.196 6.705,15.055 6.047,14.804 5.466,14.37 5.078,14.195 4.667,14.059 4.306,13.839 1.533,12.146 -1.275,10.516 -4.152,9.004 -5.336,8.477 -6.521,7.949 -7.705,7.422 -8.449,7.194 -9.193,6.967 -9.937,6.74 -10.764,6.563 -11.58,6.357 -12.295,5.876 c -0.6,-0.039 -1.024,-0.444 -1.509,-0.723 -0.467,-0.13 -0.831,-0.398 -1.094,-0.804 -0.145,-0.062 -0.31,-0.098 -0.43,-0.191 -0.116,-0.091 -0.292,-0.3 -0.26,-0.354 0.163,-0.292 0.356,-0.052 0.515,0.038 0.131,0.074 0.228,0.209 0.341,0.316 v 0 c 0.474,0.125 0.925,0.292 1.253,0.685 0.58,0.324 1.254,0.475 1.747,0.956 h 10e-4 c 0.758,0.058 1.451,0.328 2.125,0.659 10e-4,0 0.002,0 0.002,10e-4 2.234,0.091 4.127,-0.684 5.706,-2.254 0.021,-0.286 0.195,-0.493 0.374,-0.69 1.215,-1.334 1.902,-2.962 2.536,-4.612 0.426,-1.107 0.58,-2.255 0.068,-3.731 1.676,1.539 3.004,2.965 4.131,4.579 1.919,1.974 3.301,4.306 4.516,6.75 0.673,0.583 0.894,1.433 1.212,2.199 0.922,2.218 2.39,4 4.167,5.568 0.292,0.257 0.81,0.307 0.845,0.852 -0.604,0.036 -1.195,0.08 -1.757,-0.107"
             style="fill:#a0a2a4;fill-opacity:1;fill-rule:nonzero;stroke:none"
             id="path100" />
        </g>
        <g
           id="g102"
           transform="translate(307.498,403.1216)">
          <path
             d="m 0,0 c -0.063,-0.148 -0.114,-0.304 -0.199,-0.439 -0.355,-0.567 -0.471,-1.393 -1.347,-1.431 -0.557,-0.025 -0.981,0.75 -1.094,1.945 -0.095,1.021 -0.081,2.027 0.371,2.992 1.314,2.801 2.061,5.784 2.093,8.845 0.041,3.8 -0.54,7.526 -2.743,10.793 0.277,-3.8 0.968,-7.564 0.996,-11.387 C -1.909,9.529 -2.357,7.831 -2.868,6.139 -2.999,5.707 -3.147,5.286 -3.669,5.273 c -0.553,-0.013 -0.623,0.505 -0.8,0.873 -1.041,2.176 -0.847,4.482 -0.613,6.764 0.124,1.214 0.483,2.403 0.739,3.603 0.192,0.893 0.311,1.788 0.074,2.693 -0.193,0.256 -0.379,0.785 -0.594,0.014 -0.236,-0.767 -0.448,-1.542 -0.716,-2.297 -0.154,-0.435 -0.48,-0.749 -0.99,-0.587 -0.506,0.162 -0.615,0.615 -0.479,1.049 0.325,1.05 0.291,2.122 0.262,3.19 -0.081,2.981 -2.353,6.169 -5.113,7.253 -0.371,0.146 -0.735,0.099 -1.107,0.1 -1.18,10e-4 -2.361,-0.029 -3.539,0.028 -2.533,0.12 -4.328,1.869 -4.435,4.401 -0.078,1.819 0.023,3.645 -0.01,5.467 -0.031,1.755 -0.325,2.014 -2.104,2.05 -0.694,0.014 -1.387,0.002 -2.072,0.002 -0.021,0.17 -0.084,0.314 -0.04,0.367 0.919,1.085 1.393,2.236 1.397,3.754 0.007,1.677 1.197,2.836 2.77,3.415 1.336,0.491 2.638,0.357 3.778,-0.6 1.256,-1.054 1.419,-2.561 1.288,-3.972 -0.131,-1.408 0.512,-2.094 1.548,-2.679 0.325,-0.183 0.679,-0.316 1.02,-0.473 1.665,-0.765 2.938,-1.94 3.767,-3.586 0.652,-1.291 1.303,-2.583 1.971,-3.866 1.198,-2.299 2.672,-4.417 4.553,-6.193 C 0.844,22.307 2.446,17.618 2.545,12.332 2.624,8.044 1.693,3.936 0,0 m -16.447,0.382 c -0.936,-0.898 -2.162,-1.096 -3.335,-1.407 -0.655,-0.174 -1.36,-0.052 -2.096,-0.161 0.966,1.762 1.924,3.422 3.908,4.072 0.989,0.323 2.316,0.64 2.814,-0.191 0.444,-0.738 -0.599,-1.648 -1.291,-2.313 m -7.24,7.544 c 1.716,0.015 3.136,0.211 4.541,-0.285 1.003,-0.355 1.752,-0.992 2.342,-1.835 0.641,-0.916 0.397,-1.42 -0.728,-1.637 -0.769,-0.148 -1.508,0.064 -2.183,0.326 -1.612,0.627 -2.866,1.729 -3.972,3.431 M -28.478,-0.5 c 2.056,2.341 3.787,4.795 7.302,3.494 -0.312,-2.505 -3.225,-3.959 -7.302,-3.494 m -5.911,2.695 c 2.452,2.315 5.867,3.072 7.7,1.069 -1.533,-2.325 -5.323,-2.85 -7.7,-1.069 m -2.322,1.632 c -1.155,0.213 -2.156,0.826 -3.375,1.506 1.559,0.858 2.87,1.385 4.357,1.438 1.307,0.045 2.383,-0.463 3.382,-1.205 0.479,-0.356 0.324,-0.662 -0.113,-0.998 -1.297,-0.998 -2.763,-1.017 -4.251,-0.741 m -1.815,5.825 c 0.75,-0.409 1.765,-0.984 1.555,-1.802 -0.202,-0.791 -1.316,-0.892 -2.217,-0.882 -2.128,0.021 -3.716,1.117 -5.519,2.692 2.297,0.615 4.242,1.051 6.181,-0.008 m -8.091,4.202 c -0.313,0.514 -0.153,0.815 0.46,0.824 0.908,0.012 1.822,0.072 2.724,0.003 1.878,-0.144 3.061,-1.304 4.05,-2.943 -2.655,-1.105 -5.878,-0.112 -7.234,2.116 m -1.543,7.144 c 0.387,0.397 0.903,-0.063 1.337,-0.198 0.812,-0.251 1.623,-0.525 2.315,-1.052 1.29,-0.983 2.171,-2.183 2.058,-4.051 -1.754,-0.058 -3.103,0.557 -4.126,1.851 -0.526,0.666 -0.981,1.383 -1.271,2.2 -0.148,0.419 -0.729,0.824 -0.313,1.25 m 0.077,7.688 c 1.6,-1.016 2.923,-1.942 3.667,-3.522 0.451,-0.956 0.523,-1.93 0.437,-2.941 -0.043,-0.519 -0.299,-0.766 -0.862,-0.596 -0.973,0.293 -1.678,0.892 -2.171,1.772 -0.885,1.579 -1.125,3.287 -1.071,5.287 m 1.066,5.573 c 0.044,0.472 0.209,0.934 0.375,1.644 1.591,-1.372 2.548,-2.884 2.896,-4.786 0.108,-0.592 0.061,-1.143 -0.116,-1.708 -0.451,-1.433 -0.853,-1.543 -1.904,-0.416 -1.404,1.506 -1.427,3.375 -1.251,5.266 m 3.695,0.767 c 0.633,1.794 1.675,3.287 3.525,4.527 0.19,-1.891 0.315,-3.465 -0.353,-4.986 -0.443,-1.01 -1.125,-1.776 -2.137,-2.266 -0.513,-0.249 -0.763,-0.179 -0.938,0.375 -0.247,0.782 -0.373,1.571 -0.097,2.35 m 2.668,-7.541 c -0.567,-0.595 -1.287,-1.494 -2.141,-1.025 -0.846,0.465 -0.477,1.571 -0.321,2.372 0.22,1.126 0.924,2.03 1.763,2.802 0.659,0.606 1.311,1.235 2.284,1.561 0.069,-2.126 -0.075,-4.123 -1.585,-5.71 m -1.664,-8.666 c -1.861,1.825 -0.48,5.644 1.857,7.633 1.414,-3.892 0.342,-6.916 -1.857,-7.633 m 1.891,-1.018 c 0.273,1.133 0.695,2.186 1.317,3.407 1.215,-2.009 2.091,-3.826 1.427,-6.033 -0.253,-0.842 -0.579,-1.897 -1.435,-1.895 -0.74,0.002 -1.005,1.085 -1.273,1.845 -0.317,0.901 -0.254,1.769 -0.036,2.676 m 4.176,-1.854 c 1.098,-1.355 1.753,-2.627 2.091,-4.056 0.284,-1.2 0.057,-2.31 -0.554,-3.375 -0.358,-0.622 -0.714,-0.72 -1.253,-0.219 -0.974,0.907 -1.176,2.102 -1.262,3.33 -0.104,1.469 0.428,2.799 0.978,4.32 m 3.538,-2.749 c 1.14,-1.249 2.218,-2.106 2.755,-3.434 0.5,-1.242 0.536,-2.472 0.065,-3.707 -0.291,-0.764 -0.53,-0.817 -1.168,-0.332 -1.589,1.208 -2.007,2.934 -2.007,4.793 0,0.777 0.198,1.554 0.355,2.68 m 4.091,-2.787 c 3.126,-0.716 5.032,-3.442 4.299,-6.307 -2.985,0.912 -4.54,3.24 -4.299,6.307 m -74.477,-2.983 c 0.016,0.087 0.027,0.178 0.083,0.197 -0.026,-0.065 -0.054,-0.131 -0.083,-0.197 M 46.664,-7.591 c 0.01,1.032 -0.21,2.025 -0.418,3.007 -0.207,0.977 -0.851,1.63 -1.902,1.958 l -2.72,0.16 c -0.699,0.28 -1.38,0.064 -2.048,-0.117 -6.015,-1.625 -12.157,-1.96 -18.349,-1.884 -1.317,0.017 -1.801,0.488 -1.8,1.798 0.005,6.489 -0.18,12.979 -0.234,19.465 -0.084,10.031 -0.595,20.056 -0.412,30.09 0.038,2.099 -0.284,2.427 -2.275,3.143 -2.068,0.745 -4.227,1.26 -6.17,2.336 3.125,-0.331 6.056,-1.369 8.998,-2.359 2.684,-0.903 2.685,-0.907 2.685,-3.712 0.002,-15.725 -0.003,-31.45 0.003,-47.175 0.001,-2.706 0.023,-1.85 2.752,-1.833 6.259,0.04 12.373,0.699 18.264,2.578 1.082,0.345 1.464,1.103 1.525,2.188 0.101,1.836 -0.275,3.638 -0.301,5.458 -0.117,7.937 -0.095,15.874 -0.256,23.813 -0.171,8.417 -0.36,16.838 -0.416,25.259 -0.014,1.989 -0.338,2.357 -2.26,2.963 -18.938,5.976 -38.42,8.369 -58.195,8.803 -5.956,0.131 -11.9,-0.167 -17.836,-0.636 -7.403,-0.584 -14.703,-1.703 -21.815,-3.921 -9.465,-2.952 -18.453,-7.009 -27.198,-11.632 -7.203,-3.807 -13.801,-8.474 -19.73,-14.072 -0.819,-0.773 -1.684,-1.531 -1.736,-2.787 0.28,-3.05 0.591,-6.097 0.73,-9.158 0.106,-1.109 0.233,-2.215 0.367,-3.319 0.022,-3.035 0.075,-6.07 -0.064,-9.103 0.133,-2.18 0.345,-4.348 0.977,-6.452 0.293,-2.588 0.839,-5.13 1.365,-7.676 0.352,-0.42 0.516,-0.905 0.663,-1.437 1.097,-3.984 1.847,-8.051 2.929,-12.039 0.492,-1.814 1.01,-3.624 1.782,-5.339 0.698,-1.55 1.017,-1.378 2.705,-1.157 1.173,0.152 2.695,0.341 3.833,0.666 5.172,1.475 9.726,3.953 14.75,5.834 2.551,0.954 3.213,0.283 2.561,2.893 -1.57,6.291 -3.159,12.578 -4.556,18.909 -1.491,6.752 -3.111,13.476 -4.054,20.346 -0.434,3.152 0.614,5.311 3.087,7.196 7.331,5.593 15.486,9.614 24.047,12.864 6.725,2.552 13.511,4.95 20.731,5.751 1.192,0.132 2.372,0.24 3.891,-0.175 -0.827,-0.31 -1.305,-0.382 -1.786,-0.38 -2.934,0.012 -5.746,-0.696 -8.54,-1.469 -10.239,-2.832 -19.954,-6.956 -29.237,-12.09 -3.14,-1.736 -6.282,-3.516 -8.782,-6.192 -0.893,-0.957 -1.354,-1.988 -1.213,-3.341 0.505,-4.866 1.406,-9.665 2.406,-14.443 1.955,-9.342 4.234,-18.609 6.695,-27.83 0.602,-2.256 0.569,-2.26 -1.696,-3.095 -7.201,-2.655 -14.471,-5.113 -21.708,-7.662 -2.037,-0.718 -2.205,-0.934 -2.218,-3.143 -0.014,-2.254 0.019,-4.509 -0.011,-6.763 -0.027,-2.043 0.023,-4.079 0.417,-6.09 0.323,-1.65 1.024,-2.101 2.633,-1.608 1.385,0.425 2.696,1.036 3.975,1.735 3.2,1.748 6.293,3.683 9.645,5.164 5.896,2.604 11.933,4.824 17.959,7.099 9.322,3.52 18.933,5.102 28.834,5.022 11.05,-0.09 22.102,0.325 33.152,-0.266 5.267,-0.281 10.473,-0.869 15.619,-1.989 5.351,-1.163 10.629,-2.626 15.957,-3.881 0.968,-0.228 1.942,-0.696 2.98,-0.26 0.021,0.045 0.038,0.086 0.05,0.126 l 0.012,-0.012 c 0.606,-0.41 1.338,-0.361 2.008,-0.504 1.978,-0.421 3.939,-0.976 5.97,-1.103 1.396,-0.087 1.709,0.182 1.984,1.504 0.602,2.88 0.813,5.814 0.935,8.735 0.155,3.742 0.025,7.494 0.06,11.241"
             style="fill:#a0a2a4;fill-opacity:1;fill-rule:nonzero;stroke:none"
             id="path104" />
        </g>
        <g
           id="g106"
           transform="translate(83.9771,261.1973)">
          <path
             d="m 0,0 c -0.003,-1.497 -0.864,-2.008 -1.874,-1.323 -0.896,0.607 -1.771,1.268 -2.487,2.104 -4.626,5.399 -8.315,11.36 -10.795,18.038 -0.34,0.916 -0.538,1.89 -0.731,2.851 -0.09,0.446 -0.089,0.976 0.394,1.257 0.483,0.281 0.994,0.237 1.476,-0.055 0.715,-0.433 1.363,-0.947 1.917,-1.575 C -7.113,15.648 -3.112,9.402 -0.604,2.261 -0.314,1.436 -0.149,0.567 0,0"
             style="fill:#b2842d;fill-opacity:1;fill-rule:nonzero;stroke:none"
             id="path108" />
        </g>
        <g
           id="g110"
           transform="translate(102.3228,274.6855)">
          <path
             d="m 0,0 c -0.002,-1.353 -0.781,-1.814 -1.693,-1.195 -0.81,0.549 -1.6,1.146 -2.248,1.901 -4.181,4.879 -7.516,10.268 -9.757,16.304 -0.307,0.827 -0.486,1.708 -0.66,2.576 -0.081,0.403 -0.08,0.883 0.356,1.137 0.436,0.253 0.898,0.214 1.334,-0.05 0.646,-0.392 1.231,-0.857 1.732,-1.424 C -6.429,14.144 -2.813,8.499 -0.545,2.044 -0.284,1.298 -0.135,0.514 0,0"
             style="fill:#b2842d;fill-opacity:1;fill-rule:nonzero;stroke:none"
             id="path112" />
        </g>
        <g
           id="g114"
           transform="translate(62.2979,246.9219)">
          <path
             d="m 0,0 c -0.002,-1.217 -0.703,-1.631 -1.523,-1.075 -0.728,0.494 -1.438,1.031 -2.02,1.71 -3.759,4.386 -6.757,9.229 -8.771,14.656 -0.277,0.744 -0.437,1.535 -0.594,2.316 -0.073,0.363 -0.072,0.793 0.32,1.022 0.392,0.227 0.808,0.191 1.199,-0.045 0.581,-0.352 1.107,-0.77 1.557,-1.28 C -5.78,12.715 -2.529,7.64 -0.491,1.837 -0.255,1.167 -0.121,0.461 0,0"
             style="fill:#b2842d;fill-opacity:1;fill-rule:nonzero;stroke:none"
             id="path116" />
        </g>
        <g
           id="g118"
           transform="translate(362.5146,468.7549)">
          <path
             d="M 0,0 C 0.005,0.007 0.009,0.014 0.013,0.021 0.014,0.011 0.014,0.001 0.014,-0.009 0.01,-0.006 0.004,-0.003 0,0 m -1.362,11.413 c 0.036,-0.037 0.072,-0.073 0.107,-0.112 0,0 10e-4,-10e-4 10e-4,-10e-4 -0.003,10e-4 -0.005,0.002 -0.008,0.003 v 0 c 0,0 0.007,-0.002 0.007,-0.002 -0.045,0.017 -0.089,0.033 -0.134,0.05 0.009,0.021 0.019,0.042 0.027,0.062 m 0.731,-1.1 v 0 c -0.017,0.005 -0.035,0.01 -0.053,0.016 0.007,0.011 0.016,0.022 0.022,0.032 0.01,-0.016 0.02,-0.032 0.031,-0.048 m -7.028,-26.035 c 0.231,-0.963 0.292,-2.116 1.179,-2.872 h 0.001 c 0.048,-0.058 0.098,-0.116 0.149,-0.173 0.765,0.751 1.57,1.463 2.287,2.257 3.24,3.594 5.108,7.901 6.288,12.523 0.907,3.551 1.413,7.172 0.688,10.821 l -1.995,4.448 c -1.292,0.845 -0.173,-0.02 -1.427,0.76 -0.359,0.223 -0.741,0.408 -1.121,0.593 -2.159,1.048 -4.424,1.811 -6.706,2.529 -0.132,0.043 -0.225,0.042 -0.287,0.007 -0.368,0.139 -0.725,0.312 -1.134,0.308 -4.128,0.995 -8.257,1.991 -12.385,2.986 -1.189,1.054 -2.676,0.718 -4.059,0.872 -0.407,-0.061 -0.804,-0.021 -1.192,0.118 -0.246,0.036 -0.496,0.057 -0.706,0.21 -1.998,-0.054 -3.935,0.459 -5.884,0.748 -6.421,0.953 -12.883,1.503 -19.35,1.715 -8.304,0.272 -16.622,0.361 -24.935,-0.128 -4.225,-0.249 -8.44,-0.536 -12.648,-1.007 -5.217,-0.584 -10.386,-1.431 -15.529,-2.477 -2.306,-0.47 -4.562,-1.174 -6.908,-1.449 -0.075,0.011 -0.151,0.022 -0.227,0.032 -0.473,0.072 -0.929,-0.02 -1.378,-0.155 -4,-1.133 -8.007,-2.247 -11.894,-3.745 -4.951,-1.908 -9.869,-3.888 -14.627,-6.247 -10.124,-5.018 -19.488,-11.229 -28.442,-18.083 -1.529,-1.17 -3.091,-2.327 -4.103,-4.031 -0.163,-0.269 -0.314,-0.544 -0.464,-0.818 -0.079,-0.138 -0.155,-0.277 -0.219,-0.422 -0.028,-0.052 -0.053,-0.103 -0.079,-0.155 -0.496,-0.594 -0.675,-1.384 -1.013,-2.069 -0.188,-0.383 -0.253,-0.815 -0.697,-1.009 -0.225,-2.064 0.173,-4.084 0.423,-6.115 v 0.001 -0.001 c -0.151,-1.546 0.651,-2.843 1.108,-4.23 0.808,-2.571 2.13,-4.843 3.953,-6.828 1.701,-1.852 3.418,-3.578 6.059,-4.17 1.412,-0.316 2.763,-1.112 3.607,-2.455 0.823,0.131 0.539,0.762 0.509,1.222 -0.072,1.096 -0.254,2.179 -0.538,3.243 -0.678,2.816 -1.098,5.685 -1.738,8.508 -0.235,1.033 0.133,1.768 0.883,2.407 2.489,2.123 4.82,4.427 7.34,6.512 7.926,6.556 16.967,11.257 26.216,15.585 5.154,2.413 10.443,4.503 15.904,6.139 9.694,2.905 19.701,3.737 29.718,4.147 10.341,0.423 20.694,0.058 31.005,-0.961 8.814,-0.871 17.575,-2.13 26.191,-4.232 3.962,-0.966 7.876,-2.103 11.741,-3.421 2.796,-0.954 4.53,-2.723 5.038,-5.681 0.228,-1.32 0.484,-2.641 0.829,-3.937 z"
             style="fill:#a0a2a4;fill-opacity:1;fill-rule:nonzero;stroke:none"
             id="path120" />
        </g>
        <g
           id="g122"
           transform="translate(475.3223,227.5205)">
          <path
             d="m 0,0 c -0.09,-0.633 -0.021,-1.286 -0.043,-1.93 -0.097,-2.778 -0.294,-5.548 -0.584,-8.314 -0.15,-1.433 -0.227,-2.876 -0.345,-4.314 -0.263,-3.196 -0.658,-6.378 -1.089,-9.549 -0.718,-5.289 -1.665,-10.542 -2.769,-15.771 -1.149,-5.447 -2.562,-10.817 -4.168,-16.144 -1.315,-4.36 -2.756,-8.676 -4.222,-12.986 -1.19,-3.501 -2.561,-6.931 -4.116,-10.285 -0.468,-1.009 -0.984,-2.029 -1.799,-2.836 -0.292,-0.29 -0.553,-0.706 -1.082,-0.432 -0.485,0.253 -0.717,0.683 -0.632,1.191 0.096,0.575 0.264,1.149 0.484,1.69 3.846,9.489 6.943,19.227 9.765,29.061 1.521,5.297 2.94,10.613 3.922,16.037 0.571,3.151 1.095,6.311 1.492,9.489 0.377,3.019 0.853,6.025 1.204,9.046 0.3,2.599 0.483,5.212 0.719,7.818 0.299,3.297 0.6,6.594 0.901,9.891 0.009,0.108 0.032,0.215 0.027,0.32 -0.121,2.471 0.401,4.912 0.347,7.376 -0.075,3.325 0.513,6.628 0.299,9.954 -0.2,3.088 -0.315,6.185 -0.839,9.249 -0.234,1.366 -0.295,2.761 -0.439,4.143 -0.147,1.417 -0.436,1.72 -1.802,2.013 -4.752,1.017 -9.495,2.076 -14.254,3.06 -4.443,0.919 -8.902,1.762 -13.388,2.45 -4.113,0.629 -8.225,1.274 -12.338,1.907 -0.42,0.064 -0.816,0.146 -1.281,0.698 2.466,-0.115 4.695,0.158 6.922,-0.257 1.313,-0.245 2.658,-0.202 3.99,-0.354 3.396,-0.388 6.779,-0.867 10.147,-1.422 5.112,-0.844 10.203,-1.81 15.208,-3.168 2.89,-0.785 5.761,-1.639 8.63,-2.497 C 0.288,34.708 0.293,34.67 0.292,33.271 0.286,28.39 0.269,23.508 0.256,18.625 L 0.249,10.595 C 0.231,7.062 0.498,3.523 0,0 m -31.251,-8.182 c 0.384,-5.678 0.147,-11.377 0.387,-17.058 0.216,-5.097 0.103,-10.197 0.301,-15.29 0.126,-3.272 0.205,-6.543 0.227,-9.816 0.014,-1.886 -0.25,-2.265 -2.032,-2.962 -3.793,-1.481 -7.533,-3.097 -11.389,-4.419 -0.253,-0.086 -0.492,-0.222 -0.751,-0.28 -0.965,-0.217 -1.241,-0.014 -1.313,0.989 -0.199,2.782 -0.398,5.563 -0.57,8.345 -0.427,6.904 -0.846,13.81 -1.255,20.715 -0.256,4.336 -0.474,8.675 -0.731,13.012 -0.178,2.997 -0.381,5.993 -0.594,8.988 -0.074,1.053 -0.101,1.03 -1.172,0.944 -3.366,-0.267 -6.733,-0.518 -10.1,-0.775 -0.483,-0.037 -0.983,-0.119 -1.316,0.364 -0.404,0.587 0.058,1 0.312,1.45 2.486,4.408 5.617,8.366 8.643,12.398 1.48,1.973 3.015,3.904 4.478,5.89 0.432,0.586 0.906,0.811 1.618,0.81 10.198,-0.012 20.398,-0.003 30.597,-0.003 0.252,0 0.504,-0.045 0.99,-0.092 -1.367,-1.871 -2.652,-3.563 -3.866,-5.305 -3.412,-4.893 -7.243,-9.453 -11.1,-13.991 -0.996,-1.17 -1.469,-2.356 -1.364,-3.914 m -33.757,4.399 c -0.865,-1.137 -1.757,-1.52 -3.15,-1.262 -1.897,0.35 -3.846,0.235 -5.772,0.397 -4.165,0.35 -8.348,0.491 -12.519,0.779 -1.428,0.098 -2.631,-0.329 -3.763,-1.12 -4.75,-3.318 -7.103,-7.867 -7.101,-13.664 0.004,-4.865 1.302,-9.333 4.164,-13.267 2.543,-3.497 5.838,-5.829 10.372,-5.826 1.991,0.002 2.946,0.952 3.117,2.926 0.032,0.374 0.019,0.752 0.058,1.125 0.29,2.725 0.087,5.453 0.063,8.18 -0.034,3.81 -0.01,7.62 -0.008,11.431 0,0.43 -0.018,0.862 0.03,1.287 0.122,1.05 0.569,1.417 1.597,1.291 2.232,-0.275 4.463,-0.569 6.693,-0.867 1.327,-0.178 2.651,-0.376 3.975,-0.568 1.167,-0.168 1.229,-0.21 1.235,-1.417 0.017,-2.953 0.009,-5.904 0.006,-8.856 -0.006,-5.312 -0.179,-10.632 0.021,-15.936 0.232,-6.168 0.092,-12.332 0.165,-18.497 0.025,-2.108 -0.101,-2.213 -2.191,-1.867 -0.644,0.108 -1.281,0.08 -1.922,0.111 -8.996,0.423 -17.293,2.887 -24.478,8.496 -3.16,2.467 -5.625,5.581 -7.79,8.928 -2.862,4.423 -5.238,9.108 -7.175,14.002 -1.265,3.201 -1.98,6.527 -2.196,9.995 -0.137,2.198 -0.231,4.392 -0.15,6.58 0.131,3.536 0.414,7.074 2.256,10.243 1.408,2.421 3.159,4.584 4.985,6.699 4.919,5.699 11.344,8.189 18.641,8.947 2.343,0.243 4.687,0.454 7.035,0.554 2.406,0.103 4.819,0.028 7.228,0.033 6.601,0.014 13.201,0.028 19.803,0.041 h 1.025 C -51.357,13.57 -52.347,12.57 -53.185,11.484 -57.115,6.387 -61.11,1.339 -65.008,-3.783 m -17.265,43.382 c 1.731,0.573 3.53,0.846 5.323,1.107 3.012,0.44 6.05,0.63 9.09,0.777 0.576,0.029 1.143,-0.012 1.794,-0.692 -5.686,-1.178 -11.228,-1.575 -16.772,-1.907 -0.105,0.621 0.277,0.62 0.565,0.715 m 3.984,-123.882 c -4.125,-0.165 -8.095,0.149 -12.356,0.326 -2.672,0.111 -4.879,0.87 -6.797,2.72 -2.519,2.428 -4.695,5.131 -6.708,7.981 -0.095,0.151 -0.19,0.299 -0.293,0.444 -0.319,0.383 -0.544,0.817 -0.73,1.272 -6.285,10.017 -11.215,20.672 -15.087,31.834 -1.036,2.985 -1.666,6.089 -2.782,9.046 -0.265,0.418 -0.322,0.897 -0.419,1.364 -0.035,0.162 -0.079,0.324 -0.14,0.481 -0.951,4.273 -1.996,8.528 -2.836,12.829 -1.073,5.502 -2.211,10.991 -3.088,16.531 -0.108,0.68 0.093,1.681 -0.958,1.972 -1.246,-2.171 -2.525,-4.321 -3.923,-6.398 -0.076,-0.124 -0.156,-0.245 -0.24,-0.363 -0.041,-0.1 -0.081,-0.2 -0.121,-0.3 -0.055,-0.698 -0.017,-1.385 0.115,-2.078 2.144,-11.297 4.988,-22.413 8.54,-33.35 2.921,-8.992 6.292,-17.812 10.39,-26.335 3.146,-6.539 6.709,-12.841 11.368,-18.458 1.882,-2.268 3.595,-4.806 5.557,-6.877 1.168,-1.233 2.013,-1.999 3.704,-1.982 6.815,0.068 13.632,0.105 20.446,0.011 10.301,-0.144 20.591,0.545 30.891,0.349 l 27.539,0.868 c 0.903,-0.005 1.466,0.172 1.819,1.125 0.538,1.451 1.243,2.842 1.921,4.238 3.097,6.363 5.764,12.894 7.832,19.667 1.172,3.837 2.409,7.654 3.343,11.559 v 0.001 c 0.642,2.201 1.319,4.392 1.918,6.604 2.341,8.64 3.828,17.462 5.477,26.247 1.155,6.158 1.936,12.375 2.608,18.607 0.593,5.493 1.062,10.994 1.175,16.513 0.132,6.33 0.055,12.665 0.08,18.997 0.013,3.027 -0.598,5.938 -1.566,8.787 v 0.001 c -0.264,1.251 -1.325,1.606 -2.313,1.996 -6.703,2.652 -13.745,4.023 -20.789,5.333 -5.523,1.029 -11.081,1.871 -16.676,2.468 -3.883,0.414 -7.762,0.927 -11.663,1.062 -8.844,0.305 -17.688,0.558 -26.533,-0.219 -6.037,-0.531 -12.037,-1.328 -17.983,-2.431 -5.995,-1.111 -11.951,-2.458 -17.82,-4.142 -0.879,0.084 -1.717,-0.212 -2.582,-0.278 -0.082,-0.065 -0.155,-0.162 -0.249,-0.191 -5.199,-1.604 -10.4,-3.195 -15.595,-4.808 -0.455,-0.141 -0.83,-0.123 -1.19,0.178 -0.105,-0.402 0.245,-0.642 0.347,-0.971 0.2,-3.753 0.69,-7.49 0.596,-11.26 2.116,0.899 4.232,1.793 6.346,2.696 6.408,2.734 12.971,5.032 19.664,6.96 2.209,0.636 4.451,1.127 6.715,1.519 0.73,0.127 1.47,0.196 2.275,-0.058 -0.099,-0.787 -0.738,-0.88 -1.235,-1.094 -2.219,-0.953 -4.536,-1.619 -6.857,-2.257 -5.94,-1.632 -11.766,-3.597 -17.517,-5.799 -2.601,-0.995 -5.155,-2.099 -7.732,-3.149 -1.044,-0.426 -1.722,-0.952 -1.947,-2.04 -0.176,-1.326 -0.338,-2.654 -0.535,-3.978 -0.586,-3.933 -1.755,-7.713 -3.088,-11.446 -0.261,-0.937 -0.323,-1.859 -0.141,-2.846 0.347,-1.894 0.669,-3.797 0.957,-5.701 2.813,-18.6 7.619,-36.649 14.935,-54.002 3.364,-7.975 7.209,-15.677 12.645,-22.505 2.471,-3.103 5.493,-5.062 9.457,-5.501 1.279,-0.141 2.555,-0.34 3.838,-0.419 7.173,-0.437 14.36,-0.453 21.54,-0.632 z"
             style="fill:#b2842d;fill-opacity:1;fill-rule:nonzero;stroke:none"
             id="path124" />
        </g>
        <g
           id="g126"
           transform="translate(212.2417,596.564)">
          <path
             d="M 0,0 C 0,0 -0.001,-0.001 -0.001,-0.001 0.001,-0.003 0.003,-0.004 0.005,-0.006 Z"
             style="fill:#089347;fill-opacity:1;fill-rule:nonzero;stroke:none"
             id="path128" />
        </g>
        <g
           id="g130"
           transform="translate(350.3994,579.8511)">
          <path
             d="m 0,0 c -1.798,-8.634 -4.188,-17.116 -6.69,-25.568 -1.576,-5.32 -3.174,-10.634 -5.004,-15.871 -1.341,-3.84 -2.579,-7.735 -4.504,-11.337 -0.948,-1.776 -1.913,-3.528 -2.56,-5.442 -0.223,-0.662 -0.28,-1.296 -0.249,-2.003 0.098,-2.236 -0.465,-4.406 -1.025,-6.539 -1.102,-4.186 -1.984,-8.413 -2.682,-12.679 -0.136,-0.829 -0.112,-1.695 -0.064,-2.538 0.055,-0.975 -0.277,-1.878 -0.406,-2.816 -0.079,-0.575 -0.46,-1.02 -1.015,-1.343 -2.328,-1.351 -5.16,-0.034 -5.558,2.619 -0.054,0.359 0.056,0.746 -0.182,1.085 -0.54,0.148 -0.584,-0.343 -0.736,-0.625 -0.423,-0.784 -1.031,-1.349 -1.864,-1.636 -0.568,-0.196 -0.89,0.102 -0.82,0.729 0.088,0.793 0.323,1.554 0.673,2.27 0.723,1.474 1.409,2.971 2.217,4.398 3.609,6.372 6.439,13.085 8.952,19.949 2.657,7.254 4.765,14.666 6.49,22.185 0.871,3.796 1.563,7.632 2.168,11.488 0.903,5.758 1.273,11.528 1.259,17.349 -0.004,2.148 0.387,4.298 0.599,6.447 0.037,0.376 0.094,0.822 0.546,0.836 0.497,0.015 0.496,-0.528 0.544,-0.836 0.202,-1.3 0.438,-2.609 0.461,-3.919 0.059,-3.549 0.144,-7.106 -0.032,-10.648 -0.106,-2.109 -0.261,-4.212 0.021,-6.355 0.744,2.356 1.53,4.699 2.223,7.07 1.214,4.164 2.689,8.238 4.182,12.306 0.728,1.986 1.427,3.985 2.438,5.853 0.176,0.326 0.338,0.66 0.516,0.985 C 0.004,5.607 0.183,5.784 0.393,5.76 0.721,5.721 0.747,5.424 0.756,5.153 0.808,3.392 0.354,1.695 0,0 m -66.774,-82.943 c -0.013,-1.059 -0.745,-1.44 -2.208,-1.345 -1.039,0.068 -1.428,0.583 -1.248,1.561 0.231,1.258 0.69,2.449 1.171,3.626 4.034,9.893 5.861,20.27 6.271,30.861 0.33,8.517 0.134,17.045 -0.812,25.557 -2.053,18.49 -6.436,36.412 -12.645,53.915 -1.136,3.203 -2.205,6.424 -2.888,9.758 0.167,0.01 0.335,0 0.504,-0.026 0.741,-1.201 1.269,-2.497 1.799,-3.798 1.202,-2.947 1.871,-6.083 3.205,-8.982 0.333,-0.724 0.608,-1.48 1.177,-2.059 0.849,-0.864 1.611,-0.743 2.074,0.387 0.465,1.137 0.567,2.357 0.663,3.58 0.353,4.549 0.324,9.105 0.324,13.662 0,0.883 0.025,1.773 0.454,2.542 0.302,-0.011 0.389,-0.14 0.438,-0.287 0.34,-1.009 0.523,-2.056 0.673,-3.104 1.348,-9.404 1.811,-18.876 1.905,-28.356 0.083,-8.45 0.752,-16.832 2.16,-25.151 1.028,-6.068 1.956,-12.156 2.237,-18.294 0.249,-5.437 0.519,-10.872 0.181,-16.35 -0.487,-7.907 -1.401,-15.714 -3.143,-23.441 -1.059,-4.699 -2.236,-9.389 -2.292,-14.256 m -7.934,8.921 c -0.011,-3.297 -0.205,-6.645 -0.911,-9.908 -0.122,-0.564 -0.336,-1.112 -0.546,-1.653 -0.132,-0.341 -0.305,-0.729 -0.77,-0.663 -0.355,0.05 -0.469,0.376 -0.57,0.687 -0.292,0.907 -0.667,1.792 -0.883,2.716 -0.973,4.158 -1.744,8.364 -2.219,12.601 -0.323,2.877 -0.513,5.781 -0.79,8.663 -0.212,2.205 0.029,4.446 -0.519,6.62 -0.038,0.15 -0.029,0.316 -0.022,0.475 0.185,4.131 -0.461,8.24 -0.306,12.68 -0.294,2.766 0.304,5.81 0.34,8.879 0.015,1.284 0.235,2.608 0.874,3.821 0.628,1.194 0.42,1.923 -0.575,2.817 -0.196,0.177 -0.412,0.338 -0.64,0.471 -1.771,1.031 -2.19,2.627 -1.826,4.501 0.394,2.031 0.395,3.952 -0.823,5.779 -1.14,1.709 -1.397,3.767 -1.77,5.72 -0.85,4.447 -1.57,8.92 -2.004,13.436 -0.328,3.406 -0.923,6.789 -1.164,10.199 -0.129,1.84 -0.243,3.697 -0.453,5.52 -0.259,2.258 -0.019,4.548 -0.533,6.778 -0.035,0.152 -0.032,0.316 -0.028,0.474 0.122,4.077 -0.469,8.131 -0.358,12.212 0.044,1.592 0.388,3.143 0.401,4.735 0.004,0.511 0.052,1.314 0.747,1.409 0.727,0.098 0.884,-0.68 1.083,-1.188 0.617,-1.575 1.005,-3.22 1.279,-4.888 0.717,-4.365 1.134,-8.771 1.838,-13.141 0.248,-1.541 0.552,-3.13 0.405,-4.726 -0.07,-0.761 0.165,-1.469 0.34,-2.183 0.293,-1.202 0.437,-1.289 1.829,-1.218 0.625,0.032 0.703,-0.339 0.681,-0.804 -0.03,-0.633 -0.317,-1.213 -0.325,-1.867 -0.019,-1.597 0.259,-3.152 0.551,-4.705 0.576,-3.064 1.572,-6.025 2.296,-9.051 1.092,-4.561 2.012,-9.156 2.636,-13.815 0.462,-3.446 0.916,-6.889 1.254,-10.35 0.24,-2.467 0.442,-4.934 0.641,-7.404 0.342,-4.267 0.423,-8.543 0.65,-12.812 0.544,-10.273 0.227,-20.546 0.19,-30.817 m -113.095,20.206 c 0.015,-0.064 0.031,-0.127 0.054,-0.187 -0.074,0.031 -0.272,0.047 -0.054,0.187 m 221.436,23.968 c -1.362,-1.245 -2.473,-2.26 -3.583,-3.278 -1.635,-1.499 -3.228,-3.054 -5.041,-4.341 -0.911,-0.647 -1.797,-1.295 -2.464,-2.209 -0.178,-0.244 -0.361,-0.492 -0.607,-0.629 -0.512,0.44 -1.12,0.711 -1.753,0.818 -0.241,0.716 -0.008,1.448 -0.07,2.174 -0.356,4.216 -0.443,8.448 -0.793,12.667 -0.363,4.376 -0.942,8.72 -1.54,13.065 -0.073,0.532 -0.181,1.059 -0.298,1.722 -1.738,-2.073 -3.158,-4.114 -4.588,-6.145 -1.042,-1.478 -2.195,-2.854 -3.528,-4.073 -1.837,-1.679 -3.231,-1.304 -4.004,1.053 -0.033,0.1 -0.061,0.202 -0.084,0.306 -0.32,1.446 -0.58,2.914 -0.595,4.388 C 4.623,-8.615 4.478,-2.906 4.041,2.796 3.74,6.733 3.139,10.625 2.607,14.65 1.622,13.517 0.738,12.485 -0.162,11.468 -1.129,10.377 -2.242,9.434 -3.134,8.258 -4.509,6.444 -6.049,4.762 -7.762,3.252 c -1,-0.882 -1.958,-0.726 -2.613,0.416 -0.235,0.41 -0.371,0.875 -0.575,1.305 -0.399,0.84 -0.223,1.778 -0.449,2.636 -0.706,2.666 -1.049,5.396 -1.531,8.102 -0.749,4.214 -1.305,8.465 -2.448,12.603 -0.243,0.878 -0.556,1.724 -1.059,2.469 -0.615,0.911 -1.56,0.958 -2.219,0.099 -0.48,-0.624 -0.874,-1.326 -1.224,-2.033 -0.936,-1.896 -1.82,-3.817 -2.831,-5.679 -0.655,-1.208 -1.643,-2.271 -2.096,-3.517 -0.66,-1.815 -1.898,-3.13 -3.047,-4.555 0.003,-0.717 0.338,-1.369 0.066,-2.16 -0.892,-2.593 -1.048,-5.305 -0.786,-8.01 0.295,-3.057 0.432,-6.129 0.862,-9.173 0.104,-0.735 -0.225,-1.896 0.784,-1.981 0.962,-0.081 0.953,1.102 1.176,1.82 1.726,5.573 3.212,11.211 4.485,16.906 0.172,0.771 0.248,1.638 1.092,2.277 0.429,-0.774 0.464,-1.459 0.378,-2.131 -0.161,-1.263 -0.193,-2.538 -0.347,-3.797 -1.436,-11.809 -3.868,-23.422 -6.918,-34.914 -1.008,-3.803 -2.778,-7.365 -3.726,-11.147 -2.995,-11.938 -5.335,-24.004 -5.856,-36.354 -0.061,-1.461 -0.04,-3.052 -1.145,-4.206 -0.952,-0.995 -1.107,-2.1 -0.971,-3.366 0.249,-2.31 0.05,-2.656 -2.201,-2.888 -5.284,-0.545 -10.588,-0.36 -15.879,-0.119 -1.629,0.074 -3.277,0.097 -4.907,0.389 -1.269,0.228 -1.593,0.822 -1.233,1.986 0.468,1.52 0.942,3.039 1.521,4.521 5.883,15.049 8.668,30.772 10.175,46.773 0.712,7.556 0.689,15.131 0.663,22.709 -0.018,5.203 -0.492,10.368 -1.158,15.519 -0.708,5.475 -2.184,10.807 -3.075,16.248 -0.093,0.575 -0.213,1.148 -0.172,1.737 0.064,0.914 0.557,1.326 1.466,1.263 0.85,-0.061 1.243,-0.504 1.157,-1.359 -0.112,-1.11 -0.17,-2.224 -0.065,-3.335 0.412,-4.335 1.178,-8.611 2.236,-12.834 0.192,-0.771 0.395,-1.548 0.77,-2.253 0.621,-1.172 1.439,-1.209 2.136,-0.099 0.486,0.773 0.722,1.652 0.906,2.535 1.571,7.585 2.793,15.217 3.135,22.972 0.057,1.317 0.057,2.692 0.735,3.884 0.392,-0.099 0.439,-0.319 0.491,-0.517 0.15,-0.565 0.257,-1.139 0.319,-1.719 0.609,-5.75 0.994,-11.473 0.11,-17.263 -0.991,-6.491 -1.335,-13.069 -2.136,-19.589 -1.008,-8.211 -2.387,-16.36 -3.94,-24.488 -2.772,-14.511 -3.08,-29.269 -4.192,-43.946 -0.244,-3.211 -0.225,-6.476 -1.379,-9.561 -0.319,-0.853 -0.744,-1.754 0.105,-2.497 0.872,-0.764 1.894,-0.558 2.844,-0.11 1.2,0.567 1.945,1.61 2.631,2.693 1.883,2.979 3.107,6.257 4.35,9.529 5.119,13.461 9.273,27.189 11.591,41.436 1.006,6.176 1.756,12.386 2.057,18.631 0.204,4.23 0.154,8.477 -0.036,12.717 -0.2,4.441 -1.647,8.884 -0.011,13.326 -0.981,1.16 -1.573,2.536 -1.88,3.984 -0.217,1.025 -0.401,2.065 -0.603,3.098 -1.78,9.159 -4.271,18.112 -7.634,26.82 -0.261,0.676 -0.65,1.185 -1.154,1.633 -0.421,-0.133 -0.586,-0.476 -0.796,-0.776 -1.375,-1.963 -2.364,-4.127 -3.291,-6.322 -1.542,-3.651 -2.985,-7.345 -4.743,-10.902 -0.587,-1.187 -1.261,-2.325 -2.083,-3.371 -1.321,-1.684 -1.99,-1.645 -3.192,0.176 -0.619,0.937 -1.047,1.959 -1.394,3.018 -1.432,4.38 -3.208,8.624 -5.028,12.854 -2.197,5.108 -4.765,10.038 -7.129,15.066 -0.319,0.679 -0.674,1.341 -1.079,2.144 -0.517,-0.881 -0.642,-1.673 -0.884,-2.418 -0.863,-2.665 -2.148,-5.179 -2.772,-7.933 -0.663,-2.919 -2.037,-5.541 -3.673,-8.015 -0.361,-0.546 -0.839,-1.075 -1.498,-1.323 -0.412,0.038 -0.827,0.016 -1.232,-0.067 -0.647,0.498 -1.237,1.02 -1.491,1.868 -0.678,2.27 -1.597,4.448 -2.536,6.622 -2.153,4.985 -4.238,9.999 -6.35,15.001 -0.614,0.291 -0.69,-0.232 -0.855,-0.582 -0.398,-0.845 -0.685,-1.739 -1.113,-2.571 l 0.01,0.019 c -0.244,-0.528 -0.323,-1.122 -0.649,-1.616 l 0.009,0.024 c -0.159,-0.224 -0.14,-0.522 -0.309,-0.743 -0.755,-1.577 -1.232,-3.258 -1.831,-4.894 -1.473,-4.027 -2.848,-8.095 -3.797,-12.273 -0.942,-4.147 -2.434,-8.178 -2.582,-12.507 -0.061,-1.77 -0.868,-3.471 -1.164,-5.192 -0.421,-2.453 -0.986,-4.864 -1.497,-7.291 -0.222,-0.944 -0.173,-1.894 -0.03,-2.84 0.454,-2.993 0.495,-6.029 0.534,-9.029 0.092,-7.154 0.197,-14.29 0.962,-21.418 1.066,-9.931 2.811,-19.73 5.304,-29.392 3.296,-12.772 7.761,-25.112 13.871,-36.831 0.564,-1.081 1.032,-2.213 1.347,-3.394 0.193,-0.723 0.171,-1.43 -0.797,-1.561 -0.802,-0.108 -1.222,0.37 -1.229,1.109 -0.03,2.937 -1.779,5.158 -3.104,7.552 -0.24,0.433 -0.548,1.085 -1.147,0.87 -0.56,-0.2 -0.534,-0.9 -0.443,-1.409 0.272,-1.52 0.183,-3.067 0.396,-4.59 0.349,-2.502 -0.22,-3.74 -2.276,-4.621 0.157,0.45 0.058,0.944 -0.12,1.417 -0.43,1.143 -1.028,2.21 -1.581,3.296 -3.144,6.178 -5.47,12.632 -6.719,19.47 -0.962,5.268 -2.2,10.478 -3.433,15.688 -0.938,3.965 -1.973,7.934 -1.69,12.078 0.025,0.369 -0.001,0.748 -0.104,1.105 -0.317,1.096 -0.815,2.009 -2.194,1.78 -0.833,-0.138 -1.121,0.319 -1.321,1.011 -1.312,4.554 -3.451,8.77 -5.339,13.09 -1.8,4.12 -3.893,8.14 -4.543,12.677 -0.075,0.526 -0.259,1.056 -0.607,1.455 -1.82,2.087 -2.356,4.704 -3.042,7.258 -1.208,4.506 -1.826,9.153 -3.252,13.607 -0.773,2.415 -2.01,4.662 -2.421,7.215 -0.72,4.462 -1.304,8.931 -1.382,13.523 0.643,-2.212 1.585,-4.232 2.387,-6.302 1.894,-4.891 3.488,-9.913 5.493,-14.733 4.293,-10.32 9.425,-20.275 14.124,-30.421 0.2,-0.432 0.409,-0.865 0.714,-1.237 0.164,-0.198 0.337,-0.443 0.636,-0.378 0.301,0.066 0.363,0.356 0.426,0.613 0.091,0.367 0.048,0.737 -0.005,1.105 -0.298,2.046 -0.36,4.117 -0.469,6.172 -0.276,5.237 -0.578,10.47 -1.387,15.653 -0.603,3.862 -1.098,7.782 -3.636,11.304 0.573,-0.372 0.92,-0.764 1.431,-0.537 -0.195,1.128 -1.203,1.691 -1.802,2.537 -2.811,3.977 -5.477,8.051 -8.205,12.085 -1.985,2.936 -4.035,5.838 -5.857,8.875 -1.807,3.013 -3.991,5.705 -6.301,8.318 -0.605,0.177 -1.108,0.858 -1.847,0.377 -0.818,-0.779 -1.016,-1.828 -1.186,-2.865 -1.144,-6.988 -1.383,-14.059 -1.886,-21.106 -0.203,-2.845 -0.507,-5.673 -1.004,-8.478 -0.173,-0.977 -0.374,-1.988 -1.217,-2.682 -0.02,-0.082 -0.04,-0.165 -0.06,-0.248 0.058,-0.064 0.115,-0.127 0.174,-0.189 1.38,-0.403 1.996,-1.424 2.346,-2.742 0.673,-2.524 0.987,-5.109 1.17,-7.691 0.66,-9.298 2.52,-18.363 5.103,-27.294 3.711,-12.827 8.748,-25.125 15.006,-36.912 4.407,-8.299 9.361,-16.261 15.407,-23.495 1.679,-2.008 3.599,-3.747 5.943,-4.953 0.086,-0.044 0.175,-0.087 0.265,-0.128 -2.331,-0.715 -4.708,-1.275 -7.043,-1.974 -0.457,-0.137 -1.026,-0.157 -1.334,-0.537 -0.214,-0.021 -0.426,-0.049 -0.634,-0.087 -0.545,-0.069 -1.087,-0.149 -1.627,-0.251 -0.997,-0.189 -1.976,-0.495 -2.985,-0.462 -0.118,0.133 -0.177,0.328 -0.158,0.619 0.044,0.66 -0.231,1.246 -0.43,1.844 -1.414,4.222 -3.42,8.196 -5.162,12.281 -1.099,2.577 -2.213,5.154 -2.833,7.903 -0.243,1.075 -0.296,2.175 -0.648,3.248 -2.098,6.406 -5.058,12.443 -7.89,18.531 -1.541,3.315 -3.236,6.559 -4.897,9.816 -1.443,2.831 -2.853,5.683 -4.424,8.442 -2.572,4.514 -4.916,9.138 -7.011,13.887 -2.069,4.692 -4.08,9.411 -5.862,14.222 -0.956,2.578 -2.018,5.137 -2.699,7.791 -0.676,2.634 -1.565,5.154 -2.777,7.569 -0.455,0.907 -0.812,1.855 -1.031,2.827 -0.231,1.019 -0.601,2.043 -0.432,3.12 0.084,0.535 0.517,0.693 0.909,0.326 0.226,-0.212 0.379,-0.503 0.562,-0.761 0.745,-1.042 1.176,-2.252 1.796,-3.36 1.132,-2.025 2.154,-4.113 3.971,-5.683 0.626,-0.542 0.978,-1.381 0.993,-2.275 0.008,-0.531 0.078,-1.04 0.229,-1.56 1.188,-4.12 3.172,-7.822 5.788,-11.203 0.266,-0.344 0.484,-0.746 0.992,-0.625 0.589,0.14 0.574,0.656 0.648,1.136 0.232,1.518 0.101,3.022 0.041,4.548 -0.162,4.148 -0.8,8.197 -2.183,12.101 -0.41,1.159 -0.309,2.012 0.535,2.831 -0.101,0.108 -0.201,0.106 -0.3,-0.008 -0.107,-0.023 -0.215,-0.046 -0.322,-0.069 -0.222,-0.1 -0.441,-0.113 -0.654,0.026 -0.785,0.229 -1.385,0.731 -1.966,1.281 -1.153,1.092 -2.155,2.314 -3.136,3.557 -3.762,4.759 -7.705,9.362 -11.937,13.712 -0.731,-0.489 -0.441,-1.247 -0.434,-1.883 0.047,-4.366 -0.425,-8.713 -0.436,-13.076 -0.118,-1.256 -0.023,-2.514 -0.053,-3.771 -0.001,-0.651 0,-1.302 0,-1.953 -0.1,-0.971 0.202,-1.966 -0.178,-2.92 -0.023,-0.627 -0.077,-1.255 -0.065,-1.882 0.074,-3.849 -0.133,-7.69 -0.255,-11.533 -1.74,0.309 -2.288,-1.484 -2.346,-3.173 -0.479,0.376 -1.008,0.694 -1.458,1.105 -2.464,2.247 -4.927,4.493 -7.384,6.746 -1.098,1.008 -2.324,1.841 -3.593,2.607 -0.726,0.439 -1.054,0.245 -1.158,-0.597 -0.045,-0.366 -0.031,-0.741 -0.031,-1.112 0,-2.008 0.146,-4.016 0.185,-6.016 0.062,-3.138 0.613,-6.202 0.951,-9.296 0.326,-2.994 0.808,-5.972 0.808,-8.992 0,-0.784 -0.015,-1.581 -0.247,-2.36 -0.52,-1.735 -1.305,-2.104 -2.942,-1.265 -1.183,0.607 -2.226,1.426 -3.251,2.268 -1.675,1.375 -3.238,2.9 -5.162,3.946 -2.29,1.244 -2.446,1.146 -2.499,-1.497 -0.06,-2.927 0.571,-5.777 0.973,-8.651 0.975,-6.966 2.759,-13.76 4.402,-20.584 0.165,-0.686 0.764,-1.514 0.101,-2.085 -0.634,-0.545 -1.412,0.056 -2.076,0.323 -2.654,1.068 -5.132,2.502 -7.688,3.775 -1.228,0.611 -2.513,0.996 -3.95,1.265 -0.105,-0.909 -0.019,-1.675 0.224,-2.437 0.144,-0.453 0.279,-0.913 0.363,-1.38 0.845,-4.691 2.068,-9.278 3.674,-13.768 0.84,-2.348 1.174,-4.827 1.677,-7.259 0.188,-0.909 -0.069,-1.208 -0.979,-1.51 -0.722,-0.241 -1.476,-0.255 -2.203,-0.121 -1.456,0.271 -2.887,0.636 -4.225,1.32 -1.237,0.632 -2.311,1.492 -3.431,2.288 -1.008,0.717 -2.018,1.128 -3.183,0.313 0.218,-0.151 0.57,-0.26 0.624,-0.453 0.714,-2.533 1.387,-5.079 2.07,-7.621 0.193,-0.72 0.333,-1.462 0.872,-2.033 0.189,-0.548 0.351,-1.107 0.572,-1.642 0.805,-1.948 1.628,-3.888 2.445,-5.831 0.004,-0.185 0.125,-0.291 0.264,-0.383 0.094,-0.126 0.207,-0.242 0.279,-0.379 2.098,-4.028 4.679,-7.769 6.964,-11.688 1.618,-2.776 3.785,-5.205 6.096,-7.465 4.681,-4.576 9.107,-9.401 13.638,-14.122 2.125,-2.213 4.015,-4.639 4.846,-7.698 0.168,-0.041 0.371,-0.005 0.409,0.138 0.894,3.377 3.534,5.129 6.26,6.84 1.437,0.902 1.454,1.38 0.291,2.601 -1.974,2.071 -3.937,4.157 -5.94,6.193 -7.99,8.122 -15.925,16.292 -23.652,24.665 -3.498,3.789 -6.757,7.745 -9.365,12.221 3.116,-2.931 5.896,-6.196 9,-9.139 0.848,-0.806 1.704,-1.594 2.679,-2.241 0.437,-0.29 0.941,-0.664 1.451,-0.274 0.568,0.434 0.34,1.051 0.135,1.606 -0.129,0.348 -0.319,0.67 -0.476,1.006 -1.059,2.257 -2.435,4.348 -3.46,6.623 -0.634,1.408 -1.167,2.843 -1.307,4.399 0.713,-0.365 1.024,-0.98 1.384,-1.556 1.462,-2.34 2.66,-4.828 3.949,-7.261 5.998,-11.323 13.273,-21.689 22.625,-30.514 1.459,-1.377 2.978,-2.701 4.792,-3.648 1.895,-0.99 3.569,-0.698 5.142,0.639 2.581,2.193 2.883,4.077 1.119,6.948 -0.306,0.497 -0.663,0.959 -1.001,1.434 -1.076,1.512 -2.299,2.964 -3.039,4.653 -1.287,2.936 -3.341,5.289 -5.452,7.575 -5.794,6.274 -11.283,12.79 -16.394,19.634 -3.71,4.967 -7.693,9.736 -10.38,15.392 -0.84,1.769 -1.619,3.575 -2.764,5.187 -0.058,0.066 -0.057,0.071 -0.044,0.066 0.015,-0.026 0.033,-0.051 0.055,-0.074 4.17,-4.588 8.093,-9.381 11.673,-14.451 0.427,-0.605 1.011,-1.087 1.646,-1.484 0.4,-0.251 0.837,-0.608 1.313,-0.306 0.525,0.333 0.481,0.928 0.35,1.445 -0.379,1.492 -0.897,2.933 -1.564,4.328 -2.127,4.45 -4.459,8.774 -7.547,12.749 1.057,-0.687 1.905,1.288 2.847,0.158 0.708,-0.85 1.18,-1.884 1.662,-2.889 0.253,-0.526 0.543,-1.034 0.779,-1.566 2.132,-4.8 4.498,-9.483 7.122,-14.029 4.919,-8.519 10.651,-16.459 17.199,-23.802 3.175,-3.56 6.446,-7.026 10.242,-9.951 1.4,-1.078 2.937,-1.9 4.6,-2.477 1.317,-0.457 2.518,-0.171 3.539,0.766 0.974,0.894 1.089,1.996 0.72,3.213 -0.2,0.66 -0.387,1.323 -0.651,1.961 -1.293,3.143 -2.854,6.153 -4.548,9.095 -4.002,6.946 -8.398,13.622 -13.544,19.787 -3.326,3.984 -6.877,7.792 -9.599,12.251 -2.486,4.072 -5.1,8.064 -7.655,12.091 -2.727,4.297 -5.51,8.56 -7.703,13.168 -0.419,0.88 -0.83,1.765 -0.983,3.121 1.674,-1.173 2.597,-2.536 3.605,-3.785 2.401,-2.979 4.413,-6.222 6.303,-9.545 0.359,-0.63 0.838,-1.416 1.728,-0.998 0.782,0.368 0.532,1.193 0.388,1.854 -1.083,4.996 -2.673,9.805 -5.233,14.265 -0.796,1.388 -2.001,2.422 -3.194,3.858 2.295,0.013 3.633,-1.021 4.55,-2.677 1.105,-1.995 2.059,-4.063 2.824,-6.219 1.755,-4.945 3.531,-9.886 5.747,-14.649 5.189,-11.155 11.623,-21.538 19.385,-31.093 3.878,-4.774 7.905,-9.417 12.333,-13.688 1.862,-1.797 3.758,-3.615 6.101,-4.803 2.03,-1.031 3.078,-0.294 2.889,1.951 -0.181,2.158 -1.118,4.076 -2.007,5.999 -2.804,6.059 -5.667,12.091 -8.498,18.136 -1.309,2.796 -2.531,5.772 -5.478,7.412 -0.243,0.135 -0.351,0.385 -0.396,0.659 -0.497,2.97 -2.236,5.365 -3.775,7.814 -4.372,6.955 -9.041,13.722 -13.052,20.904 -4.343,7.774 -8.725,15.528 -11.993,23.842 -0.26,0.663 -0.645,1.315 -0.495,2.106 0.624,-0.061 0.888,-0.503 1.166,-0.857 3.322,-4.223 6.185,-8.734 8.42,-13.63 0.397,-0.87 0.422,-1.87 0.885,-2.714 0.374,-0.682 0.922,-1.178 1.763,-1.162 0.576,0.012 1.001,0.321 1.292,0.805 0.361,0.605 0.205,1.225 0.031,1.847 -0.685,2.451 -1.386,4.904 -1.803,7.414 -0.746,4.501 -2.082,8.727 -5.202,12.202 0.065,1.398 0.404,3.06 1.716,3.457 0.054,-0.015 0.108,-0.028 0.165,-0.047 0.123,-0.041 0.211,0.03 0.244,0.126 0.089,0.008 0.183,0.009 0.28,0.007 1.089,-0.281 1.858,-0.992 2.235,-2.188 0.205,-0.651 0.381,-1.332 0.426,-2.008 0.123,-1.851 0.483,-3.656 0.913,-5.451 1.109,-4.632 2.566,-9.153 4.188,-13.632 2.67,-7.37 5.809,-14.536 9.179,-21.605 1.595,-3.346 3.41,-6.578 5.192,-9.828 3.625,-6.61 8.084,-12.644 12.76,-18.521 3.485,-4.38 7.13,-8.632 10.664,-12.974 0.73,-0.897 1.315,-1.918 1.909,-2.917 0.221,-0.37 0.674,-0.856 0.17,-1.27 -0.409,-0.336 -0.765,0.125 -1.112,0.341 -1.006,0.624 -1.793,1.471 -2.499,2.408 -0.705,0.935 -1.519,1.769 -2.459,2.464 -0.226,0.167 -0.541,0.427 -0.851,0.145 -0.23,-0.209 -0.087,-0.485 -0.015,-0.74 0.389,-1.386 1.004,-2.673 1.667,-3.942 0.462,-0.883 0.704,-1.775 0.028,-2.681 -0.103,-0.139 -0.025,-0.291 0.146,-0.364 1.424,0.193 2.688,0.894 4.054,1.283 2.617,0.742 5.2,1.6 7.795,2.415 0.692,0.056 1.385,0.111 2.077,0.166 0.676,-0.18 1.33,0.054 1.981,0.206 14.148,3.306 28.491,4.807 43.014,4.668 3.126,-0.03 6.252,-0.014 9.378,-0.002 5.141,0.021 10.251,-0.471 15.37,-0.868 4.599,-0.357 9.142,-1.145 13.719,-1.674 0.366,0.003 0.722,-0.044 1.074,-0.134 0.432,-0.082 0.864,-0.122 1.3,-0.026 1.068,0.475 0.489,0.787 -0.117,1.05 -0.837,0.366 -1.842,0.324 -2.656,0.971 1.598,1.62 2.749,3.388 3.8,5.233 2.47,4.334 4.583,8.843 6.531,13.43 3.672,8.644 7.033,17.397 8.799,26.667 0.891,4.685 1.798,9.367 2.814,14.027 0.227,1.037 0.461,2.072 0.858,3.058 0.189,0.468 0.356,1.196 1.01,0.984 0.62,-0.2 0.358,-0.9 0.302,-1.405 -0.053,-0.474 -0.191,-0.934 -0.344,-1.387 -1.288,-3.804 -1.812,-7.725 -1.752,-11.728 0.014,-0.917 -0.25,-2.237 0.867,-2.457 1.009,-0.198 1.26,1.107 1.598,1.89 1.493,3.456 2.649,7.042 4.019,10.545 1.117,2.858 2.141,5.759 3.691,8.705 -0.005,-0.973 -0.144,-1.648 -0.284,-2.323 -2.979,-14.431 -7.409,-28.395 -13.616,-41.77 -1.445,-3.116 -2.895,-6.262 -5.432,-8.719 -0.475,-0.461 -0.725,-1.099 -0.581,-1.75 0.611,-2.731 -0.256,-5.238 -1.081,-7.763 -0.592,-1.812 -1.216,-3.624 -1.269,-5.559 -0.052,-1.889 -0.04,-1.89 -1.907,-1.72 -1.047,0.095 -1.047,0.095 -1.443,-0.742 0.238,-0.219 0.522,-0.366 0.833,-0.432 3.403,-0.728 6.777,-1.569 10.137,-2.477 0.46,-0.124 0.933,-0.197 1.385,0.056 1.384,3.551 3.007,6.985 4.904,10.293 0.578,1.008 1.099,2.055 1.514,3.147 4.589,12.049 9.163,24.103 10.556,37.053 0.778,0.731 1.764,0.617 2.458,-0.152 0,-0.025 -10e-4,-0.05 -10e-4,-0.075 0.025,-3.071 -0.044,-6.136 -0.309,-9.199 -0.06,-0.681 -0.295,-1.787 0.56,-1.923 0.744,-0.118 1.022,0.961 1.258,1.631 0.835,2.359 1.971,4.574 3.151,6.764 0.682,1.266 1.35,2.583 2.859,3.676 -0.634,-2.799 -1.584,-5.145 -2.547,-7.478 -2.546,-6.17 -5.345,-12.227 -8.253,-18.236 -3.461,-7.153 -6.934,-14.295 -10.75,-21.27 -0.985,-1.802 -2.449,-3.304 -3.152,-5.264 0.469,-0.474 1.106,-0.593 1.7,-0.799 2.093,-0.727 4.184,-1.487 6.045,-2.706 1.383,-0.907 1.51,-0.845 2.458,0.575 1,1.498 1.758,3.12 2.61,4.696 0.194,0.237 0.096,0.623 0.405,0.801 0.698,1.593 1.272,3.254 2.117,4.764 1.657,2.954 3.056,6.027 4.486,9.088 0.244,0.525 0.429,1.312 0.841,1.475 0.891,0.354 0.857,1.052 1.059,1.723 0.788,2.624 1.351,5.329 2.813,7.712 0.185,0.303 0.3,0.694 0.314,1.05 0.03,0.757 0.299,1.445 0.507,2.151 0.816,2.784 1.825,5.526 2.416,8.356 0.982,4.698 1.807,9.432 2.088,14.245 0.199,3.42 0.047,6.833 0.13,10.586"
             style="fill:#089347;fill-opacity:1;fill-rule:nonzero;stroke:none"
             id="path132" />
        </g>
      </g>
    </g>
  </g>
</svg>
