<?xml version="1.0" encoding="UTF-8" standalone="no"?>
<!-- Created with Inkscape (http://www.inkscape.org/) -->

<svg
   width="158.29121mm"
   height="23.494852mm"
   viewBox="0 0 158.29121 23.494852"
   version="1.1"
   id="svg1"
   xmlns="http://www.w3.org/2000/svg"
   xmlns:svg="http://www.w3.org/2000/svg">
  <defs
     id="defs1">
    <linearGradient
       id="swatch17">
      <stop
         style="stop-color:#f29111;stop-opacity:1;"
         offset="0"
         id="stop17" />
    </linearGradient>
  </defs>
  <g
     id="layer1"
     transform="translate(-12.79187,-17.91967)">
    <path
       d="m 166.7986,26.977165 c -1.933,-1.05e-4 -3.50007,1.56696 -3.50004,3.500044 -3e-5,1.933085 1.56704,3.50015 3.50004,3.500045 0.9971,-0.0054 1.94454,-0.435913 2.6045,-1.18339 -0.012,4.604044 -3.34399,8.329602 -7.45071,8.330758 -0.29034,-0.0041 -0.58023,-0.02722 -0.86817,-0.06925 0.72893,0.236411 1.48675,0.357432 2.24896,0.359151 4.28007,1.97e-4 7.74988,-3.681088 7.74992,-8.222237 -0.005,-1.567843 -0.4318,-3.101594 -1.23094,-4.420402 -0.0844,-0.137997 -0.17258,-0.273279 -0.26458,-0.40566 -0.54236,-0.716368 -1.33947,-1.196701 -2.22622,-1.34152 -0.186,-0.03098 -0.3742,-0.04688 -0.56276,-0.04754 z"
       style="opacity:1;fill:#008000;stroke-width:0.112034"
       id="path111" />
    <g
       id="g4-6-4"
       transform="matrix(0.25451361,0,0,0.23116099,126.62087,-17.696459)">
      <path
         id="rect3-5-0"
         style="fill:#f29111;fill-opacity:1;stroke-width:0.183425"
         d="m 149.95348,183.95662 -10.80444,-7.30193 11.2837,-7.0288 z" />
      <circle
         style="fill:#008000;stroke-width:0.173318"
         id="path1-7-9"
         cx="156.65248"
         cy="177.06587"
         r="10" />
    </g>
    <path
       d="m 165.95221,27.094211 c -1.55542,0.387566 -2.64873,1.782331 -2.65368,3.385362 0.005,1.595258 1.08779,2.985388 2.63332,3.380356 m 0,0 c 1.14919,-0.874754 1.64802,-1.858107 1.65289,-3.453367 -1.8e-4,-1.591257 -0.63564,-2.72137 -1.63253,-3.312351"
       style="fill:#ff0000;stroke-width:0.0606603"
       id="path15" />
    <path
       style="font-size:85.3333px;font-family:'Fira Sans';-inkscape-font-specification:'Fira Sans';white-space:pre;fill:#00758f;fill-opacity:1;stroke-width:0.264583"
       d="m 156.24184,17.919671 c 0.97837,1.354666 1.74601,2.513658 2.30293,3.476977 0.57197,0.963318 1.0461,2.092206 1.4224,3.386666 0.3763,1.294458 0.56445,2.784592 0.56445,4.470398 0,1.685805 -0.18815,3.175939 -0.56445,4.470397 -0.3763,1.294461 -0.85043,2.423348 -1.4224,3.386666 -0.55692,0.963319 -1.32456,2.122311 -2.30293,3.476975 l -1.8288,-1.241777 c 1.09879,-1.595496 1.90406,-3.145835 2.41582,-4.651021 0.51177,-1.505185 0.76765,-3.31893 0.76765,-5.44124 0,-2.122311 -0.25588,-3.928534 -0.76765,-5.418664 -0.51176,-1.505186 -1.31703,-3.06305 -2.41582,-4.673598 z"
       id="path31" />
    <path
       id="path30"
       style="font-size:85.3333px;font-family:'Fira Sans';-inkscape-font-specification:'Fira Sans';white-space:pre;fill:#00758f;fill-opacity:1;stroke-width:0.264583"
       d="m 146.64621,21.453721 c -1.49011,3.375533 -2.98071,6.750851 -4.47053,10.126514 0,0.875916 0,1.751833 0,2.627746 2.1525,0 4.305,0 6.45749,0 0,1.159103 0,2.318205 0,3.477308 1.29346,0 2.58692,0 3.88038,0 0,-1.159103 0,-2.318205 0,-3.477308 0.60961,0 1.21922,0 1.82883,0 0,-1.090199 0,-2.180399 0,-3.270602 -0.60961,0 -1.21922,0 -1.82883,0 0,-1.271928 0,-2.543857 0,-3.815786 -1.17494,0 -2.3499,0 -3.52484,0 -0.0982,1.271902 -0.19565,2.54386 -0.29353,3.815786 -0.72605,0 -1.45211,0 -2.17816,0 1.26093,-2.88095 2.52168,-5.761979 3.78271,-8.642881 -1.15055,-0.432536 -2.30104,-0.865222 -3.45146,-1.298112 -0.0674,0.152445 -0.13471,0.30489 -0.20206,0.457335 z" />
    <path
       id="path29"
       style="font-size:85.3333px;font-family:'Fira Sans';-inkscape-font-specification:'Fira Sans';white-space:pre;fill:#00758f;fill-opacity:1;stroke-width:0.264583"
       d="m 135.6846,21.163301 c -1.46829,0.02265 -2.92728,0.552235 -4.04006,1.516187 -0.54956,0.457049 -0.99732,1.017413 -1.43247,1.580263 0.85685,0.681075 1.71374,1.362091 2.5709,2.042771 0.59258,-0.681029 1.19765,-1.463227 2.11161,-1.706988 0.64244,-0.156411 1.424,-0.171 1.93719,0.311975 0.51618,0.463672 0.53167,1.224357 0.43362,1.861651 -0.18209,1.156671 -0.92871,2.11123 -1.64564,2.995681 -1.26744,1.493433 -2.65299,2.88099 -4.01554,4.28661 -0.24994,0.255429 -0.49964,0.511096 -0.7498,0.766313 0,0.955842 0,1.911683 0,2.867525 3.48351,0 6.96701,0 10.45052,0 0.15386,-1.11298 0.30766,-2.225971 0.46251,-3.338814 -1.93305,0 -3.86609,0 -5.79913,0 1.22368,-1.207238 2.46203,-2.409037 3.53955,-3.751644 0.89634,-1.121211 1.63354,-2.432193 1.79654,-3.880008 0.15891,-1.185471 -0.069,-2.444261 -0.76806,-3.430331 -0.86736,-1.245235 -2.35548,-1.94509 -3.84112,-2.082861 -0.33569,-0.03373 -0.67335,-0.04517 -1.01062,-0.03833 z" />
    <path
       id="path28"
       style="font-size:85.3333px;font-family:'Fira Sans';-inkscape-font-specification:'Fira Sans';white-space:pre;fill:#00758f;fill-opacity:1;stroke-width:0.264583"
       d="m 124.21399,21.162782 c -1.29186,0.01703 -2.60477,0.451692 -3.55099,1.352796 -1.14944,1.069253 -1.72704,2.605329 -2.00504,4.11887 -0.28594,1.608891 -0.30312,3.259359 -0.14503,4.883036 0.17539,1.591093 0.58651,3.220169 1.56901,4.515194 0.76123,1.006371 1.91573,1.69423 3.16049,1.895149 1.47008,0.242388 3.07886,0.05113 4.31844,-0.825513 1.2562,-0.880446 1.99036,-2.322576 2.36776,-3.77593 0.43821,-1.709951 0.49111,-3.497267 0.36785,-5.250841 -0.14096,-1.729256 -0.55453,-3.51019 -1.62282,-4.914948 -0.76175,-1.026768 -1.93743,-1.721183 -3.19972,-1.912381 -0.41578,-0.07035 -0.83864,-0.09376 -1.25995,-0.08543 z m 0.2992,3.250965 c 0.54449,0.01282 1.00548,0.402442 1.22058,0.885219 0.39546,0.851146 0.46776,1.806461 0.5386,2.729915 0.0178,0.280837 0.0286,0.549055 0.035,0.800619 0.0138,0.633275 0.012,1.266258 -0.0134,1.88065 -0.0565,1.024012 -0.11825,2.075185 -0.49697,3.039525 -0.2009,0.515313 -0.64441,0.98306 -1.22491,1.015228 -0.51545,0.07135 -1.06764,-0.139134 -1.35261,-0.58596 -0.40328,-0.594487 -0.52227,-1.323707 -0.62508,-2.020448 -0.0148,-0.111199 -0.0398,-0.321617 -0.0528,-0.471096 -0.0596,-0.62357 -0.0818,-1.240192 -0.0873,-1.851139 -0.004,-0.449921 0.003,-0.930153 0.0187,-1.33749 0.0571,-1.042453 0.115,-2.116187 0.52038,-3.091801 0.2058,-0.500216 0.6379,-0.955715 1.20658,-0.987166 0.10391,-0.01226 0.20887,-0.0097 0.31322,-0.0061 z" />
    <path
       id="path27"
       style="font-size:85.3333px;font-family:'Fira Sans';-inkscape-font-specification:'Fira Sans';white-space:pre;fill:#00758f;fill-opacity:1;stroke-width:0.264583"
       d="m 111.54861,21.163301 c -1.46121,0.02284 -2.91376,0.546735 -4.02386,1.503204 -0.55678,0.459097 -1.00882,1.025138 -1.44816,1.593246 0.85702,0.681257 1.71418,1.362319 2.57142,2.043287 0.59079,-0.681651 1.19615,-1.461643 2.10851,-1.706985 0.63561,-0.154626 1.40428,-0.172014 1.9207,0.293118 0.5178,0.448001 0.55174,1.194396 0.46067,1.824882 -0.16217,1.161727 -0.90489,2.123381 -1.61964,3.010228 -1.27621,1.509223 -2.67483,2.908787 -4.04951,4.32717 -0.24995,0.255429 -0.49965,0.511096 -0.74981,0.766313 0,0.955842 0,1.911683 0,2.867525 3.48334,0 6.96667,0 10.45001,0 0.15395,-1.112994 0.30835,-2.225921 0.46302,-3.338814 -1.93322,0 -3.86643,0 -5.79965,0 1.22409,-1.206823 2.46222,-2.409227 3.54008,-3.751644 0.89591,-1.121957 1.63459,-2.433005 1.7962,-3.881601 0.15899,-1.185278 -0.0689,-2.444417 -0.76903,-3.42959 -0.86672,-1.245325 -2.35525,-1.944193 -3.84033,-2.082059 -0.33569,-0.03363 -0.67335,-0.04515 -1.01062,-0.03828 z" />
    <path
       style="font-size:85.3333px;font-family:'Fira Sans';-inkscape-font-specification:'Fira Sans';white-space:pre;fill:#00758f;fill-opacity:1;stroke-width:0.264583"
       d="m 102.69021,33.836998 c 0.52681,0 0.96332,0.173096 1.30951,0.519288 0.36124,0.346194 0.54187,0.782698 0.54187,1.309512 0,0.285986 -0.0452,0.579496 -0.13547,0.880531 -0.0903,0.301038 -0.24083,0.684861 -0.45156,1.151467 l -1.46755,3.34151 h -1.76107 l 0.92569,-3.883377 c -0.51176,-0.346191 -0.76764,-0.850429 -0.76764,-1.51271 0,-0.511763 0.17309,-0.940739 0.51929,-1.286933 0.34619,-0.346192 0.77516,-0.519288 1.28693,-0.519288 z"
       id="path26" />
    <path
       id="path25"
       style="font-size:85.3333px;font-family:'Fira Sans';-inkscape-font-specification:'Fira Sans';white-space:pre;fill:#f29111;fill-opacity:1;stroke-width:0.264583"
       d="m 90.720943,21.55449 c 0,0.966695 0,1.933387 0,2.900082 1.399913,0 2.799829,0 4.199742,0 0,4.410239 0,8.820478 0,13.230717 1.353751,0 2.707503,0 4.061253,0 0,-4.410239 0,-8.820478 0,-13.230717 1.332562,0 2.665122,0 3.997692,0 0.15302,-1.143029 0.30485,-2.286217 0.45785,-3.429249 -4.238852,0 -8.477692,0 -12.716537,0 0,0.17639 0,0.35278 0,0.529167 z" />
    <path
       id="path24"
       style="font-size:85.3333px;font-family:'Fira Sans';-inkscape-font-specification:'Fira Sans';white-space:pre;fill:#f29111;fill-opacity:1;stroke-width:0.264583"
       d="m 83.863995,20.690461 c -2.000408,0.04271 -3.99738,0.894874 -5.320064,2.413204 -1.13053,1.271262 -1.797881,2.909827 -2.006409,4.589597 -0.179062,1.435526 -0.126709,2.899368 0.12193,4.323408 0.297855,1.636766 1.002297,3.264456 2.28101,4.371555 1.20092,1.068882 2.815445,1.560435 4.400413,1.623377 2.124376,0.109765 4.266215,-0.454366 6.081876,-1.557173 0.105815,-0.101248 0.362868,-0.115594 0.327708,-0.297625 0,-2.785911 0,-5.571823 0,-8.357732 -2.246376,0 -4.49275,0 -6.739123,0 0.155821,1.090208 0.311475,2.180444 0.46767,3.270599 0.759298,0 1.518599,0 2.277898,0 0,1.071425 0,2.14285 0,3.214275 -0.852342,0.391051 -1.83433,0.49349 -2.753193,0.319317 -0.819015,-0.158742 -1.506196,-0.768048 -1.813671,-1.536456 -0.488897,-1.183719 -0.549458,-2.488237 -0.560682,-3.753202 0.0129,-1.274593 0.139547,-2.611877 0.802228,-3.730937 0.516466,-0.84555 1.40844,-1.486495 2.412791,-1.561198 0.863705,-0.08004 1.7576,0.08852 2.498338,0.551521 0.424884,0.244089 0.805006,0.554866 1.194441,0.849998 0.77562,-0.808598 1.551617,-1.616837 2.327507,-2.425176 -0.742248,-0.628621 -1.520105,-1.235215 -2.419786,-1.622737 -1.116126,-0.526248 -2.353707,-0.719564 -3.580882,-0.684615 z" />
    <path
       style="font-size:85.3333px;font-family:'Fira Sans';-inkscape-font-specification:'Fira Sans';white-space:pre;fill:#00758f;fill-opacity:1;stroke-width:0.264583"
       d="m 76.507029,19.16145 c -1.113838,1.595493 -1.926638,3.145832 -2.4384,4.651018 -0.49671,1.490133 -0.745067,3.303881 -0.745067,5.441243 0,2.122311 0.248357,3.936056 0.745067,5.441241 0.511762,1.505186 1.324562,3.055525 2.4384,4.651021 l -1.851377,1.241776 c -0.978371,-1.369718 -1.753542,-2.52871 -2.32551,-3.476974 -0.556919,-0.963319 -1.023525,-2.092206 -1.399823,-3.386666 -0.376296,-1.309511 -0.564444,-2.799641 -0.564444,-4.470398 0,-1.670756 0.188148,-3.153362 0.564444,-4.44782 0.376298,-1.30951 0.842904,-2.4384 1.399823,-3.386667 0.571968,-0.963318 1.347139,-2.129835 2.32551,-3.499553 z"
       id="path23" />
    <path
       id="path22"
       style="font-size:85.3333px;font-family:'Fira Sans';-inkscape-font-specification:'Fira Sans';white-space:pre;fill:#00758f;fill-opacity:1;stroke-width:0.264583"
       d="m 65.273399,19.584585 c -1.203518,0.03015 -2.456572,0.401635 -3.309485,1.289008 -0.812517,0.799475 -1.186268,1.957715 -1.162593,3.081991 0,0.242466 0,0.484933 0,0.727397 -0.647163,0 -1.294323,0 -1.941486,0 3e-6,1.045242 0,2.090484 0,3.135726 0.647163,0 1.294323,0 1.941486,0 0,3.28886 0,6.577721 0,9.866582 1.316025,0 2.632051,0 3.948078,0 0,-3.288861 0,-6.577722 0,-9.866582 0.825789,0 1.65158,0 2.477368,0 0.15861,-1.045274 0.317696,-2.090473 0.476456,-3.135726 -0.984607,0 -1.969217,0 -2.953824,0 0.02531,-0.50892 -0.08117,-1.057626 0.155546,-1.530654 0.228262,-0.332123 0.691401,-0.321355 1.051555,-0.319 0.737031,0.0071 1.422826,0.302318 2.081136,0.603673 0.09932,-0.05502 0.13032,-0.282715 0.204369,-0.401605 0.357772,-0.831726 0.715836,-1.663327 1.073007,-2.495312 -0.875993,-0.418537 -1.795552,-0.770067 -2.764589,-0.890559 -0.422992,-0.05697 -0.850429,-0.07848 -1.277024,-0.06494 z" />
    <path
       id="path21"
       style="font-size:85.3333px;font-family:'Fira Sans';-inkscape-font-specification:'Fira Sans';white-space:pre;fill:#00758f;fill-opacity:1;stroke-width:0.264583"
       d="m 53.958326,24.351736 c -1.102694,0.05044 -2.174248,0.504333 -2.987413,1.249019 -0.04422,-0.30593 -0.08849,-0.611857 -0.132808,-0.917774 -1.164444,0 -2.328886,0 -3.493328,0 0,4.334103 0,8.668205 0,13.002308 1.316199,0 2.632398,0 3.948597,0 0,-2.893018 0,-5.786038 0,-8.679056 0.397666,-0.574 0.869278,-1.189643 1.572514,-1.38648 0.389948,-0.08569 0.922858,-0.101232 1.155485,0.289904 0.268468,0.559964 0.163685,1.203161 0.187069,1.803302 0,2.657443 0,5.314887 0,7.97233 1.316199,0 2.632398,0 3.948596,0 -0.0036,-3.14692 0.0073,-6.294051 -0.0055,-9.440839 -0.03023,-1.044622 -0.369449,-2.121294 -1.136026,-2.86127 -0.784389,-0.814221 -1.958856,-1.095343 -3.057223,-1.031444 z" />
    <path
       id="path20"
       style="font-size:85.3333px;font-family:'Fira Sans';-inkscape-font-specification:'Fira Sans';white-space:pre;fill:#00758f;fill-opacity:1;stroke-width:0.264583"
       d="m 39.342166,24.347601 c -1.45269,0.02681 -2.924246,0.535696 -3.97574,1.560634 -1.261428,1.197343 -1.865239,2.943619 -1.955766,4.651618 -0.08908,1.691495 0.151575,3.471739 1.082559,4.921571 0.742053,1.184655 1.967833,2.042032 3.329868,2.349735 1.340901,0.300212 2.78203,0.270528 4.076544,-0.216151 1.450832,-0.548196 2.611998,-1.746613 3.189751,-3.177585 0.657291,-1.591985 0.73152,-3.375983 0.452405,-5.060154 -0.226324,-1.293529 -0.807323,-2.540881 -1.754637,-3.463457 -0.990616,-0.999617 -2.395535,-1.499327 -3.784518,-1.556654 -0.2198,-0.01235 -0.440378,-0.01439 -0.660466,-0.0096 z m 0.352949,3.248898 c 0.549066,0.0074 1.074174,0.314206 1.338868,0.797152 0.467254,0.782892 0.528048,1.725714 0.551802,2.615864 -7.04e-4,0.97503 -0.03988,2.001933 -0.503158,2.883242 -0.245502,0.484682 -0.734671,0.832284 -1.281057,0.869196 -0.62262,0.07405 -1.319517,-0.108194 -1.69137,-0.646989 -0.448697,-0.671163 -0.540295,-1.505095 -0.594215,-2.291537 -0.02062,-0.376751 -0.02215,-0.754489 -0.0078,-1.131509 0.0066,-0.11111 0.01675,-0.319461 0.0317,-0.468149 0.08373,-0.775607 0.235693,-1.61812 0.804944,-2.195256 0.355354,-0.348345 0.867299,-0.458456 1.350304,-0.432014 z" />
    <path
       id="path19"
       style="font-size:85.3333px;font-family:'Fira Sans';-inkscape-font-specification:'Fira Sans';white-space:pre;fill:#00758f;fill-opacity:1;stroke-width:0.264583"
       d="m 28.118044,20.690461 c -1.800501,0.03957 -3.60018,0.76603 -4.838899,2.089481 -1.222396,1.282957 -1.917975,2.996343 -2.141533,4.739714 -0.206813,1.623703 -0.154408,3.291737 0.233041,4.885335 0.429016,1.74924 1.405781,3.419367 2.925416,4.431509 1.596514,1.083368 3.632525,1.389661 5.51317,1.064911 1.189794,-0.217718 2.311757,-0.768704 3.245218,-1.532683 0.26961,-0.226457 0.511402,-0.483042 0.766082,-0.725692 -0.671917,-0.844502 -1.343027,-1.689647 -2.014865,-2.534211 -0.440296,0.323771 -0.875562,0.656998 -1.349788,0.930691 -0.06811,0.03722 -0.237162,0.134265 -0.34675,0.188103 -0.734642,0.364323 -1.606719,0.431503 -2.400038,0.243419 -1.038076,-0.25691 -1.772795,-1.18219 -2.089144,-2.165646 -0.424678,-1.301285 -0.446326,-2.69461 -0.366149,-4.048993 0.09091,-1.065157 0.275833,-2.186919 0.930508,-3.06437 0.512267,-0.691406 1.341884,-1.131371 2.205222,-1.14028 1.037566,-0.05384 2.026473,0.4171 2.805486,1.072478 0.12006,0.04195 0.265012,0.330213 0.362333,0.147177 0.710258,-0.826651 1.420215,-1.653561 2.130375,-2.480297 -0.770903,-0.633761 -1.58201,-1.242475 -2.518307,-1.610018 -0.962337,-0.396656 -2.017577,-0.513138 -3.051378,-0.490628 z" />
    <path
       id="text1"
       style="font-size:85.3333px;font-family:'Fira Sans';-inkscape-font-specification:'Fira Sans';white-space:pre;fill:#f29111;fill-opacity:1;stroke-width:0.264583"
       d="m 15.30694,21.55449 c -0.0029,4.505026 0.0058,9.01016 -0.0043,13.515115 -0.03568,0.685191 -0.05447,1.449194 -0.532675,1.992543 -0.507504,0.601339 -1.271028,0.865968 -1.978095,1.150757 0.38223,1.036503 0.763858,2.07323 1.145667,3.109889 1.260367,-0.399397 2.518358,-0.909855 3.533081,-1.779593 0.711272,-0.587028 1.276487,-1.359289 1.550999,-2.244971 0.37383,-1.093081 0.355885,-2.26151 0.346596,-3.401547 0,-4.290454 0,-8.580906 0,-12.87136 -1.353751,0 -2.707501,0 -4.061251,0 0,0.17639 0,0.35278 0,0.529167 z" />
  </g>
</svg>
