<svg xmlns="http://www.w3.org/2000/svg" viewBox="0 0 451 235"><title>jconf logo final</title><path d="M176.44,124.21H143.37V91.14q0-6.6-5.57-6.61t-5.68,6.61v82.49q0,6.84,5.68,6.84t5.57-6.84V141h33.07v32.83q0,27.27-38.17,27.26-39.21,0-39.21-28.42V92.07q0-28.42,39.21-28.42,38.16,0,38.17,27.26Z" style="fill:#2a7fc2"/><path d="M344.77,149.77H311.71V91.14Q311.71,85,306,85c-3.82,0-5.74,2-5.74,5.91v58.86H267.16V64.58h33.06V69.1q6.63-5.44,20.47-5.45a29.88,29.88,0,0,1,16.52,4.87q7.56,4.88,7.56,14.27Z" style="fill:#2a7fc2"/><path d="M414,66.78H395.12v81.73H362.06V66.78H350.92v-20h11.14q0-17.74,4.46-24.71t26.63-7H414v18.1h-6.34c-5.62,0-9.11,1.06-10.5,3.19s-2.07,5.59-2.07,10.38H414Z" style="fill:#2a7fc2"/><path d="M308.08,202.41H276.17v-5.73l15.71-19.62c1.72-2.13,2.57-5.05,2.57-8.75,0-1.93-.94-2.9-2.83-2.9s-2.93.61-2.93,1.81v7.43H276.17V167.1q0-8.35,15.8-8.36,9.76,0,12.94,3.07t3.17,10.06a7.19,7.19,0,0,1-1.38,4.53L291,196.86h17.11Z" style="fill:#d22632"/><path d="M310.52,195V167.16q0-8.41,16.46-8.42,16.15,0,16.16,8.36V195q0,3.75-4.55,5.79a28.54,28.54,0,0,1-11.69,2.06c-4.92,0-8.87-.68-11.88-2S310.52,197.51,310.52,195Zm18.64.45V166c0-.87-.76-1.3-2.26-1.3s-2.4.43-2.4,1.3v29.48c0,.87.8,1.3,2.4,1.3S329.16,196.34,329.16,195.47Z" style="fill:#d22632"/><path d="M365.1,202.41h-14V170.7H345.8v-6.31a7.66,7.66,0,0,0,5.14-1.78c1.39-1.19,2.09-2.35,2.09-3.47H365.1Z" style="fill:#d22632"/><path d="M368,188.83h13.62v6.52c0,1,.78,1.42,2.33,1.42s2.29-.47,2.29-1.42V182.49c-1,.73-2.88,1.09-5.62,1.09a19.82,19.82,0,0,1-9.1-1.82q-3.52-1.83-3.52-5.09V166.59q0-3.76,4.39-5.81t11.48-2q7.17,0,11.58,2c2.94,1.34,4.41,3.27,4.41,5.76v27.89q0,8.39-16.08,8.39-15.78,0-15.78-8.33Zm18.24-12.4V166.05c0-1-.76-1.42-2.29-1.42s-2.33.47-2.33,1.42v10.38c0,.95.78,1.42,2.33,1.42S386.23,177.38,386.23,176.43Z" style="fill:#d22632"/><path d="M126.1,49.47a35.32,35.32,0,0,1-7.68.87c-4.31,0-7.56-.8-10-2.43-3.21-2-4.92-5.66-4.81-9.87.17-8.89,7.84-12.59,15.85-12.59a21.24,21.24,0,0,1,6,.73l-1.22,4.1a13.74,13.74,0,0,0-4.25-.55c-5,0-8.89,2.22-8.89,8.57,0,5.87,3.48,8,6.9,8a6.12,6.12,0,0,0,1.44-.11V40.29H116.1V36.41h10Z" style="fill:#d22632"/><path d="M138.52,25.67V41.56c0,3.59,1.6,4.68,3.54,4.68,2.09,0,3.58-1,3.58-4.68V25.67h7.24V40.73c0,6.27-3.65,9.68-10.77,9.68-7.79,0-10.82-3.52-10.82-9.65V25.67Z" style="fill:#d22632"/><path d="M164.64,44.54,163,50.12h-7L164,25.67h8.67l7.24,24.45h-7l-1.6-5.58Zm6-3.7-1.22-5.12c-.38-1.49-.88-3.95-1.21-5.55h-.17c-.38,1.63-.93,4.14-1.32,5.55l-1.38,5.12Z" style="fill:#d22632"/><path d="M185.29,30.06h-6.57V25.67h20.43v4.39h-6.62V50.12h-7.24Z" style="fill:#d22632"/><path d="M218.65,39.38H210.2V46h9.55v4.13H203V25.67h16.18v4.14H210.2v5.62h8.45Z" style="fill:#d22632"/><path d="M247.47,41.56a74.55,74.55,0,0,1-.38-8.09H247A77.75,77.75,0,0,1,244.6,41l-3.26,8.74h-5.08l-3.09-8.59a69.76,69.76,0,0,1-2.32-7.66h-.11c-.11,2.65-.39,5.73-.55,8.16l-.67,8.49h-6.18L226,25.67h7.68l3,8.85c1,3.09,1.93,5.81,2.59,8.56h.17c.55-2.72,1.38-5.47,2.32-8.56l3-8.85h7.62l2.27,24.45h-6.46Z" style="fill:#d22632"/><path d="M265.81,44.54l-1.66,5.58h-7l8.06-24.45h8.67l7.23,24.45h-7l-1.6-5.58Zm6-3.7-1.22-5.12c-.38-1.49-.88-3.95-1.21-5.55h-.17c-.39,1.63-.94,4.14-1.33,5.55l-1.38,5.12Z" style="fill:#d22632"/><path d="M285.19,25.67h7.23V46.1h9.5v4H285.19Z" style="fill:#d22632"/><path d="M312.52,44.54l-1.65,5.58h-7l8.07-24.45h8.67l7.23,24.45h-7l-1.61-5.58Zm6-3.7-1.21-5.12c-.39-1.49-.89-3.95-1.22-5.55H316c-.39,1.63-.94,4.14-1.33,5.55l-1.38,5.12Z" style="fill:#d22632"/><path d="M91.55,36.88c3.4,0,3.89-1.68,3.94-3.19a22.28,22.28,0,0,0-.39-3.58,23.38,23.38,0,0,1-.39-3.62c0-4,3-5.65,7.08-5.65h1v2.37h-.82c-2.86.05-3.88,1.38-3.88,3.71A21.86,21.86,0,0,0,98.4,30a18.29,18.29,0,0,1,.38,3.28,4.2,4.2,0,0,1-3.54,4.65V38c2.19.52,3.54,1.94,3.54,4.7A18.85,18.85,0,0,1,98.4,46a21.77,21.77,0,0,0-.34,3.1c0,2.41,1.16,3.71,3.88,3.75h.82v2.37h-1c-4,0-7-1.55-7-5.9a17.14,17.14,0,0,1,.44-3.54,31.39,31.39,0,0,0,.34-3.49c0-1.38-.49-3.23-3.94-3.23Z" style="fill:#2a7fc2"/><path d="M343.62,39.08c-3.4,0-3.89,1.85-3.93,3.23a23,23,0,0,0,.38,3.49,21.3,21.3,0,0,1,.39,3.54c0,4.35-3,5.9-7,5.9h-1V52.87h.82c2.72,0,3.88-1.34,3.88-3.75a21.77,21.77,0,0,0-.34-3.1,18.85,18.85,0,0,1-.38-3.32,4.26,4.26,0,0,1,3.54-4.7v-.09c-2.19-.51-3.54-1.89-3.54-4.65a18.29,18.29,0,0,1,.38-3.28,21.86,21.86,0,0,0,.34-3.06c0-2.33-1-3.66-3.88-3.71h-.82V20.84h1c4.12,0,7.08,1.68,7.08,5.65a23.38,23.38,0,0,1-.39,3.62,22.28,22.28,0,0,0-.38,3.58c0,1.51.48,3.19,3.93,3.19Z" style="fill:#2a7fc2"/><path d="M423.87,158.74a11.37,11.37,0,0,1,1.54,6.15c-.3,3.11-2.23,8-7.25,12.63s-6.73,7-6.86,9.61a14.69,14.69,0,0,0,2.85,8.74,20.44,20.44,0,0,1,2.39,4.41s-9.75-7-8.36-14.54c1.58-8.57,10.06-9.69,14.23-16.53C424.59,165.63,424.64,162.29,423.87,158.74Z" style="fill:#2a7fc2"/><path d="M431.89,174.15s-15.4,6.92-15.14,12.46,4.58,8.82,4.58,11.16a12.35,12.35,0,0,1-1.39,4.92s4.86-2.67,4.7-6.65-4.63-6.75-3.93-10.47S431.35,174.58,431.89,174.15Z" style="fill:#2a7fc2"/><path d="M82.16,15.38V148.51q0,24.13-13.69,39.85T33.78,204.08c-4.1,0-14.74-3-20.23-4.8V153.69c2.32,1,10.29,3.64,12.22,3.64q9.29,0,9.28-15v-127Z" style="fill:#d22632"/><path d="M183.05,172.71V92.08q0-28.41,39.33-28.42,15.19,0,26.74,6.61t11.54,20.65v83q0,27.27-38.28,27.26Q183.05,201.13,183.05,172.71Zm44.55.93V91.16q0-6.61-5.69-6.62t-5.8,6.62v82.48c0,4.57,1.94,6.84,5.8,6.84S227.6,178.21,227.6,173.64Z" style="fill:#2a7fc2"/></svg>