<svg xmlns="http://www.w3.org/2000/svg" viewBox="0 0 448.92 212"><title>jconf logo final</title><rect x="-1" y="-6" width="451.92" height="228" style="fill:#020202"/><path d="M173.44,121.54H140.37V88.48q0-6.62-5.57-6.61t-5.68,6.61V171q0,6.85,5.68,6.85t5.57-6.85v-32.6h33.07v32.83q0,27.27-38.17,27.27-39.21,0-39.21-28.43V89.41Q96.06,61,135.27,61q38.16,0,38.17,27.27Z" style="fill:#f9f9fa"/><path d="M341.77,147.1H308.71V88.48q0-6.15-5.75-6.15c-3.82,0-5.74,2-5.74,5.92V147.1H264.16V61.91h33.06v4.53Q303.85,61,317.69,61a29.89,29.89,0,0,1,16.52,4.88q7.56,4.86,7.56,14.27Z" style="fill:#f9f9fa"/><path d="M411,64.11H392.12v81.74H359.06V64.11H347.92v-20h11.14q0-17.76,4.46-24.71t26.63-7H411v18.1h-6.34c-5.62,0-9.11,1.07-10.5,3.19s-2.07,5.59-2.07,10.39H411Z" style="fill:#f9f9fa"/><path d="M305.08,199.75H273.17V194l15.71-19.61c1.72-2.14,2.57-5.05,2.57-8.75,0-1.94-.94-2.9-2.83-2.9s-2.93.6-2.93,1.81V172H273.17v-7.54q0-8.37,15.8-8.36,9.76,0,12.94,3.06t3.17,10.07a7.14,7.14,0,0,1-1.38,4.52L288,194.19h17.11Z" style="fill:#f9f9fa"/><path d="M307.52,192.35V164.5q0-8.43,16.46-8.42,16.15,0,16.16,8.36v27.85q0,3.75-4.55,5.8a28.56,28.56,0,0,1-11.69,2c-4.92,0-8.87-.68-11.88-2S307.52,194.85,307.52,192.35Zm18.64.46V163.32c0-.86-.76-1.3-2.26-1.3s-2.4.44-2.4,1.3v29.49q0,1.29,2.4,1.29C325.4,194.1,326.16,193.67,326.16,192.81Z" style="fill:#f9f9fa"/><path d="M362.1,199.75h-14V168H342.8v-6.31a7.66,7.66,0,0,0,5.14-1.78c1.39-1.19,2.09-2.34,2.09-3.47H362.1Z" style="fill:#f9f9fa"/><path d="M365,186.16h13.62v6.52c0,.95.78,1.42,2.33,1.42s2.29-.47,2.29-1.42V179.83c-1,.72-2.88,1.08-5.62,1.08a19.69,19.69,0,0,1-9.1-1.82Q365,177.26,365,174V163.92c0-2.51,1.46-4.45,4.39-5.8s6.75-2,11.48-2,8.64.67,11.58,2,4.41,3.27,4.41,5.76v27.89q0,8.38-16.08,8.39-15.78,0-15.78-8.33Zm18.24-12.4V163.38c0-.95-.76-1.42-2.29-1.42s-2.33.47-2.33,1.42v10.38c0,1,.78,1.42,2.33,1.42S383.23,174.71,383.23,173.76Z" style="fill:#f9f9fa"/><path d="M123.1,46.8a35.32,35.32,0,0,1-7.68.87c-4.31,0-7.56-.79-10-2.43-3.21-2-4.92-5.66-4.81-9.86.17-8.89,7.84-12.59,15.85-12.59a21.33,21.33,0,0,1,6,.72l-1.22,4.1a13.78,13.78,0,0,0-4.25-.54c-5,0-8.89,2.21-8.89,8.56,0,5.88,3.48,8,6.9,8a6.73,6.73,0,0,0,1.44-.11V37.62H113.1V33.74h10Z" style="fill:#f9f9fa"/><path d="M135.52,23V38.89c0,3.6,1.6,4.68,3.54,4.68,2.09,0,3.58-1,3.58-4.68V23h7.24V38.06c0,6.28-3.65,9.69-10.77,9.69-7.79,0-10.82-3.52-10.82-9.65V23Z" style="fill:#f9f9fa"/><path d="M161.64,41.87,160,47.46h-7L161,23h8.67l7.24,24.46h-7l-1.6-5.59Zm6-3.7-1.22-5.12c-.38-1.48-.88-3.95-1.21-5.55h-.17c-.38,1.64-.93,4.14-1.32,5.55l-1.38,5.12Z" style="fill:#f9f9fa"/><path d="M182.29,27.39h-6.57V23h20.43v4.39h-6.62V47.46h-7.24Z" style="fill:#f9f9fa"/><path d="M215.65,36.72H207.2v6.6h9.55v4.14H200V23h16.18v4.14H207.2v5.62h8.45Z" style="fill:#f9f9fa"/><path d="M244.47,38.89a74.43,74.43,0,0,1-.38-8.09H244a76,76,0,0,1-2.38,7.51l-3.26,8.75h-5.08l-3.09-8.6a69.76,69.76,0,0,1-2.32-7.66h-.11c-.11,2.65-.39,5.74-.55,8.17l-.67,8.49h-6.18L223,23h7.68l3,8.86c1,3.08,1.93,5.8,2.59,8.56h.17c.55-2.72,1.38-5.48,2.32-8.56l3-8.86h7.62l2.27,24.46h-6.46Z" style="fill:#f9f9fa"/><path d="M262.81,41.87l-1.66,5.59h-7L262.2,23h8.67l7.23,24.46h-7l-1.6-5.59Zm6-3.7-1.22-5.12c-.38-1.48-.88-3.95-1.21-5.55h-.17c-.39,1.64-.94,4.14-1.33,5.55l-1.38,5.12Z" style="fill:#f9f9fa"/><path d="M282.19,23h7.23V43.43h9.5v4H282.19Z" style="fill:#f9f9fa"/><path d="M309.52,41.87l-1.65,5.59h-7L308.92,23h8.67l7.23,24.46h-7l-1.61-5.59Zm6-3.7-1.21-5.12c-.39-1.48-.89-3.95-1.22-5.55H313c-.39,1.64-.94,4.14-1.33,5.55l-1.38,5.12Z" style="fill:#f9f9fa"/><path d="M88.55,34.21c3.4,0,3.89-1.68,3.94-3.19a22.41,22.41,0,0,0-.39-3.58,23.25,23.25,0,0,1-.39-3.62c0-4,3-5.65,7.08-5.65h1v2.38h-.82c-2.86,0-3.88,1.38-3.88,3.7a21.86,21.86,0,0,0,.34,3.06,18.39,18.39,0,0,1,.38,3.28,4.22,4.22,0,0,1-3.54,4.66v.08c2.19.52,3.54,1.94,3.54,4.7a18.85,18.85,0,0,1-.38,3.32,21.93,21.93,0,0,0-.34,3.1c0,2.42,1.16,3.71,3.88,3.75h.82v2.38h-1c-4,0-7-1.56-7-5.91a17.23,17.23,0,0,1,.44-3.54,31.16,31.16,0,0,0,.34-3.49c0-1.38-.49-3.23-3.94-3.23Z" style="fill:#f9f9fa"/><path d="M340.62,36.41c-3.4,0-3.89,1.85-3.93,3.23a22.82,22.82,0,0,0,.38,3.49,21.42,21.42,0,0,1,.39,3.54c0,4.35-3,5.91-7,5.91h-1V50.2h.82c2.72,0,3.88-1.33,3.88-3.75a21.93,21.93,0,0,0-.34-3.1,18.85,18.85,0,0,1-.38-3.32,4.26,4.26,0,0,1,3.54-4.7v-.08c-2.19-.52-3.54-1.9-3.54-4.66a18.39,18.39,0,0,1,.38-3.28,21.86,21.86,0,0,0,.34-3.06c0-2.32-1-3.66-3.88-3.7h-.82V18.17h1c4.12,0,7.08,1.69,7.08,5.65a23.25,23.25,0,0,1-.39,3.62,22.4,22.4,0,0,0-.38,3.58c0,1.51.48,3.19,3.93,3.19Z" style="fill:#f9f9fa"/><path d="M422.88,156.08a11.35,11.35,0,0,1,1.55,6.16c-.31,3.12-2.24,8.06-7.27,12.66s-6.75,7-6.88,9.63a14.68,14.68,0,0,0,2.86,8.76,20.77,20.77,0,0,1,2.39,4.43s-9.77-7-8.38-14.58c1.58-8.58,10.09-9.71,14.26-16.57C423.6,163,423.65,159.63,422.88,156.08Z" style="fill:#f9f9fa"/><path d="M430.92,171.52s-15.44,6.94-15.18,12.49,4.59,8.85,4.59,11.19a12.43,12.43,0,0,1-1.39,4.94s4.87-2.68,4.71-6.67S419,186.7,419.71,183,430.38,172,430.92,171.52Z" style="fill:#f9f9fa"/><path d="M79.16,12.71V145.84q0,24.14-13.69,39.85T30.78,201.41c-4.1,0-14.74-3-20.23-4.8V151c2.32,1,10.29,3.64,12.22,3.64q9.29,0,9.28-15v-127Z" style="fill:#f9f9fa"/><path d="M180.05,170V89.42Q180.05,61,219.38,61q15.19,0,26.74,6.62t11.54,20.65V171.2q0,27.27-38.28,27.27Q180.05,198.47,180.05,170Zm44.55.93V88.49q0-6.61-5.69-6.61t-5.8,6.61V171q0,6.85,5.8,6.85T224.6,171Z" style="fill:#f9f9fa"/></svg>