<svg xmlns="http://www.w3.org/2000/svg" viewBox="0 0 451.92 220"><title>jconf logo final</title><path d="M181.36,125.87H148.3V92.81q0-6.61-5.57-6.61T137,92.81V175.3q0,6.84,5.69,6.84t5.57-6.84V142.7h33.06v32.83q0,27.25-38.17,27.26-39.21,0-39.21-28.42V93.74q0-28.42,39.21-28.42,38.17,0,38.17,27.26Z" style="fill:#020202"/><path d="M349.69,151.44H316.63V92.81q0-6.15-5.74-6.15c-3.83,0-5.75,2-5.75,5.92v58.86H272.08V66.25h33.06v4.52q6.63-5.46,20.47-5.45a29.88,29.88,0,0,1,16.52,4.87q7.56,4.88,7.56,14.27Z" style="fill:#020202"/><path d="M419,68.44H400v81.74H367V68.44H355.84V48.49H367q0-17.75,4.46-24.71t26.63-7H419v18.1h-6.34q-8.42,0-10.49,3.19T400,48.49H419Z" style="fill:#020202"/><path d="M313,204.08H281.09v-5.73l15.71-19.62q2.58-3.19,2.58-8.75c0-1.93-.95-2.9-2.84-2.9s-2.93.6-2.93,1.81v7.43H281.09v-7.55q0-8.36,15.8-8.36,9.76,0,12.94,3.06T313,173.54a7.25,7.25,0,0,1-1.37,4.53L295.9,198.53H313Z" style="fill:#020202"/><path d="M315.44,196.69V168.83q0-8.42,16.46-8.42,16.16,0,16.16,8.36v27.86q0,3.74-4.55,5.79a28.56,28.56,0,0,1-11.69,2.05q-7.36,0-11.87-2T315.44,196.69Zm18.64.45V167.65c0-.86-.75-1.29-2.26-1.29s-2.4.43-2.4,1.29v29.49c0,.86.8,1.3,2.4,1.3S334.08,198,334.08,197.14Z" style="fill:#020202"/><path d="M370,204.08h-14V172.36h-5.33v-6.31a7.66,7.66,0,0,0,5.14-1.78c1.4-1.18,2.1-2.34,2.1-3.47H370Z" style="fill:#020202"/><path d="M372.91,190.49h13.63V197c0,.94.77,1.42,2.33,1.42s2.28-.48,2.28-1.42V184.16c-1,.73-2.88,1.09-5.62,1.09a19.71,19.71,0,0,1-9.1-1.83c-2.35-1.21-3.52-2.91-3.52-5.08V168.26c0-2.52,1.46-4.45,4.39-5.81s6.75-2,11.48-2a28.23,28.23,0,0,1,11.59,2q4.41,2,4.41,5.77v27.88q0,8.4-16.09,8.39-15.78,0-15.78-8.33Zm18.24-12.39V167.71q0-1.41-2.28-1.41c-1.56,0-2.33.47-2.33,1.41V178.1c0,.94.77,1.42,2.33,1.42S391.15,179,391.15,178.1Z" style="fill:#020202"/><path d="M131,51.14a35.79,35.79,0,0,1-7.68.87c-4.3,0-7.56-.8-10-2.43-3.21-2-4.92-5.66-4.81-9.87.17-8.89,7.84-12.59,15.85-12.59a20.88,20.88,0,0,1,6,.73l-1.21,4.09a13.89,13.89,0,0,0-4.26-.54c-5,0-8.89,2.21-8.89,8.56,0,5.88,3.48,8,6.91,8a6.69,6.69,0,0,0,1.43-.11V42H121V38.08h10Z" style="fill:#020202"/><path d="M143.44,27.34V43.23c0,3.59,1.6,4.68,3.54,4.68,2.09,0,3.59-1,3.59-4.68V27.34h7.23V42.39c0,6.28-3.64,9.69-10.77,9.69-7.78,0-10.82-3.52-10.82-9.65V27.34Z" style="fill:#020202"/><path d="M169.56,46.2l-1.65,5.59h-7L169,27.34h8.67l7.23,24.45h-7l-1.61-5.59Zm6-3.7-1.21-5.11c-.39-1.49-.89-4-1.22-5.55H173c-.39,1.63-.94,4.13-1.33,5.55l-1.38,5.11Z" style="fill:#020202"/><path d="M190.22,31.73h-6.58V27.34h20.44v4.39h-6.63V51.79h-7.23Z" style="fill:#020202"/><path d="M223.57,41.05h-8.45v6.6h9.55v4.14H207.89V27.34h16.18v4.13h-8.95V37.1h8.45Z" style="fill:#020202"/><path d="M252.39,43.23a74.55,74.55,0,0,1-.38-8.09h-.11a77.75,77.75,0,0,1-2.38,7.51l-3.25,8.74h-5.09l-3.09-8.6a69.54,69.54,0,0,1-2.32-7.65h-.11c-.11,2.65-.38,5.73-.55,8.16l-.66,8.49h-6.19l2.65-24.45h7.68l3,8.85c1,3.08,1.94,5.8,2.6,8.56h.16c.56-2.72,1.38-5.48,2.32-8.56l3-8.85h7.62l2.27,24.45h-6.46Z" style="fill:#020202"/><path d="M270.73,46.2l-1.66,5.59h-7l8.06-24.45h8.67L286,51.79h-7l-1.6-5.59Zm6-3.7-1.22-5.11c-.38-1.49-.88-4-1.21-5.55h-.17c-.38,1.63-.94,4.13-1.32,5.55l-1.38,5.11Z" style="fill:#020202"/><path d="M290.11,27.34h7.23V47.76h9.5v4H290.11Z" style="fill:#020202"/><path d="M317.45,46.2l-1.66,5.59h-7l8.06-24.45h8.67l7.23,24.45h-7l-1.6-5.59Zm6-3.7-1.22-5.11c-.39-1.49-.88-4-1.21-5.55h-.17c-.39,1.63-.94,4.13-1.33,5.55l-1.38,5.11Z" style="fill:#020202"/><path d="M96.48,38.54c3.39,0,3.88-1.68,3.93-3.19a22.29,22.29,0,0,0-.39-3.57,24.67,24.67,0,0,1-.39-3.62c0-4,3-5.65,7.09-5.65h1v2.37h-.83c-2.86,0-3.88,1.38-3.88,3.71a22,22,0,0,0,.34,3.06,18.28,18.28,0,0,1,.39,3.27,4.23,4.23,0,0,1-3.54,4.66v.09c2.18.51,3.54,1.94,3.54,4.69a18.62,18.62,0,0,1-.39,3.32,21.91,21.91,0,0,0-.34,3.11c0,2.41,1.16,3.7,3.88,3.75h.83v2.37h-1c-4,0-7-1.55-7-5.91a17.76,17.76,0,0,1,.44-3.53,31.39,31.39,0,0,0,.34-3.49c0-1.38-.49-3.24-3.93-3.24Z" style="fill:#020202"/><path d="M348.54,40.74c-3.4,0-3.88,1.86-3.93,3.24a21.8,21.8,0,0,0,.39,3.49,22.28,22.28,0,0,1,.38,3.53c0,4.36-3.05,5.91-7,5.91h-1V54.54h.82c2.72,0,3.89-1.34,3.89-3.75a23.47,23.47,0,0,0-.34-3.11,17.75,17.75,0,0,1-.39-3.32,4.26,4.26,0,0,1,3.54-4.69v-.09c-2.18-.52-3.54-1.9-3.54-4.66a17.41,17.41,0,0,1,.39-3.27,23.67,23.67,0,0,0,.34-3.06c0-2.33-1-3.67-3.89-3.71h-.82V22.51h1c4.12,0,7.08,1.68,7.08,5.65a24.62,24.62,0,0,1-.38,3.62,21.2,21.2,0,0,0-.39,3.57c0,1.51.48,3.19,3.93,3.19Z" style="fill:#020202"/><path d="M427.83,160.41a11.48,11.48,0,0,1,1.56,6.2c-.31,3.15-2.26,8.13-7.32,12.76s-6.79,7.07-6.93,9.69a14.86,14.86,0,0,0,2.88,8.83,20.5,20.5,0,0,1,2.41,4.45s-9.84-7-8.44-14.67c1.59-8.65,10.16-9.79,14.36-16.69A13.43,13.43,0,0,0,427.83,160.41Z" style="fill:#020202"/><path d="M435.93,176s-15.55,7-15.29,12.58,4.62,8.91,4.62,11.27a12.53,12.53,0,0,1-1.4,5s4.91-2.7,4.75-6.72-4.67-6.81-4-10.57S435.38,176.4,435.93,176Z" style="fill:#020202"/><path d="M87.08,17.05V150.18q0,24.12-13.69,39.85T38.7,205.74c-4.1,0-14.74-3-20.23-4.79V155.36c2.32,1,10.29,3.63,12.23,3.63Q40,159,40,144v-127Z" style="fill:#020202"/><path d="M188,174.38V93.75q0-28.43,39.33-28.42,15.19,0,26.74,6.61t11.54,20.65v82.95q0,27.26-38.28,27.26Q188,202.8,188,174.38Zm44.55.93V92.82q0-6.61-5.68-6.61T221,92.82v82.49q0,6.84,5.81,6.84T232.52,175.31Z" style="fill:#020202"/></svg>