<svg xmlns="http://www.w3.org/2000/svg" viewBox="0 0 446.4 208.8"><title>JConfCA</title><path d="M92.16,36.61c3.51,0,4-1.74,4.06-3.3a22.64,22.64,0,0,0-.4-3.69,24.94,24.94,0,0,1-.4-3.74c0-4.1,3-5.83,7.31-5.83h1v2.44h-.86c-2.95.05-4,1.43-4,3.83a23.14,23.14,0,0,0,.35,3.16,18.6,18.6,0,0,1,.4,3.39A4.35,4.35,0,0,1,96,37.67v.09c2.25.54,3.66,2,3.66,4.86a18.94,18.94,0,0,1-.4,3.42,23.34,23.34,0,0,0-.35,3.21c0,2.49,1.2,3.83,4,3.87h.86v2.45h-1.06c-4.11,0-7.26-1.6-7.26-6.1a18.22,18.22,0,0,1,.45-3.65,31.24,31.24,0,0,0,.35-3.6c0-1.43-.5-3.34-4.06-3.34Z" style="fill:#2a7fc2"/><path d="M352.45,38.88c-3.51,0-4,1.91-4.06,3.34a23.32,23.32,0,0,0,.4,3.6,22.64,22.64,0,0,1,.4,3.65c0,4.5-3.15,6.1-7.26,6.1h-1.05V53.12h.85c2.8,0,4-1.38,4-3.87a23.34,23.34,0,0,0-.35-3.21,18.08,18.08,0,0,1-.41-3.42,4.42,4.42,0,0,1,3.66-4.86v-.09c-2.25-.53-3.66-2-3.66-4.8a17.76,17.76,0,0,1,.41-3.39,23.14,23.14,0,0,0,.35-3.16c0-2.4-1.06-3.78-4-3.83h-.85V20.05h1c4.26,0,7.31,1.73,7.31,5.83a24.94,24.94,0,0,1-.4,3.74,22.64,22.64,0,0,0-.4,3.69c0,1.56.5,3.3,4.06,3.3Z" style="fill:#2a7fc2"/><path d="M301.45,201.45H270.13V195.9l15.42-19q2.54-3.1,2.53-8.47a2.48,2.48,0,0,0-2.79-2.81c-1.91,0-2.87.59-2.87,1.76v7.18H270.13v-7.3q0-8.1,15.51-8.09,9.58,0,12.7,3t3.11,9.74a6.9,6.9,0,0,1-1.35,4.39l-15.44,19.8h16.79Z" style="fill:#d22632"/><path d="M304,194.29v-27q0-8.16,16.16-8.15,15.87,0,15.86,8.09v27q0,3.63-4.46,5.61a28.36,28.36,0,0,1-11.48,2q-7.23,0-11.65-2T304,194.29Zm18.3.44V166.19q0-1.26-2.22-1.26c-1.57,0-2.35.42-2.35,1.26v28.54c0,.84.78,1.25,2.35,1.25S322.28,195.57,322.28,194.73Z" style="fill:#d22632"/><path d="M369.85,201.45H338.53V195.9l15.42-19q2.54-3.1,2.53-8.47a2.48,2.48,0,0,0-2.79-2.81c-1.92,0-2.87.59-2.87,1.76v7.18H338.53v-7.3q0-8.1,15.51-8.09,9.58,0,12.7,3t3.11,9.74a6.9,6.9,0,0,1-1.35,4.39l-15.44,19.8h16.79Z" style="fill:#d22632"/><path d="M372.38,194.29v-27q0-8.16,16.16-8.15,15.85,0,15.86,8.09v27q0,3.63-4.46,5.61a28.36,28.36,0,0,1-11.48,2q-7.23,0-11.66-2C373.86,198.57,372.38,196.71,372.38,194.29Zm18.3.44V166.19q0-1.26-2.22-1.26c-1.57,0-2.36.42-2.36,1.26v28.54c0,.84.79,1.25,2.36,1.25S390.68,195.57,390.68,194.73Z" style="fill:#d22632"/><path d="M430.92,156.44a11.74,11.74,0,0,1,1.59,6.35c-.32,3.22-2.31,8.31-7.49,13s-6.95,7.24-7.09,9.92a15.23,15.23,0,0,0,2.95,9,21.42,21.42,0,0,1,2.47,4.56s-10.07-7.2-8.63-15c1.62-8.84,10.38-10,14.68-17.06C431.66,163.56,431.71,160.11,430.92,156.44Z" style="fill:#2a7fc2"/><path d="M439.2,172.35s-15.91,7.15-15.64,12.87,4.73,9.11,4.73,11.52a12.77,12.77,0,0,1-1.44,5.09s5-2.76,4.86-6.87-4.78-7-4.06-10.82S438.64,172.8,439.2,172.35Z" style="fill:#2a7fc2"/><path d="M78.05,7V144.45q0,24.92-14.14,41.15T28.09,201.83c-4.24,0-15.22-3.12-20.89-5V149.79c2.4,1,10.63,3.76,12.62,3.76q9.59,0,9.59-15.45V7Z" style="fill:#d22632"/><path d="M175.4,122.4H141.26V88.26q0-6.83-5.75-6.83t-5.87,6.83v85.18q0,7.06,5.87,7.06t5.75-7.06V139.77H175.4v33.91q0,28.14-39.41,28.15-40.49,0-40.49-29.35V89.22q0-29.35,40.49-29.35,39.42,0,39.41,28.15Z" style="fill:#2a7fc2"/><path d="M349.23,148.8H315.09V88.26q0-6.35-5.93-6.35T303.23,88V148.8H269.09v-88h34.14V65.5q6.84-5.62,21.14-5.63a30.94,30.94,0,0,1,17.06,5q7.8,5,7.8,14.74Z" style="fill:#2a7fc2"/><path d="M420.75,63.1H401.23v84.4H367.08V63.1h-11.5V42.49h11.5q0-18.33,4.61-25.52t27.5-7.18h21.56V28.47H414.2q-8.68,0-10.83,3.3t-2.14,10.72h19.52Z" style="fill:#2a7fc2"/><path d="M182.23,172.48V89.22q0-29.35,40.61-29.35,15.71,0,27.62,6.83T262.38,88v85.66q0,28.14-39.54,28.15Q182.24,201.83,182.23,172.48Zm46,1V88.26q0-6.83-5.87-6.83t-6,6.83v85.18q0,7.06,6,7.06T228.24,173.44Z" style="fill:#2a7fc2"/><text transform="translate(104.77 47.53)" style="font-size:29.946697235107422px;fill:#d22632;font-family:MyriadPro-Bold, Myriad Pro;font-weight:700">CENT<tspan x="70.88" y="0" style="letter-spacing:-0.00401103288810036em">R</tspan><tspan x="88.52" y="0" style="letter-spacing:-0.01597891150544046em">O</tspan><tspan x="109.51" y="0">AMÉRI</tspan><tspan x="196.78" y="0" style="letter-spacing:0.010011277208510656em">C</tspan><tspan x="214.89" y="0">A</tspan></text></svg>