<?xml version="1.0" encoding="UTF-8"?>
<svg id="Layer_2" data-name="Layer 2" xmlns="http://www.w3.org/2000/svg" viewBox="0 0 478.19 636.8">
  <defs>
    <style>
      .cls-1 {
        fill: #fff;
      }

      .cls-2 {
        fill: #e91d26;
      }

      .cls-3 {
        fill: #9f896e;
      }

      .cls-4 {
        fill: #9f8b6f;
      }

      .cls-5 {
        fill: #a0a2a4;
      }

      .cls-6 {
        fill: #8f7b60;
      }

      .cls-7 {
        fill: #cdb8a2;
      }

      .cls-8 {
        fill: #b2842d;
      }

      .cls-9 {
        fill: #ccb8a2;
      }

      .cls-10 {
        fill: #c7b197;
      }

      .cls-11 {
        fill: #089347;
      }

      .cls-12 {
        fill: #9a846a;
      }

      .cls-13 {
        fill: #6cac64;
      }

      .cls-14 {
        fill: #518a4d;
      }

      .cls-15 {
        stroke: #fff;
        stroke-miterlimit: 10;
        stroke-width: 10px;
      }
    </style>
  </defs>
  <g id="Layer_1-2" data-name="Layer 1">
    <g>
      <path class="cls-15" d="M473.15,412.34c-.14,6.27-.3,12.41-.66,18.63-.45,7.83-1.31,15.58-2.53,23.03-1.13,6.88-2.37,14.19-3.99,21.36-2.35,10.4-5.32,21.23-9.08,33.1-1.63,5.16-3.83,10.57-6.71,16.54-.5,1.04-.98,2.12-1.45,3.16l-.07,.15c-.26,.58-.52,1.16-.79,1.74-.24,.53-.51,1.1-.84,1.68-1.98,3.56-5.4,5.48-9.88,5.54-1.61,.02-3.34,.03-5.45,.03-1.33,0-2.67,0-4,0h-1.34c.1,1.26,.2,2.54,.29,3.88,.31,4.23,.04,8.38-.22,12.39l-.02,.32c-.4,6.17-1,11.14-1.91,15.62-1.53,7.61-3.01,14.46-5.6,21.21-2.46,6.41-6.13,12.42-10.89,17.87-.46,.52-.92,1.07-1.36,1.59-1.55,1.83-3.15,3.72-5.15,5.4-3.61,3.01-7.67,5.15-12.41,6.56-1.14,.34-2.3,.69-3.42,1.04-2.32,.71-4.71,1.45-7.15,2.1-3.58,.95-7.06,1.52-10,1.95-4.76,.7-9.85,1.04-15.55,1.04-1.43,0-2.95-.02-4.5-.07-4.54-.13-8.84-.78-12.78-1.94-.51-.15-1.08-.27-1.68-.39-1.11-.23-2.35-.49-3.64-1.02-2.72-1.12-4.85-2.34-6.71-3.81-.79-.63-1.63-1.25-2.44-1.85-.66-.49-1.35-1-2.02-1.52-2.28-1.77-3.73-4.03-5.02-6.02l-.39-.6c-.96-1.48-1.75-3-2.51-4.47-.73-1.4-1.41-2.72-2.2-3.93-4.47-6.81-9.03-11.35-14.37-14.29-2.97-1.63-5.98-2.54-9.2-2.76-1.22-.08-2.51-.13-3.83-.13-3.96,0-7.99,.39-11.41,.77-3.15,.35-5.76,.67-8.37,1.24-5.66,1.25-10.83,3.72-15.38,7.34-4.95,3.93-9.16,8.55-12.52,13.72-2.35,3.61-4.72,6.6-7.27,9.13-.7,.7-1.35,1.28-1.98,1.78-3.09,2.44-6.49,4.8-10.11,7.02-1.14,.7-2.4,1.18-3.97,1.51-1.22,.26-2.48,.72-3.96,1.45-1.87,.93-3.79,1.25-5.49,1.54l-.75,.13c-2.66,.47-5.36,.71-8.01,.71-1.43,0-2.88-.07-4.3-.2l-.81-.07c-1.42-.12-3.02-.27-4.66-.69-1.18-.31-2.25-.75-3.2-1.14-.8-.33-1.54-.64-2.23-.82-2.16-.58-4.09-1.47-5.95-2.32-.79-.36-1.51-.69-2.22-.99-3.57-1.5-6.86-3.8-10.36-7.24-6.4-6.29-11.51-14.11-15.62-23.92-2.36-5.65-3.68-11.46-4.75-16.89-1.16-5.9-1.85-11.91-2.41-17.53-.59-5.87-.93-11.75-1.02-17.5-.03-2.23,0-4.38,.12-6.49-2.07,.73-4.34,1.13-6.8,1.19-.16,0-.32,0-.48,0-4.15,0-8.17-1.22-11.61-3.54-4.85-3.26-8.4-7.5-10.95-10.84-3.58-4.68-6.97-9.58-10.08-14.56-.46-.74-1.04-1.48-1.65-2.25-.4-.51-.81-1.04-1.22-1.6l-1.15-.05c-2.57-.1-5.21-.2-7.86-.55-1.91-.25-3.71-.72-5.29-1.13-1.57-.41-3.04-1.34-4.37-2.77-.98-1.05-1.8-2.14-2.59-3.2l-.62-.82c-.44-.57-1.17-1.52-1.33-2.87-.06-.54-.46-.99-1.84-2.08-1.66-1.32-3.07-2.82-4.31-4.57-1.07-1.52-1.83-3.09-2.31-4.83-.29-1.03-.65-2.19-1.19-3-1.55-2.34-2.06-4.8-2.51-6.98-3.83-2.24-6.25-5.43-7.41-9.77-1.04-3.88-.61-7.6,1.32-11.36,.36-.69,.71-1.42,1.05-2.12l.04-.09c.11-.23,.23-.46,.34-.7-1.29-1.75-2.26-3.66-2.89-5.7-2-2.28-3.12-4.94-4.1-7.28l-.21-.51c-1.07-2.54-2.91-4.58-5.63-6.22-4.69-2.84-8.72-6.28-11.99-10.22-2.27-2.73-4.12-5.07-5.78-7.66-1.11-1.72-2.3-3.84-2.72-6.49-.16-1-.49-2.05-.84-3.17-.49-1.56-1.05-3.34-1.22-5.29l-.07-.89c-.1-1.37-.19-2.5-.52-3.47-.47-1.36-1.01-2.79-1.85-3.91-2.29-3.06-4.16-6.29-5.57-9.61-2.72-2.86-3.4-6.31-3.69-9-.39-3.61,0-7.06,1.12-10.28,1.03-2.92,2.82-5.53,5.64-8.21,3.86-3.66,7.66-6.31,11.61-8.09,8.64-3.9,17.23-4.1,25.42-.6,2.65,1.13,5.63,2.7,7.68,5.76l.08,.11c.34,.47,.94,1.28,1.12,2.43,.05,.29,.5,.77,1.13,1.41l.1,.1c1.36,1.39,2.52,2.47,3.63,3.4,.66,.56,1.33,.87,2.11,.98,1.31,.19,2.5,.69,3.64,1.54l.65,.48c1.2,.9,2.32,1.75,3.51,2.36,2.24,1.16,3.83,2.99,5.11,4.45,3.23,3.71,5.79,7.36,7.82,11.17,1.25,2.35,1.91,4.73,2.54,7.04,.24,.88,.49,1.79,.77,2.66,1.68,5.23,.48,9.9-.86,13.47,.42,.58,.79,1.15,1.15,1.7,.17,.27,.34,.52,.51,.78,1.23,1.84,2.59,4.08,3.42,6.78,.23,.74,.77,1.58,1.35,2.48,.2,.31,.39,.61,.58,.92,.82,1.32,1.66,2.66,2.49,3.95,.57,.9,1.14,1.8,1.71,2.7l.1,.16c.32,.51,.7,1.11,1.02,1.82,3.03-.5,5.85-.33,8.53,.51,1.95,.61,3.55,1.6,4.95,2.48l.28,.18c3.84,2.4,7.19,5.58,10.25,9.74l.09,.12c.58,.79,1.17,1.59,1.75,2.44,1.23-.7,2.44-1.44,3.62-2.16,4.13-2.52,7.36-6.07,9.97-9.22,7.68-9.25,14.03-17.96,19.39-26.63,2.89-4.68,5.13-9.8,7.12-14.63,2.53-6.15,4.79-12.56,6.98-18.76,1.1-3.11,2.21-6.24,3.33-9.31,1.57-4.27,3.11-8.62,4.6-12.83l.11-.3c.63-1.77,1.25-3.53,1.88-5.3,.05-.14,.09-.27,.14-.41,.1-.31,.2-.59,.31-.89,.14-.37,.17-.5-.15-.96-2.51-3.67-3.37-7.76-4.12-11.37-.92-4.41-1.17-8.62-1.4-13.67l-.23-5.16c-.23-5.14-.46-10.46-.78-15.69-.38-6.25-1.29-12.57-2.79-19.33-1.54-6.97-2.86-14.07-3.9-21.11-.12-.79-.31-1.61-.51-2.48-.05-.2-.09-.4-.14-.61-2.12-.65-4.08-1.84-5.97-3.61-3.31-3.09-6.03-6.86-8.31-11.54-1.55-3.16-1.91-6.38-2.24-9.21-.06-.52-.12-1.03-.18-1.55-.22-1.71-.4-3.56-.29-5.48,0-.03-.02-.25-.59-1-1.05-1.37-2.31-2.78-3.85-4.33-1.79-1.79-3.53-3.64-5.21-5.42-.87-.93-1.69-1.8-2.52-2.66-1.31-1.37-2.47-2.56-3.54-3.64-3.73-3.73-7-8.01-9.72-12.71-.88-1.51-1.85-3.04-2.8-4.52-.35-.54-.69-1.08-1.03-1.62-2.05-1.56-3.31-3.87-3.65-6.71-.16-1.38-.91-2.83-1.6-4.08-.94-1.69-1.39-3.38-1.79-4.86l-.04-.13c-.3-1.12-.58-2.26-.84-3.36l-.34-1.39s-.01-.04-.08-.13c-1.79-2.6-2.35-5.85-1.53-8.91,.78-2.93,2.77-5.34,5.44-6.62,1.54-.74,2.94-1.19,4.31-1.38-.2-.82-.31-1.67-.33-2.53-.02-.96-.26-1.95-.53-3.1l-.29-1.22c-.43-1.87-.88-3.8-.95-5.9-.11-3.12,.91-5.96,2.88-8,1.97-2.04,4.63-3.06,7.65-2.9l-.13-.65c-.1-.49-.18-.99-.26-1.47-.21-1.2-.38-2.23-.72-3.17-.77-2.15-1.09-4.53-.95-7.1,.02-.41,0-.89-.02-1.4-.02-.49-.04-.99-.04-1.5,.03-2.14,.31-5.31,2.49-8.16,1.85-2.42,5.15-3.98,8.42-3.98,.7,0,1.39,.07,2.03,.22,.06,.01,.11,.03,.17,.04-.21-2.2-.43-4.42-.67-6.8-.04-.44-.12-.89-.22-1.35-.64-2.96-.36-6.07,.79-9.01,1.18-3.01,3.61-5.14,6.83-5.99,3.27-.86,6.44-.44,9.44,1.27v-.27c.07-3.85,.14-7.78,.26-11.66l.04-1.48c.05-1.75,.1-3.57,.21-5.39,.09-1.42,.36-5.73,4.26-8.41,1.71-1.18,3.85-1.83,6.03-1.83,2.76,0,5.35,1.04,7.1,2.86,1.36,1.42,2.68,2.87,3.95,4.28l.59,.66c.07,.08,.14,.16,.21,.24,.36-4.95,.84-10.02,2.07-15.03,.84-3.41,2.67-6.04,5.43-7.81,2.25-1.44,4.88-1.97,7.66-1.56,4.47,.67,7.07,3.72,8.96,5.95,2.65,3.11,4.85,6.47,6.99,9.72,.48,.73,.91,1.39,1.34,2.03,1.09,1.64,2.18,3.29,3.26,4.93l.02,.03c1.29-5.45,2.63-11.07,4.54-16.54,.88-2.54,1.81-5.1,2.7-7.58,.53-1.48,1.05-2.93,1.57-4.38,.39-1.1,.73-2.1,1.04-3.09,1.31-4.12,4.56-6.69,9.14-7.25,.31-.04,.63-.06,.95-.06,3.85,0,7.75,2.8,9.29,6.65,.45,1.13,.88,2.28,1.3,3.4,.24,.64,.48,1.28,.73,1.92,1.61-3.88,4.83-6.22,8.96-6.46,.23-.01,.45-.02,.66-.02,3.16,0,5.87,1.3,7.83,3.77,1.29,1.62,2.09,3.39,2.79,4.95,.28,.61,.53,1.19,.82,1.75,2.09,4.09,3.94,7.95,5.61,11.69,.07-.14,.15-.29,.22-.43,.9-1.71,1.74-3.11,2.66-4.4,2.18-3.05,5.53-4.81,9.21-4.81,1.42,0,2.84,.27,4.22,.8,1.54,.59,2.83,1.52,3.74,2.69,1.02,1.31,2.17,2.93,2.97,4.97,1.69,4.29,3.03,8.69,4.33,12.94l.23,.74c.05,.16,.1,.32,.15,.49,.43-.41,.91-.8,1.45-1.17,2.59-1.78,5.52-2.39,8.62-1.77,4.91,.97,8.31,4.19,9.82,9.3,.94,3.2,1.61,6.38,2.15,9.34,1.47-.94,3.11-1.61,4.89-2.01,.69-.15,1.41-.23,2.13-.23,4.81,0,9.02,3.39,9.79,7.89,.21,1.2,.28,2.33,.35,3.42,.06,.94,.12,1.83,.26,2.65,.63,3.7,.96,7.33,1.19,11.39,1.01-.31,2.07-.47,3.13-.47,3.86,0,7.33,2.05,9.05,5.36,.97,1.86,1.18,3.75,1.37,5.42,.04,.36,.08,.71,.13,1.04,.35,2.51,.73,5.38,1.08,8.47,1.08-.36,2.22-.55,3.4-.55,3.6,0,6.88,1.78,8.76,4.75,1.04,1.64,1.6,3.55,1.63,5.51l.02,1.5c.05,3.37,.1,6.85-.07,10.34-.17,3.26-.69,6.42-1.2,9.48-.15,.89-.3,1.78-.44,2.67-.55,3.55-1.56,6.9-2.53,10.15-.62,2.07-1.25,4.19-1.74,6.26-.24,1.02-.68,1.83-1.03,2.47-.13,.25-.26,.46-.34,.67-.81,2.01-1.32,4.17-1.71,6.03-.24,1.16-.71,2.21-1.49,3.32-3.18,4.57-5.83,9.9-8.33,16.78-.2,.55-.24,1.18-.13,1.87,.67,4.05,.53,8.15-.43,12.53-.89,4.03-2,8.31-4.17,12.31-1.93,3.57-4.06,6.46-6.5,8.82-.29,4.71-.3,9.84-.02,15.68,.06,1.26,.08,2.52,.11,3.75,.01,.66,.02,1.23,.04,1.81,.03,1.23,.06,2.45,.08,3.68v.1c.06,2.8,.11,5.69,.27,8.51l.07,1.27c.25,4.44,.5,9.02,.97,13.48,.28,2.61,.32,5.36,.15,8.91-.06,1.24-.16,2.49-.26,3.69-.1,1.17-.19,2.36-.25,3.52-.14,2.99,.37,5.22,1.61,7.03,1.91,2.79,2.72,5.93,3.43,8.71l.05,.19c1.68,6.55,2.28,12.45,1.84,18.05-.24,2.97-.89,7.34-3.86,11.12-.08,.12-.18,.28-.33,.47,2.35,4.84,5.18,9.58,7.68,13.78,4.76,7.99,10.98,18.54,16.84,29.24,.36,.65,.73,1.28,1.13,1.95-.13-.23-.06-.11,0,0,.42-.04,1.43-.22,1.83-.24l30.07-.8c5.78-.08,11.38,.45,17.1,1.05,6.7,.7,13.17,1.64,19.21,2.8,8.03,1.53,15.86,3.14,23.41,5.96,4.12,1.54,6.93,4.54,8.1,8.67,.97,3.42,1.56,7.14,1.79,11.39h0c.17,3.08,.21,6.26,.14,9.45Z"/>
      <path class="cls-2" d="M322.05,405.61c-.29,29.08-23.88,50.43-50.64,50.31-27.55-.12-50.36-22.62-50.15-50.74,.21-28.04,23.28-50.2,50.75-50.01,26.6,.19,49.84,21.58,50.04,50.44Z"/>
      <path class="cls-1" d="M327.46,395.38c-.51-2.55-1.1-5.08-1.97-7.55,.76-.48,1.51-.32,2.23-.25,3.04,.26,5.96,1.1,8.94,1.7,2.35,.47,4.66,1.16,7.1,1,.24-.02,.49,.18,.73,.28,0,.8-.75,.7-1.17,.83-4.75,1.41-9.47,2.91-14.21,4.37-.66,.2-1.25,.37-1.66-.37Z"/>
      <path class="cls-10" d="M335.11,322.92c.25,0,.51,.02,.76,.03-.27,.38-.51,.13-.76-.03Z"/>
      <path class="cls-6" d="M95.19,430.15c-.18-.06-.26-.18-.24-.37,.17,.07,.25,.19,.24,.37Z"/>
      <path class="cls-12" d="M323.21,308.12c.2,0,.31,.12,.35,.31-.19-.02-.32-.11-.35-.31Z"/>
      <path class="cls-12" d="M318.06,438.18c.01,.18-.07,.3-.24,.36-.03-.19,.07-.3,.24-.36Z"/>
      <path class="cls-1" d="M410.29,531.86h-25.96c-9.98,0-20.02-.16-30-.12-1.38,0-4.86-1.95-5.67-3.08-1.78-2.49-4.24-6.17-6-8.67-4.47-6.36-7.57-12.74-11.17-19.67-2.81-5.4-4.91-11.71-7.17-17.33-3.79-9.44-5.99-19.62-8.33-29.5-.67-2.82-.76-5.62-1.42-8.44-.16-.67-.12-1.27-.64-1.4-.21,.16-.44,.3-.63,.49-4.38,4.55-9.45,8.22-14.76,11.59-3.09,1.96-6.37,3.48-9.92,4.43-4.42,1.18-8.94,1.58-13.47,1.93-8.25,.63-16.26-.57-23.91-3.65-17.28-6.96-28.69-19.42-34.15-37.23-1.89-6.15-2.45-12.5-2.09-18.92,.1-1.83-.03-3.64-.28-5.45-.08-.55-.3-.74-.82-.71-2.62,.14-5.2,.45-7.72,1.27-3.58,1.16-6.92,2.85-10.29,4.46-3.14,1.49-6.3,2.95-9.29,4.72h0c-1.45,.53-2.78,1.31-4.12,2.07-2.44,1.38-4.99,2.6-7.16,4.43-.4,.1-.74,.28-.94,.65,0,0,0,0,0,0h0c-1.66,1.02-2.77,2.4-3.36,4.31-.87,2.76-1.68,5.53-2.42,8.32-2.74,10.25-4.93,20.63-7.04,31.02-1.82,8.97-3.52,17.97-5.04,26.99-1.34,7.97-2.6,15.96-3.73,23.96-1.2,8.49-1.99,17.01-2.4,25.56-.38,8.14-.23,16.29,.43,24.43,.52,6.41,1.35,12.77,2.69,19.05,1.57,7.36,3.74,14.51,7.24,21.22,2.27,4.36,5,8.38,8.74,11.63,4.71,4.08,10.24,6.52,16.23,8.06,3.58,.92,7.23,1.08,10.81,.55,3.63-.54,7.1-1.87,10.43-3.51,5.5-2.7,9.61-6.9,13.15-11.76,2.71-3.72,5.2-7.59,8.4-10.96,3.34-3.52,6.87-6.76,11.05-9.26,3.85-2.3,7.69-4.63,12.04-5.98,8.3-2.57,16.59-4.98,25.42-4.9,4.47,.04,8.89,.41,13.25,1.29,4.76,.96,9.17,2.9,13.36,5.33,2.56,1.48,5.09,3.03,7.26,5.02,2.28,2.1,4.53,4.23,6.42,6.74,2.64,3.52,5.57,6.84,7.22,10.99,.88,2.22,2.37,3.96,4.02,5.55,5.82,5.61,12.97,8.2,20.91,8.64,3.85,.21,7.71-.11,11.57-.46,5.85-.53,11.54-1.7,17.11-3.53,1.94-.64,3.77-1.52,5.68-2.21,3.1-1.14,5.86-2.88,8.4-4.97,5.3-4.37,8.88-9.98,11.36-16.32,1.15-2.94,1.99-5.99,2.91-9.02,1.69-5.5,2.89-11.1,3.38-16.82,.39-4.43,.58-8.88,.65-13.32,.1-6.33,.35-11.14-.24-17.46Z"/>
      <path class="cls-4" d="M279.78,239.48c-.02-.35-.12-.71,.12-1.05,.4,.26,.52,.62,.47,1.07-.2,0-.4,0-.59-.01Z"/>
      <path class="cls-14" d="M312.28,174.61c-.27,.06-.51,0-.7-.21,.25,.02,.5,.03,.7,.21Z"/>
      <path class="cls-13" d="M165.41,210.17c0-.3,.08-.54,.4-.63-.06,.26-.14,.51-.4,.63Z"/>
      <path class="cls-9" d="M29.49,384.09c.11,.11,.21,.22,.32,.33-.11-.11-.21-.22-.32-.33Z"/>
      <path class="cls-7" d="M46.56,411.79c.1,.11,.2,.22,.3,.33-.1-.11-.2-.22-.3-.33Z"/>
      <path class="cls-3" d="M281.72,235.93c-.16-.03-.27-.12-.27-.29,0-.04,.11-.08,.16-.12,.03,.14,.05,.28,.08,.43,0,0,.02-.02,.02-.02Z"/>
      <g>
        <path class="cls-5" d="M79.65,401.07l-2.04-5.7c-7.52-11.44-14.71-24.9-22.3-33.88-1.29-1.28-2.6-2.54-3.85-3.84-1.15-1.19-2.44-2.4-2.89-3.99-.39-1.37-1.17-2.08-2.3-2.65-3.78-1.9-7.74-2.73-11.95-2.02-4.53,.76-8.51,2.7-11.97,5.72,0,0,0,0,0,0-2.49,1.72-4.52,3.86-5.98,6.51-.45,.81-.76,1.73-.58,2.71,.03,.18,.04,.36,.04,.55l-.15,6.11c-.01,.42,.06,.83,.22,1.21l5.62,11.02c.14,.33,.68,.99,.92,1.26l6.23,8.4c.14,.23,.3,.45,.49,.64,7.47,7.58,9.41,14.47,13.8,21.87l10.03,11.07c.85,1.27,1.53,2.63,2.01,4.09,.32,.96,.87,1.67,1.82,2.04h0s0,0,0,0c.24,.51,.3,1.09,.71,1.52,.84,2.01,1.68,4.03,2.52,6.04,.25,.59,.59,1.13,.97,1.65,.45,.61,.91,.75,1.64,.45,1.34-.54,2.66-1.11,3.92-1.79,5.26-2.83,10.42-5.85,15.45-9.1,2.93-1.89,5.71-3.95,8.16-6.45,.54-.55,1.79-1.71,1.4-2.29l-11.92-21.15Zm-15.75,5.59c-.53,.87-1.24,1.03-2.2,.64-1.52-.62-2.71-1.72-3.89-2.8-5.32-4.88-9.49-10.61-12.53-17.15-1.38-2.97-2.59-6-3.13-9.25-.09-.53-.1-1.06-.15-1.6,0-.76,.05-1.5,.35-2.21,.46-1.12,1.41-1.62,2.57-1.32,1.72,.45,3.06,1.5,4.32,2.69,3.89,3.67,6.97,7.97,9.68,12.56,2.1,3.56,4,7.22,5.25,11.18,.42,1.33,.75,2.68,.75,4.09,0,1.18-.42,2.21-1.01,3.18Z"/>
        <g>
          <polygon class="cls-5" points="323.22 308.77 323.21 308.76 323.21 308.76 323.22 308.77"/>
          <path class="cls-5" d="M338.96,307.99c-.59-3.82-1.54-7.56-3.62-10.88-1.01-1.61-1.7-3.33-2.08-5.17-.28-1.36-.46-2.74-.68-4.1-.52,.95-.47,2.06-.84,3.05-.62,1.66-1.26,2.02-2.91,1.51-8.58-2.67-17.26-5-26-7.12-4.57-1.11-9.22-1.93-13.91-2.22-3.79-.23-7.59-.61-11.4-.37h0s0,0,0,0c-6.6-.06-13.2-.09-19.81,.03-.07-.07-.15-.13-.22-.21-1.7-.72-3.39,.01-5.09,.04-5.59,.09-11.12,.78-16.61,1.77-8.51,1.53-16.57,4.43-24.39,8.05-5.06,2.34-10.13,4.71-14.63,8.06-3.73,2.78-6.63,6.18-6.96,11.08-.27,4.03,.04,8.04,1.12,11.97,.46,1.66,.78,3.35,1.68,4.85,1.14,1.92,2.33,2.07,3.78,.4,1.65-1.91,3.12-3.96,4.46-6.09,2.27-3.6,5.15-6.58,8.81-8.74,7.34-4.34,15.45-6.6,23.65-8.53,9.76-2.3,19.77-2.15,29.7-2.57,3.63-.16,7.28,.11,10.92,.21,6.91,.19,13.8,.46,20.69,1.02,6.89,.55,13.75,1.35,20.53,2.66,2.84,.55,5.93,.61,8.06,3.08,.17,.05,.25,.18,.35,.31,2.19,2.51,3.72,5.45,5.5,8.22,1.18,1.84,2.34,3.69,3.59,5.48,.51,.73,1.06,.97,1.88,.74,.19,.02,.39,.03,.58,.05,.25,.15,.5,.14,.75,.03,0,0,0,0,0,.01,1.31,.07,2.11-.59,2.56-1.76,.62-1.6,1.14-3.2,1.19-4.95,.11-3.33-.15-6.63-.66-9.91Z"/>
        </g>
        <path class="cls-5" d="M140.71,512.18c-.56-1.74-1.29-3.42-2.16-5.01-4.74-8.57-9.51-17.14-14.38-25.64-2.6-4.55-5.45-8.96-7.69-13.72,.01-.31,.02-.61,.04-.92,.78-1.78,.76-1.75-.54-2.96-.81-.76-1.66-1.5-2.27-2.46-.98-1.52-2-3.02-3.02-4.51-.45-.66-.89-1.34-1.69-1.63h0s0,0,0,0c-.66-.77-1.41-.78-2.27-.32-1.98,1.06-3.64,2.58-5.52,3.77,0,0,0,0,0,0-.16,.03-.33,.02-.47,.08-4.46,1.97-9.12,2.45-13.92,1.91-2.57-.29-5.05-.85-7.11-2.57-1.38-1.89-1.35-2.39,.19-4.27,.07-.08,.1-.18,.15-.28,0,0,0,0,0,0q2.14-1.58,2.4-2.69c-2.07,1.04-4.29,1.28-6.26,2.25-.38,.19-.73,.46-1.11,.65-.76,.39-.77,.88-.33,1.55,.96,1.48,2.32,2.51,3.77,3.45,3.87,2.53,8.23,3.6,12.74,4.01,3.58,.33,6.96,1.14,10.01,3.1,0,0,0,0,0,0,1.83,1.9,2.44,4.1,1.62,6.65-.43,.43-.59,1.01-.84,1.53-.98,2.05-.44,3.11,1.84,3.68h0s0,0,0,0l1.31,.92s0,0,0,0c0,0,0,0,0,0,.1,.45,.48,.7,.73,1.04,.97,1.31,1.1,2.74,.65,4.26-.2,.67-.57,1.26-.86,1.89-.54,1.19-1.71,1.92-2.21,3.12,0,0,0,0,0,0-1,.45-1.65,1.35-2.51,1.97-1.83,1.33-3.89,2.14-6.31,2.76,1.54,.5,2.79,.97,3.92,1.7,.72,.47,1.48,.93,1.86,1.73,.85,1.8,2.35,3.12,3.39,4.78,1.77,2.97,3.75,5.8,5.71,8.64,1.23,1.79,2.45,3.59,3.92,5.2,.71,1.2,1.66,2.22,2.57,3.26,1.83,2.09,3.69,4.15,6.16,5.54h0c2.81,2.04,5.93,2.57,9.11,1.31,4.37-1.73,7.52-4.85,9.28-9.26,.59-1.49,.6-3,.11-4.54Z"/>
        <path class="cls-5" d="M96.74,430.33c-.55,.18-1.04,.06-1.54-.17h0c-.13-.1-.23-.21-.24-.38-.13-.46-.06-1.17-.92-.69-.68,.38-1.38,.71-2.08,1.06-.71,.14-1.36,.39-1.94,.83-.39,.18-.8,.31-1.16,.53-2.77,1.69-5.58,3.32-8.46,4.83-1.18,.53-2.37,1.05-3.55,1.58-.74,.23-1.49,.45-2.23,.68h0c-.83,.18-1.64,.38-2.36,.86h0c-.6,.04-1.02,.44-1.51,.72-.47,.13-.83,.4-1.09,.8,0,0,0,0,0,0-.14,.06-.31,.1-.43,.19-.12,.09-.29,.3-.26,.35,.16,.29,.36,.05,.52-.04,.13-.07,.23-.21,.34-.32h0c.47-.12,.93-.29,1.25-.68,.58-.32,1.25-.47,1.75-.96,0,0,0,0,0,0,.76-.06,1.45-.33,2.12-.66,0,0,0,0,0,0,2.23-.09,4.13,.68,5.71,2.25h0c.02,.29,.19,.49,.37,.69,1.22,1.33,1.9,2.96,2.54,4.61,.43,1.11,.58,2.25,.07,3.73,1.68-1.54,3-2.96,4.13-4.58,0,0,0,0,0,0,0,0,0,0,0,0,1.92-1.97,3.3-4.31,4.52-6.75,.67-.58,.89-1.43,1.21-2.2,.92-2.22,2.39-4,4.17-5.57,.29-.26,.81-.31,.85-.85-.6-.04-1.19-.08-1.76,.11Zm-12.19,15.01s-.03-.02-.05-.03c.02,0,.03,0,.04,0,0,.01,0,.03,0,.04,0,0,0,0,0,0,0,0,0,0,0,0Z"/>
        <path class="cls-5" d="M331.3,266.29c0-1.03-.21-2.02-.42-3.01-.21-.98-.85-1.63-1.9-1.96l-2.72-.16c-.7-.28-1.38-.06-2.05,.12-6.02,1.62-12.16,1.96-18.35,1.88-1.32-.02-1.8-.49-1.8-1.8,0-6.49-.18-12.98-.23-19.47-.08-10.03-.59-20.06-.41-30.09,.04-2.1-.28-2.43-2.28-3.14-2.07-.74-4.23-1.26-6.17-2.34,3.13,.33,6.06,1.37,9,2.36q2.68,.9,2.69,3.71c0,15.73,0,31.45,0,47.18,0,2.71,.02,1.85,2.75,1.83,6.26-.04,12.37-.7,18.26-2.58,1.08-.35,1.46-1.1,1.52-2.19,.1-1.84-.27-3.64-.3-5.46-.12-7.94-.09-15.87-.26-23.81-.17-8.42-.36-16.84-.42-25.26-.01-1.99-.34-2.36-2.26-2.96-18.94-5.98-38.42-8.37-58.19-8.8-5.96-.13-11.9,.17-17.84,.64-7.4,.58-14.7,1.7-21.81,3.92-9.46,2.95-18.45,7.01-27.2,11.63-7.2,3.81-13.8,8.47-19.73,14.07-.82,.77-1.68,1.53-1.74,2.79,.28,3.05,.59,6.1,.73,9.16,.11,1.11,.23,2.21,.37,3.32,.02,3.03,.08,6.07-.06,9.1,.13,2.18,.34,4.35,.98,6.45,.29,2.59,.84,5.13,1.37,7.68,.35,.42,.52,.9,.66,1.44,1.1,3.98,1.85,8.05,2.93,12.04,.49,1.81,1.01,3.62,1.78,5.34,.7,1.55,1.02,1.38,2.71,1.16,1.17-.15,2.69-.34,3.83-.67,5.17-1.47,9.73-3.95,14.75-5.83,2.55-.95,3.21-.28,2.56-2.89-1.57-6.29-3.16-12.58-4.56-18.91-1.49-6.75-3.11-13.48-4.05-20.35-.43-3.15,.61-5.31,3.09-7.2,7.33-5.59,15.49-9.61,24.05-12.86,6.73-2.55,13.51-4.95,20.73-5.75,1.19-.13,2.37-.24,3.89,.18-.83,.31-1.31,.38-1.79,.38-2.93-.01-5.75,.7-8.54,1.47-10.24,2.83-19.95,6.96-29.24,12.09-3.14,1.74-6.28,3.52-8.78,6.19-.89,.96-1.35,1.99-1.21,3.34,.5,4.87,1.41,9.67,2.41,14.44,1.96,9.34,4.23,18.61,6.7,27.83,.6,2.26,.57,2.26-1.7,3.09-7.2,2.65-14.47,5.11-21.71,7.66-2.04,.72-2.2,.93-2.22,3.14-.01,2.25,.02,4.51-.01,6.76-.03,2.04,.02,4.08,.42,6.09,.32,1.65,1.02,2.1,2.63,1.61,1.39-.42,2.7-1.04,3.98-1.74,3.2-1.75,6.29-3.68,9.65-5.16,5.9-2.6,11.93-4.82,17.96-7.1,9.32-3.52,18.93-5.1,28.84-5.02,11.05,.09,22.1-.32,33.15,.27,5.27,.28,10.47,.87,15.62,1.99,5.35,1.16,10.63,2.63,15.96,3.88,.97,.23,1.94,.7,2.98,.26,.02-.04,.04-.09,.05-.13,0,0,0,0,.01,.01,.61,.41,1.34,.36,2.01,.5,1.98,.42,3.94,.98,5.97,1.1,1.4,.09,1.71-.18,1.99-1.5,.6-2.88,.81-5.81,.93-8.74,.16-3.74,.03-7.49,.06-11.24Zm-149.76-15.02c.02-.09,.03-.18,.08-.2-.03,.07-.05,.13-.08,.2Zm74.48-2.98c3.13,.72,5.03,3.44,4.3,6.31-2.98-.91-4.54-3.24-4.3-6.31Zm-4.09-2.79c1.14,1.25,2.22,2.11,2.75,3.43,.5,1.24,.54,2.47,.07,3.71-.29,.76-.53,.82-1.17,.33-1.59-1.21-2.01-2.93-2.01-4.79,0-.78,.2-1.55,.35-2.68Zm-3.54-2.75c1.1,1.36,1.75,2.63,2.09,4.06,.28,1.2,.06,2.31-.55,3.37-.36,.62-.71,.72-1.25,.22-.97-.91-1.18-2.1-1.26-3.33-.1-1.47,.43-2.8,.98-4.32Zm-4.18-1.85c.27-1.13,.69-2.19,1.32-3.41,1.21,2.01,2.09,3.83,1.43,6.03-.25,.84-.58,1.9-1.44,1.89-.74,0-1-1.08-1.27-1.85-.32-.9-.25-1.77-.04-2.68Zm-1.89-1.02c-1.86-1.82-.48-5.64,1.86-7.63,1.41,3.89,.34,6.92-1.86,7.63Zm1.66-8.67c-.57,.6-1.29,1.49-2.14,1.02-.85-.46-.48-1.57-.32-2.37,.22-1.13,.92-2.03,1.76-2.8,.66-.61,1.31-1.24,2.28-1.56,.07,2.13-.07,4.12-1.59,5.71Zm-2.67-7.54c.63-1.79,1.67-3.29,3.53-4.53,.19,1.89,.32,3.46-.35,4.99-.44,1.01-1.13,1.78-2.14,2.27-.51,.25-.76,.18-.94-.37-.25-.78-.37-1.57-.1-2.35Zm-3.69,.77c.04-.47,.21-.93,.37-1.64,1.59,1.37,2.55,2.88,2.9,4.79,.11,.59,.06,1.14-.12,1.71-.45,1.43-.85,1.54-1.9,.42-1.4-1.51-1.43-3.37-1.25-5.27Zm-1.07,5.57c1.6,1.02,2.92,1.94,3.67,3.52,.45,.96,.52,1.93,.44,2.94-.04,.52-.3,.77-.86,.6-.97-.29-1.68-.89-2.17-1.77-.89-1.58-1.13-3.29-1.07-5.29Zm-.08,7.69c.39-.4,.9,.06,1.34,.2,.81,.25,1.62,.53,2.31,1.05,1.29,.98,2.17,2.18,2.06,4.05-1.75,.06-3.1-.56-4.13-1.85-.53-.67-.98-1.38-1.27-2.2-.15-.42-.73-.82-.31-1.25Zm1.54,7.14c-.31-.51-.15-.81,.46-.82,.91-.01,1.82-.07,2.72,0,1.88,.14,3.06,1.3,4.05,2.94-2.66,1.11-5.88,.11-7.23-2.12Zm8.09,4.2c.75,.41,1.76,.98,1.55,1.8-.2,.79-1.32,.89-2.22,.88-2.13-.02-3.72-1.12-5.52-2.69,2.3-.62,4.24-1.05,6.18,0Zm1.81,5.83c-1.15-.21-2.16-.83-3.37-1.51,1.56-.86,2.87-1.39,4.36-1.44,1.31-.05,2.38,.46,3.38,1.2,.48,.36,.32,.66-.11,1-1.3,1-2.76,1.02-4.25,.74Zm2.32,1.63c2.45-2.32,5.87-3.07,7.7-1.07-1.53,2.32-5.32,2.85-7.7,1.07Zm5.91,2.69c2.06-2.34,3.79-4.79,7.3-3.49-.31,2.5-3.23,3.96-7.3,3.49Zm4.79-8.43c1.72-.02,3.14-.21,4.54,.28,1,.35,1.75,.99,2.34,1.84,.64,.92,.4,1.42-.73,1.64-.77,.15-1.51-.06-2.18-.33-1.61-.63-2.87-1.73-3.97-3.43Zm7.24,7.54c-.94,.9-2.16,1.1-3.33,1.41-.66,.17-1.36,.05-2.1,.16,.97-1.76,1.92-3.42,3.91-4.07,.99-.32,2.32-.64,2.81,.19,.44,.74-.6,1.65-1.29,2.31Zm16.45,.38c-.06,.15-.11,.3-.2,.44-.36,.57-.47,1.39-1.35,1.43-.56,.02-.98-.75-1.09-1.95-.1-1.02-.08-2.03,.37-2.99,1.31-2.8,2.06-5.78,2.09-8.84,.04-3.8-.54-7.53-2.74-10.79,.28,3.8,.97,7.56,1,11.39,.01,1.79-.43,3.49-.95,5.18-.13,.43-.28,.85-.8,.87-.55,.01-.62-.5-.8-.87-1.04-2.18-.85-4.48-.61-6.76,.12-1.21,.48-2.4,.74-3.6,.19-.89,.31-1.79,.07-2.69-.19-.26-.38-.79-.59-.01-.24,.77-.45,1.54-.72,2.3-.15,.43-.48,.75-.99,.59-.51-.16-.61-.61-.48-1.05,.33-1.05,.29-2.12,.26-3.19-.08-2.98-2.35-6.17-5.11-7.25-.37-.15-.73-.1-1.11-.1-1.18,0-2.36,.03-3.54-.03-2.53-.12-4.33-1.87-4.44-4.4-.08-1.82,.02-3.64,0-5.47-.03-1.75-.33-2.01-2.1-2.05-.69-.01-1.39,0-2.07,0-.02-.17-.08-.31-.04-.37,.92-1.09,1.39-2.24,1.4-3.75,0-1.68,1.2-2.84,2.77-3.42,1.34-.49,2.64-.36,3.78,.6,1.26,1.05,1.42,2.56,1.29,3.97-.13,1.41,.51,2.09,1.55,2.68,.33,.18,.68,.32,1.02,.47,1.67,.77,2.94,1.94,3.77,3.59,.65,1.29,1.3,2.58,1.97,3.87,1.2,2.3,2.67,4.42,4.55,6.19,3.96,3.74,5.56,8.42,5.66,13.71,.08,4.29-.85,8.4-2.55,12.33Z"/>
        <path class="cls-8" d="M61.12,400.62c0,1.5-.86,2.01-1.87,1.32-.9-.61-1.77-1.27-2.49-2.1-4.63-5.4-8.32-11.36-10.8-18.04-.34-.92-.54-1.89-.73-2.85-.09-.45-.09-.98,.39-1.26,.48-.28,.99-.24,1.48,.05,.71,.43,1.36,.95,1.92,1.58,4.99,5.65,8.99,11.89,11.5,19.04,.29,.82,.45,1.69,.6,2.26Z"/>
        <path class="cls-8" d="M79.47,387.13c0,1.35-.78,1.81-1.69,1.2-.81-.55-1.6-1.15-2.25-1.9-4.18-4.88-7.52-10.27-9.76-16.3-.31-.83-.49-1.71-.66-2.58-.08-.4-.08-.88,.36-1.14,.44-.25,.9-.21,1.33,.05,.65,.39,1.23,.86,1.73,1.42,4.51,5.11,8.12,10.75,10.39,17.21,.26,.75,.41,1.53,.55,2.04Z"/>
        <path class="cls-8" d="M39.44,414.9c0,1.22-.7,1.63-1.52,1.08-.73-.49-1.44-1.03-2.02-1.71-3.76-4.39-6.76-9.23-8.77-14.66-.28-.74-.44-1.54-.59-2.32-.07-.36-.07-.79,.32-1.02,.39-.23,.81-.19,1.2,.04,.58,.35,1.11,.77,1.56,1.28,4.05,4.59,7.3,9.66,9.34,15.47,.24,.67,.37,1.38,.49,1.84Z"/>
        <path class="cls-5" d="M332,208.79c.23,.96,.29,2.12,1.18,2.87,0,0,0,0,0,0,.05,.06,.1,.12,.15,.17,.76-.75,1.57-1.46,2.29-2.26,3.24-3.59,5.11-7.9,6.29-12.52,.91-3.55,1.41-7.17,.69-10.82l-1.99-4.45c-1.29-.85-.17,.02-1.43-.76-.36-.22-.74-.41-1.12-.59-2.16-1.05-4.42-1.81-6.71-2.53-.13-.04-.22-.04-.29,0-.37-.14-.73-.31-1.14-.31l-12.38-2.99c-1.19-1.05-2.68-.72-4.06-.87-.41,.06-.81,.02-1.19-.12-.25-.04-.5-.06-.71-.21-2,.05-3.93-.46-5.88-.75-6.42-.95-12.88-1.5-19.35-1.71-8.31-.27-16.62-.36-24.94,.13-4.23,.25-8.44,.54-12.65,1.01-5.22,.58-10.39,1.43-15.53,2.48-2.31,.47-4.56,1.17-6.91,1.45-.08-.01-.15-.02-.23-.03-.47-.07-.93,.02-1.38,.16-4,1.13-8.01,2.25-11.89,3.75-4.95,1.91-9.87,3.89-14.63,6.25-10.12,5.02-19.49,11.23-28.44,18.08-1.53,1.17-3.09,2.33-4.1,4.03-.16,.27-.31,.54-.46,.82-.08,.14-.15,.28-.22,.42-.03,.05-.05,.1-.08,.15-.5,.59-.68,1.38-1.01,2.07-.19,.38-.25,.81-.7,1.01-.23,2.06,.17,4.08,.42,6.11,0,0,0,0,0,0,0,0,0,0,0,0-.15,1.55,.65,2.84,1.11,4.23h0c.81,2.57,2.13,4.84,3.95,6.83,1.7,1.85,3.42,3.58,6.06,4.17,1.41,.32,2.76,1.11,3.61,2.46,.82-.13,.54-.76,.51-1.22-.07-1.1-.25-2.18-.54-3.24-.68-2.82-1.1-5.68-1.74-8.51-.23-1.03,.13-1.77,.88-2.41,2.49-2.12,4.82-4.43,7.34-6.51,7.93-6.56,16.97-11.26,26.22-15.59,5.15-2.41,10.44-4.5,15.9-6.14,9.69-2.91,19.7-3.74,29.72-4.15,10.34-.42,20.69-.06,31,.96,8.81,.87,17.57,2.13,26.19,4.23,3.96,.97,7.88,2.1,11.74,3.42,2.8,.95,4.53,2.72,5.04,5.68,.23,1.32,.48,2.64,.83,3.94l.57,1.82Zm7.03-26.03h0s-.04-.01-.05-.02c0-.01,.02-.02,.02-.03,.01,.02,.02,.03,.03,.05Zm-.73-1.1s.07,.07,.11,.11c0,0,0,0,0,0,0,0,0,0,0,0,0,0,0,0,0,0,0,0,0,0,0,0-.04-.02-.09-.03-.13-.05,0-.02,.02-.04,.03-.06Zm1.36,11.41s0-.01,.01-.02c0,0,0,.02,0,.03,0,0,0,0-.01,0Z"/>
      </g>
      <path class="cls-8" d="M374.18,518.58c-4.13,.16-8.09-.15-12.36-.33-2.67-.11-4.88-.87-6.8-2.72-2.52-2.43-4.69-5.13-6.71-7.98-.1-.15-.19-.3-.29-.44-.32-.38-.54-.82-.73-1.27-6.29-10.02-11.21-20.67-15.09-31.83-1.04-2.98-1.67-6.09-2.78-9.05-.26-.42-.32-.9-.42-1.36-.04-.16-.08-.32-.14-.48-.95-4.27-2-8.53-2.84-12.83-1.07-5.5-2.21-10.99-3.09-16.53-.11-.68,.09-1.68-.96-1.97-1.24,2.17-2.52,4.32-3.92,6.4-.08,.12-.16,.24-.24,.36-.04,.1-.08,.2-.12,.3-.05,.7-.02,1.38,.11,2.08,2.14,11.3,4.99,22.41,8.54,33.35,2.92,8.99,6.29,17.81,10.39,26.33,3.15,6.54,6.71,12.84,11.37,18.46,1.88,2.27,3.6,4.81,5.56,6.88,1.17,1.23,2.01,2,3.7,1.98,6.81-.07,13.63-.1,20.45-.01,10.3,.14,20.59-.54,30.89-.35l27.54-.87c.9,0,1.47-.17,1.82-1.13,.54-1.45,1.24-2.84,1.92-4.24,3.1-6.36,5.76-12.89,7.83-19.67,1.17-3.84,2.41-7.65,3.34-11.56,0,0,0,0,0,0,.64-2.2,1.32-4.39,1.92-6.6,2.34-8.64,3.83-17.46,5.48-26.25,1.16-6.16,1.94-12.38,2.61-18.61,.59-5.49,1.06-10.99,1.17-16.51,.13-6.33,.05-12.66,.08-19,.01-3.03-.6-5.94-1.57-8.79,0,0,0,0,0,0-.26-1.25-1.32-1.61-2.31-2-6.7-2.65-13.75-4.02-20.79-5.33-5.52-1.03-11.08-1.87-16.68-2.47-3.88-.41-7.76-.93-11.66-1.06-8.84-.31-17.69-.56-26.53,.22-6.04,.53-12.04,1.33-17.98,2.43-5.99,1.11-11.95,2.46-17.82,4.14-.88-.08-1.72,.21-2.58,.28-.08,.07-.16,.16-.25,.19-5.2,1.6-10.4,3.2-15.6,4.81-.45,.14-.83,.12-1.19-.18-.11,.4,.25,.64,.35,.97h0c.2,3.75,.69,7.49,.6,11.26,2.12-.9,4.23-1.79,6.35-2.69,6.41-2.73,12.97-5.03,19.66-6.96,2.21-.64,4.45-1.13,6.71-1.52,.73-.13,1.47-.2,2.28,.06-.1,.79-.74,.88-1.24,1.09-2.22,.95-4.54,1.62-6.86,2.26-5.94,1.63-11.77,3.6-17.52,5.8-2.6,1-5.16,2.1-7.73,3.15-1.04,.43-1.72,.95-1.95,2.04h0c-.18,1.33-.34,2.65-.54,3.98-.59,3.93-1.76,7.71-3.09,11.45-.26,.94-.32,1.86-.14,2.85,.35,1.89,.67,3.8,.96,5.7,2.81,18.6,7.62,36.65,14.94,54,3.36,7.98,7.21,15.68,12.64,22.5,2.47,3.1,5.49,5.06,9.46,5.5,1.28,.14,2.56,.34,3.84,.42,7.17,.44,14.36,.45,21.54,.63l-13.55,.72Zm-3.98-123.88c1.73-.57,3.53-.85,5.32-1.11,3.01-.44,6.05-.63,9.09-.78,.58-.03,1.14,.01,1.79,.69-5.69,1.18-11.23,1.58-16.77,1.91-.11-.62,.28-.62,.56-.71Zm17.27,43.38c-.86,1.14-1.76,1.52-3.15,1.26-1.9-.35-3.85-.24-5.77-.4-4.17-.35-8.35-.49-12.52-.78-1.43-.1-2.63,.33-3.76,1.12-4.75,3.32-7.1,7.87-7.1,13.66,0,4.86,1.3,9.33,4.16,13.27,2.54,3.5,5.84,5.83,10.37,5.83,1.99,0,2.95-.95,3.12-2.93,.03-.37,.02-.75,.06-1.13,.29-2.73,.09-5.45,.06-8.18-.03-3.81,0-7.62,0-11.43,0-.43-.02-.86,.03-1.29,.12-1.05,.57-1.42,1.6-1.29,2.23,.28,4.46,.57,6.69,.87,1.33,.18,2.65,.38,3.98,.57,1.17,.17,1.23,.21,1.24,1.42,.02,2.95,0,5.9,0,8.86,0,5.31-.18,10.63,.02,15.94,.23,6.17,.09,12.33,.16,18.5,.03,2.11-.1,2.21-2.19,1.87-.64-.11-1.28-.08-1.92-.11-9-.42-17.29-2.89-24.48-8.5-3.16-2.47-5.62-5.58-7.79-8.93-2.86-4.42-5.24-9.11-7.17-14-1.27-3.2-1.98-6.53-2.2-9.99-.14-2.2-.23-4.39-.15-6.58,.13-3.54,.41-7.07,2.26-10.24,1.41-2.42,3.16-4.58,4.98-6.7,4.92-5.7,11.34-8.19,18.64-8.95,2.34-.24,4.69-.45,7.03-.55,2.41-.1,4.82-.03,7.23-.03,6.6-.01,13.2-.03,19.8-.04,.27,0,.53,0,1.03,0-.6,1.54-1.59,2.54-2.43,3.63-3.93,5.1-7.93,10.15-11.82,15.27Zm33.76,4.4c.38,5.68,.15,11.38,.39,17.06,.22,5.1,.1,10.2,.3,15.29,.13,3.27,.2,6.54,.23,9.82,.01,1.89-.25,2.27-2.03,2.96-3.79,1.48-7.53,3.1-11.39,4.42-.25,.09-.49,.22-.75,.28-.96,.22-1.24,.01-1.31-.99-.2-2.78-.4-5.56-.57-8.34-.43-6.9-.85-13.81-1.25-20.71-.26-4.34-.47-8.68-.73-13.01-.18-3-.38-5.99-.59-8.99-.07-1.05-.1-1.03-1.17-.94-3.37,.27-6.73,.52-10.1,.78-.48,.04-.98,.12-1.32-.36-.4-.59,.06-1,.31-1.45,2.49-4.41,5.62-8.37,8.64-12.4,1.48-1.97,3.02-3.9,4.48-5.89,.43-.59,.91-.81,1.62-.81,10.2,.01,20.4,0,30.6,0,.25,0,.5,.04,.99,.09-1.37,1.87-2.65,3.56-3.87,5.31-3.41,4.89-7.24,9.45-11.1,13.99-1,1.17-1.47,2.36-1.36,3.91Zm31.25-8.18c-.09,.63-.02,1.29-.04,1.93-.1,2.78-.29,5.55-.58,8.31-.15,1.43-.23,2.88-.34,4.31-.26,3.2-.66,6.38-1.09,9.55-.72,5.29-1.67,10.54-2.77,15.77-1.15,5.45-2.56,10.82-4.17,16.14-1.32,4.36-2.76,8.68-4.22,12.99-1.19,3.5-2.56,6.93-4.12,10.28-.47,1.01-.98,2.03-1.8,2.84-.29,.29-.55,.71-1.08,.43-.49-.25-.72-.68-.63-1.19,.1-.57,.26-1.15,.48-1.69,3.85-9.49,6.94-19.23,9.77-29.06,1.52-5.3,2.94-10.61,3.92-16.04,.57-3.15,1.09-6.31,1.49-9.49,.38-3.02,.85-6.02,1.2-9.05,.3-2.6,.48-5.21,.72-7.82,.3-3.3,.6-6.59,.9-9.89,0-.11,.03-.21,.03-.32-.12-2.47,.4-4.91,.35-7.38-.07-3.32,.51-6.63,.3-9.95-.2-3.09-.32-6.19-.84-9.25-.23-1.37-.29-2.76-.44-4.14-.15-1.42-.44-1.72-1.8-2.01-4.75-1.02-9.5-2.08-14.26-3.06-4.44-.92-8.9-1.76-13.39-2.45-4.11-.63-8.22-1.27-12.34-1.91-.42-.06-.82-.15-1.28-.7,2.47,.12,4.7-.16,6.92,.26,1.31,.24,2.66,.2,3.99,.35,3.4,.39,6.78,.87,10.15,1.42,5.11,.84,10.2,1.81,15.21,3.17,2.89,.78,5.76,1.64,8.63,2.5,1.42,.43,1.43,.46,1.42,1.86,0,4.88-.02,9.76-.04,14.65v8.03c-.02,3.53,.24,7.07-.26,10.59Z"/>
      <g>
        <polygon class="cls-11" points="189.38 65.26 189.38 65.26 189.39 65.26 189.38 65.26"/>
        <path class="cls-11" d="M361.18,111.82c-1.36,1.25-2.47,2.26-3.58,3.28-1.64,1.5-3.23,3.05-5.04,4.34-.91,.65-1.8,1.3-2.46,2.21-.18,.24-.36,.49-.61,.63-.51-.44-1.12-.71-1.75-.82-.24-.72,0-1.45-.07-2.17-.36-4.22-.44-8.45-.79-12.67-.36-4.38-.94-8.72-1.54-13.07-.07-.53-.18-1.06-.3-1.72-1.74,2.07-3.16,4.11-4.59,6.15-1.04,1.48-2.19,2.85-3.53,4.07-1.84,1.68-3.23,1.3-4-1.05-.03-.1-.06-.2-.08-.31-.32-1.45-.58-2.91-.6-4.39-.06-5.72-.21-11.42-.64-17.13-.3-3.94-.9-7.83-1.43-11.85-.99,1.13-1.87,2.17-2.77,3.18-.97,1.09-2.08,2.03-2.97,3.21-1.37,1.81-2.91,3.5-4.63,5.01-1,.88-1.96,.73-2.61-.42-.24-.41-.37-.88-.58-1.31-.4-.84-.22-1.78-.45-2.64-.71-2.67-1.05-5.4-1.53-8.1-.75-4.21-1.31-8.47-2.45-12.6-.24-.88-.56-1.72-1.06-2.47-.61-.91-1.56-.96-2.22-.1-.48,.62-.87,1.33-1.22,2.03-.94,1.9-1.82,3.82-2.83,5.68-.66,1.21-1.64,2.27-2.1,3.52-.66,1.81-1.9,3.13-3.05,4.56,0,.72,.34,1.37,.07,2.16-.89,2.59-1.05,5.3-.79,8.01,.3,3.06,.43,6.13,.86,9.17,.1,.74-.23,1.9,.78,1.98,.96,.08,.95-1.1,1.18-1.82,1.73-5.57,3.21-11.21,4.49-16.91,.17-.77,.25-1.64,1.09-2.28,.43,.77,.46,1.46,.38,2.13-.16,1.26-.19,2.54-.35,3.8-1.44,11.81-3.87,23.42-6.92,34.91-1.01,3.8-2.78,7.36-3.73,11.15-2.99,11.94-5.34,24-5.85,36.35-.06,1.46-.04,3.05-1.15,4.21-.95,.99-1.11,2.1-.97,3.37,.25,2.31,.05,2.66-2.2,2.89-5.28,.54-10.59,.36-15.88,.12-1.63-.07-3.28-.1-4.91-.39-1.27-.23-1.59-.82-1.23-1.99,.47-1.52,.94-3.04,1.52-4.52,5.88-15.05,8.67-30.77,10.17-46.77,.71-7.56,.69-15.13,.66-22.71-.02-5.2-.49-10.37-1.16-15.52-.71-5.48-2.18-10.81-3.07-16.25-.09-.58-.21-1.15-.17-1.74,.06-.91,.56-1.33,1.47-1.26,.85,.06,1.24,.5,1.16,1.36-.11,1.11-.17,2.22-.06,3.33,.41,4.34,1.18,8.61,2.23,12.83,.19,.77,.4,1.55,.77,2.25,.62,1.17,1.44,1.21,2.14,.1,.49-.77,.72-1.65,.91-2.54,1.57-7.59,2.79-15.22,3.13-22.97,.06-1.32,.06-2.69,.74-3.88,.39,.1,.44,.32,.49,.52,.15,.56,.26,1.14,.32,1.72,.61,5.75,.99,11.47,.11,17.26-.99,6.49-1.33,13.07-2.14,19.59-1.01,8.21-2.39,16.36-3.94,24.49-2.77,14.51-3.08,29.27-4.19,43.95-.24,3.21-.23,6.48-1.38,9.56-.32,.85-.74,1.75,.11,2.5,.87,.76,1.89,.56,2.84,.11,1.2-.57,1.95-1.61,2.63-2.69,1.88-2.98,3.11-6.26,4.35-9.53,5.12-13.46,9.27-27.19,11.59-41.44,1.01-6.18,1.76-12.39,2.06-18.63,.2-4.23,.15-8.48-.04-12.72-.2-4.44-1.65-8.88-.01-13.33-.98-1.16-1.57-2.54-1.88-3.98-.22-1.03-.4-2.06-.6-3.1-1.78-9.16-4.27-18.11-7.63-26.82-.26-.68-.65-1.18-1.15-1.63-.42,.13-.59,.48-.8,.78-1.38,1.96-2.36,4.13-3.29,6.32-1.54,3.65-2.98,7.35-4.74,10.9-.59,1.19-1.26,2.33-2.08,3.37-1.32,1.68-1.99,1.64-3.19-.18-.62-.94-1.05-1.96-1.39-3.02-1.43-4.38-3.21-8.62-5.03-12.85-2.2-5.11-4.77-10.04-7.13-15.07-.32-.68-.67-1.34-1.08-2.14-.52,.88-.64,1.67-.88,2.42-.86,2.67-2.15,5.18-2.77,7.93-.66,2.92-2.04,5.54-3.67,8.02-.36,.55-.84,1.08-1.5,1.32-.41-.04-.83-.02-1.23,.07-.65-.5-1.24-1.02-1.49-1.87-.68-2.27-1.6-4.45-2.54-6.62-2.15-4.98-4.24-10-6.35-15-.61-.29-.69,.23-.86,.58-.4,.84-.68,1.74-1.11,2.57v-.02c-.23,.53-.31,1.12-.64,1.62v-.02c-.15,.22-.13,.52-.3,.74-.75,1.58-1.23,3.26-1.83,4.89-1.47,4.03-2.85,8.1-3.8,12.27-.94,4.15-2.43,8.18-2.58,12.51-.06,1.77-.87,3.47-1.16,5.19-.42,2.45-.99,4.86-1.5,7.29-.22,.94-.17,1.89-.03,2.84,.45,2.99,.49,6.03,.53,9.03,.09,7.15,.2,14.29,.96,21.42,1.07,9.93,2.81,19.73,5.3,29.39,3.3,12.77,7.76,25.11,13.87,36.83,.56,1.08,1.03,2.21,1.35,3.39,.19,.72,.17,1.43-.8,1.56-.8,.11-1.22-.37-1.23-1.11-.03-2.94-1.78-5.16-3.1-7.55-.24-.43-.55-1.09-1.15-.87-.56,.2-.53,.9-.44,1.41,.27,1.52,.18,3.07,.4,4.59,.35,2.5-.22,3.74-2.28,4.62,.16-.45,.06-.94-.12-1.42-.43-1.14-1.03-2.21-1.58-3.3-3.14-6.18-5.47-12.63-6.72-19.47-.96-5.27-2.2-10.48-3.43-15.69-.94-3.96-1.97-7.93-1.69-12.08,.03-.37,0-.75-.1-1.11-.32-1.1-.82-2.01-2.19-1.78-.83,.14-1.12-.32-1.32-1.01-1.31-4.55-3.45-8.77-5.34-13.09-1.8-4.12-3.89-8.14-4.54-12.68-.08-.53-.26-1.06-.61-1.46-1.82-2.09-2.36-4.7-3.04-7.26-1.21-4.51-1.83-9.15-3.25-13.61-.77-2.42-2.01-4.66-2.42-7.22-.72-4.46-1.3-8.93-1.38-13.52,.64,2.21,1.59,4.23,2.39,6.3,1.89,4.89,3.49,9.91,5.49,14.73,4.29,10.32,9.42,20.27,14.12,30.42,.2,.43,.41,.86,.71,1.24,.16,.2,.34,.44,.64,.38,.3-.07,.36-.36,.43-.61,.09-.37,.05-.74,0-1.11-.3-2.05-.36-4.12-.47-6.17-.28-5.24-.58-10.47-1.39-15.65-.6-3.86-1.1-7.78-3.64-11.3,.57,.37,.92,.76,1.43,.54-.19-1.13-1.2-1.69-1.8-2.54-2.81-3.98-5.48-8.05-8.21-12.08-1.99-2.94-4.03-5.84-5.86-8.88-1.81-3.01-3.99-5.7-6.3-8.32-.61-.18-1.11-.86-1.85-.38-.82,.78-1.02,1.83-1.19,2.87-1.14,6.99-1.38,14.06-1.89,21.11-.2,2.85-.51,5.67-1,8.48-.17,.98-.37,1.99-1.22,2.68-.02,.08-.04,.17-.06,.25,.06,.06,.11,.13,.17,.19,1.38,.4,2,1.42,2.35,2.74,.67,2.52,.99,5.11,1.17,7.69,.66,9.3,2.52,18.36,5.1,27.29,3.71,12.83,8.75,25.13,15.01,36.91,4.41,8.3,9.36,16.26,15.41,23.49,1.68,2.01,3.6,3.75,5.94,4.95,.09,.04,.18,.09,.27,.13-2.33,.71-4.71,1.28-7.04,1.97-.46,.14-1.03,.16-1.33,.54-.21,.02-.43,.05-.63,.09-.54,.07-1.09,.15-1.63,.25-1,.19-1.98,.49-2.99,.46-.12-.13-.18-.33-.16-.62,.04-.66-.23-1.25-.43-1.84-1.41-4.22-3.42-8.2-5.16-12.28-1.1-2.58-2.21-5.15-2.83-7.9-.24-1.08-.3-2.18-.65-3.25-2.1-6.41-5.06-12.44-7.89-18.53-1.54-3.31-3.24-6.56-4.9-9.82-1.44-2.83-2.85-5.68-4.42-8.44-2.57-4.51-4.92-9.14-7.01-13.89-2.07-4.69-4.08-9.41-5.86-14.22-.96-2.58-2.02-5.14-2.7-7.79-.68-2.63-1.56-5.15-2.78-7.57-.46-.91-.81-1.86-1.03-2.83-.23-1.02-.6-2.04-.43-3.12,.08-.53,.52-.69,.91-.33,.23,.21,.38,.5,.56,.76,.74,1.04,1.17,2.25,1.8,3.36,1.13,2.02,2.15,4.11,3.97,5.68,.63,.54,.98,1.38,.99,2.27,0,.53,.08,1.04,.23,1.56,1.19,4.12,3.17,7.82,5.79,11.2,.27,.34,.48,.75,.99,.63,.59-.14,.57-.66,.65-1.14,.23-1.52,.1-3.02,.04-4.55-.16-4.15-.8-8.2-2.18-12.1-.41-1.16-.31-2.01,.53-2.83-.1-.11-.2-.11-.3,0-.11,.02-.21,.05-.32,.07-.22,.1-.44,.11-.65-.03-.78-.23-1.38-.73-1.97-1.28-1.15-1.09-2.15-2.31-3.14-3.56-3.76-4.76-7.7-9.36-11.94-13.71-.73,.49-.44,1.25-.43,1.88,.05,4.37-.43,8.71-.44,13.08-.12,1.26-.02,2.51-.05,3.77,0,.65,0,1.3,0,1.95-.1,.97,.2,1.97-.18,2.92-.02,.63-.08,1.26-.06,1.88,.07,3.85-.13,7.69-.25,11.53-1.74-.31-2.29,1.48-2.35,3.17-.48-.38-1.01-.69-1.46-1.11-2.46-2.25-4.93-4.49-7.38-6.75-1.1-1.01-2.32-1.84-3.59-2.61-.73-.44-1.05-.24-1.16,.6-.04,.37-.03,.74-.03,1.11,0,2.01,.15,4.02,.19,6.02,.06,3.14,.61,6.2,.95,9.3,.33,2.99,.81,5.97,.81,8.99,0,.79-.01,1.58-.25,2.36-.52,1.74-1.3,2.1-2.94,1.26-1.18-.61-2.23-1.43-3.25-2.27-1.67-1.38-3.24-2.9-5.16-3.95-2.29-1.24-2.45-1.15-2.5,1.5-.06,2.93,.57,5.78,.97,8.65,.97,6.97,2.76,13.76,4.4,20.58,.17,.69,.76,1.51,.1,2.08-.63,.55-1.41-.06-2.08-.32-2.65-1.07-5.13-2.5-7.69-3.77-1.23-.61-2.51-1-3.95-1.27-.1,.91-.02,1.68,.22,2.44,.14,.45,.28,.91,.36,1.38,.84,4.69,2.07,9.28,3.67,13.77,.84,2.35,1.17,4.83,1.68,7.26,.19,.91-.07,1.21-.98,1.51-.72,.24-1.48,.25-2.2,.12-1.46-.27-2.89-.64-4.23-1.32-1.24-.63-2.31-1.49-3.43-2.29-1.01-.72-2.02-1.13-3.18-.31,.22,.15,.57,.26,.62,.45,.71,2.53,1.39,5.08,2.07,7.62,.19,.72,.33,1.46,.87,2.03,.19,.55,.35,1.11,.57,1.64,.8,1.95,1.63,3.89,2.44,5.83,0,.19,.13,.29,.27,.38,.09,.13,.21,.24,.28,.38,2.1,4.03,4.68,7.77,6.96,11.69,1.62,2.78,3.79,5.2,6.1,7.46,4.68,4.58,9.11,9.4,13.64,14.12,2.12,2.21,4.01,4.64,4.85,7.7,.17,.04,.37,0,.41-.14,.89-3.38,3.53-5.13,6.26-6.84,1.44-.9,1.45-1.38,.29-2.6-1.97-2.07-3.94-4.16-5.94-6.19-7.99-8.12-15.92-16.29-23.65-24.67-3.5-3.79-6.76-7.75-9.37-12.22,3.12,2.93,5.9,6.2,9,9.14,.85,.81,1.7,1.59,2.68,2.24,.44,.29,.94,.66,1.45,.27,.57-.43,.34-1.05,.13-1.61-.13-.35-.32-.67-.48-1.01-1.06-2.26-2.44-4.35-3.46-6.62-.63-1.41-1.17-2.84-1.31-4.4,.71,.37,1.02,.98,1.38,1.56,1.46,2.34,2.66,4.83,3.95,7.26,6,11.32,13.27,21.69,22.63,30.51,1.46,1.38,2.98,2.7,4.79,3.65,1.9,.99,3.57,.7,5.14-.64,2.58-2.19,2.88-4.08,1.12-6.95-.31-.5-.66-.96-1-1.43-1.08-1.51-2.3-2.96-3.04-4.65-1.29-2.94-3.34-5.29-5.45-7.58-5.79-6.27-11.28-12.79-16.39-19.63-3.71-4.97-7.69-9.74-10.38-15.39-.84-1.77-1.62-3.57-2.76-5.19-.06-.07-.06-.07-.04-.07,.02,.03,.03,.05,.06,.07,4.17,4.59,8.09,9.38,11.67,14.45,.43,.61,1.01,1.09,1.65,1.48,.4,.25,.84,.61,1.31,.31,.53-.33,.48-.93,.35-1.45-.38-1.49-.9-2.93-1.56-4.33-2.13-4.45-4.46-8.77-7.55-12.75,1.06,.69,1.9-1.29,2.85-.16,.71,.85,1.18,1.88,1.66,2.89,.25,.53,.54,1.03,.78,1.57,2.13,4.8,4.5,9.48,7.12,14.03,4.92,8.52,10.65,16.46,17.2,23.8,3.17,3.56,6.45,7.03,10.24,9.95,1.4,1.08,2.94,1.9,4.6,2.48,1.32,.46,2.52,.17,3.54-.77,.97-.89,1.09-2,.72-3.21-.2-.66-.39-1.32-.65-1.96-1.29-3.14-2.85-6.15-4.55-9.09-4-6.95-8.4-13.62-13.54-19.79-3.33-3.98-6.88-7.79-9.6-12.25-2.49-4.07-5.1-8.06-7.65-12.09-2.73-4.3-5.51-8.56-7.7-13.17-.42-.88-.83-1.76-.98-3.12,1.67,1.17,2.6,2.54,3.6,3.79,2.4,2.98,4.41,6.22,6.3,9.54,.36,.63,.84,1.42,1.73,1,.78-.37,.53-1.19,.39-1.85-1.08-5-2.67-9.8-5.23-14.27-.8-1.39-2-2.42-3.19-3.86,2.29-.01,3.63,1.02,4.55,2.68,1.1,2,2.06,4.06,2.82,6.22,1.76,4.95,3.53,9.89,5.75,14.65,5.19,11.16,11.62,21.54,19.38,31.09,3.88,4.77,7.91,9.42,12.33,13.69,1.86,1.8,3.76,3.61,6.1,4.8,2.03,1.03,3.08,.29,2.89-1.95-.18-2.16-1.12-4.08-2.01-6-2.8-6.06-5.67-12.09-8.5-18.14-1.31-2.8-2.53-5.77-5.48-7.41-.24-.13-.35-.38-.4-.66-.5-2.97-2.24-5.37-3.77-7.81-4.37-6.95-9.04-13.72-13.05-20.9-4.34-7.78-8.72-15.53-11.99-23.84-.26-.66-.65-1.31-.5-2.11,.62,.06,.89,.5,1.17,.86,3.32,4.22,6.18,8.73,8.42,13.63,.4,.87,.42,1.87,.89,2.71,.37,.68,.92,1.18,1.76,1.16,.58-.01,1-.32,1.29-.81,.36-.6,.21-1.22,.03-1.85-.68-2.45-1.39-4.9-1.8-7.41-.75-4.5-2.08-8.73-5.2-12.2,.07-1.4,.4-3.06,1.72-3.46,.05,.01,.11,.03,.16,.05,.12,.04,.21-.03,.24-.13,.09,0,.18,0,.28,0,1.09,.28,1.86,.99,2.23,2.19,.21,.65,.38,1.33,.43,2.01,.12,1.85,.48,3.66,.91,5.45,1.11,4.63,2.57,9.15,4.19,13.63,2.67,7.37,5.81,14.54,9.18,21.61,1.6,3.35,3.41,6.58,5.19,9.83,3.62,6.61,8.08,12.64,12.76,18.52,3.48,4.38,7.13,8.63,10.66,12.97,.73,.9,1.31,1.92,1.91,2.92,.22,.37,.67,.86,.17,1.27-.41,.34-.77-.13-1.11-.34-1.01-.62-1.79-1.47-2.5-2.41-.7-.93-1.52-1.77-2.46-2.46-.23-.17-.54-.43-.85-.15-.23,.21-.09,.49-.02,.74,.39,1.39,1,2.67,1.67,3.94,.46,.88,.7,1.78,.03,2.68-.1,.14-.03,.29,.15,.36,1.42-.19,2.69-.89,4.05-1.28,2.62-.74,5.2-1.6,7.79-2.42,.69-.06,1.38-.11,2.08-.17,.68,.18,1.33-.05,1.98-.21,14.15-3.31,28.49-4.81,43.01-4.67,3.13,.03,6.25,.01,9.38,0,5.14-.02,10.25,.47,15.37,.87,4.6,.36,9.14,1.14,13.72,1.67,.36,0,.72,.04,1.07,.13,.43,.08,.86,.12,1.3,.03,1.07-.48,.49-.79-.12-1.05-.84-.37-1.84-.32-2.66-.97,1.6-1.62,2.75-3.39,3.8-5.23,2.47-4.33,4.58-8.84,6.53-13.43,3.67-8.64,7.03-17.4,8.8-26.67,.89-4.69,1.8-9.37,2.81-14.03,.23-1.04,.46-2.07,.86-3.06,.19-.47,.36-1.2,1.01-.98,.62,.2,.36,.9,.3,1.41-.05,.47-.19,.93-.34,1.39-1.29,3.8-1.81,7.73-1.75,11.73,.01,.92-.25,2.24,.87,2.46,1.01,.2,1.26-1.11,1.6-1.89,1.49-3.46,2.65-7.04,4.02-10.55,1.12-2.86,2.14-5.76,3.69-8.7,0,.97-.14,1.65-.28,2.32-2.98,14.43-7.41,28.39-13.62,41.77-1.45,3.12-2.89,6.26-5.43,8.72-.48,.46-.73,1.1-.58,1.75,.61,2.73-.26,5.24-1.08,7.76-.59,1.81-1.22,3.62-1.27,5.56-.05,1.89-.04,1.89-1.91,1.72q-1.05-.1-1.44,.74c.24,.22,.52,.37,.83,.43,3.4,.73,6.78,1.57,10.14,2.48,.46,.12,.93,.2,1.39-.06,1.38-3.55,3.01-6.99,4.9-10.29,.58-1.01,1.1-2.06,1.51-3.15,4.59-12.05,9.16-24.1,10.56-37.05,.78-.73,1.76-.62,2.46,.15,0,.02,0,.05,0,.07,.02,3.07-.04,6.14-.31,9.2-.06,.68-.29,1.79,.56,1.92,.74,.12,1.02-.96,1.26-1.63,.83-2.36,1.97-4.57,3.15-6.76,.68-1.27,1.35-2.58,2.86-3.68-.63,2.8-1.58,5.14-2.55,7.48-2.55,6.17-5.34,12.23-8.25,18.24-3.46,7.15-6.93,14.29-10.75,21.27-.99,1.8-2.45,3.3-3.15,5.26,.47,.47,1.11,.59,1.7,.8,2.09,.73,4.18,1.49,6.05,2.71,1.38,.91,1.51,.84,2.46-.58,1-1.5,1.76-3.12,2.61-4.7,.19-.24,.1-.62,.41-.8,.7-1.59,1.27-3.25,2.12-4.76,1.66-2.95,3.06-6.03,4.48-9.09,.24-.52,.43-1.31,.84-1.47,.89-.35,.86-1.05,1.06-1.72,.79-2.62,1.35-5.33,2.81-7.71,.19-.3,.3-.69,.31-1.05,.03-.76,.3-1.44,.51-2.15,.82-2.78,1.83-5.53,2.42-8.36,.98-4.7,1.81-9.43,2.09-14.25,.2-3.42,.05-6.83,.13-10.59Zm-221.44,23.97c.02,.06,.03,.13,.05,.19-.07-.03-.27-.05-.05-.19Zm113.1,20.21c-.01,3.3-.21,6.64-.91,9.91-.12,.56-.34,1.11-.55,1.65-.13,.34-.31,.73-.77,.66-.35-.05-.47-.38-.57-.69-.29-.91-.67-1.79-.88-2.72-.97-4.16-1.74-8.36-2.22-12.6-.32-2.88-.51-5.78-.79-8.66-.21-2.2,.03-4.45-.52-6.62-.04-.15-.03-.32-.02-.48,.18-4.13-.46-8.24-.31-12.68-.29-2.77,.3-5.81,.34-8.88,.02-1.28,.23-2.61,.87-3.82,.63-1.19,.42-1.92-.57-2.82-.2-.18-.41-.34-.64-.47-1.77-1.03-2.19-2.63-1.83-4.5,.39-2.03,.4-3.95-.82-5.78-1.14-1.71-1.4-3.77-1.77-5.72-.85-4.45-1.57-8.92-2-13.44-.33-3.41-.92-6.79-1.16-10.2-.13-1.84-.24-3.7-.45-5.52-.26-2.26-.02-4.55-.53-6.78-.04-.15-.03-.32-.03-.48,.12-4.08-.47-8.13-.36-12.21,.04-1.59,.39-3.14,.4-4.73,0-.51,.05-1.31,.75-1.41,.73-.1,.88,.68,1.08,1.19,.62,1.58,1.01,3.22,1.28,4.89,.72,4.37,1.13,8.77,1.84,13.14,.25,1.54,.55,3.13,.41,4.73-.07,.76,.17,1.47,.34,2.18,.29,1.2,.44,1.29,1.83,1.22,.62-.03,.7,.34,.68,.8-.03,.63-.32,1.21-.33,1.87-.02,1.6,.26,3.15,.55,4.7,.58,3.06,1.57,6.03,2.3,9.05,1.09,4.56,2.01,9.16,2.64,13.81,.46,3.45,.92,6.89,1.25,10.35,.24,2.47,.44,4.93,.64,7.4,.34,4.27,.42,8.54,.65,12.81,.54,10.27,.23,20.55,.19,30.82Zm7.93,8.92c-.01,1.06-.74,1.44-2.21,1.34-1.04-.07-1.43-.58-1.25-1.56,.23-1.26,.69-2.45,1.17-3.63,4.03-9.89,5.86-20.27,6.27-30.86,.33-8.52,.13-17.05-.81-25.56-2.05-18.49-6.44-36.41-12.65-53.92-1.14-3.2-2.2-6.42-2.89-9.76,.17,0,.33,0,.5,.03,.74,1.2,1.27,2.5,1.8,3.8,1.2,2.95,1.87,6.08,3.21,8.98,.33,.72,.61,1.48,1.18,2.06,.85,.86,1.61,.74,2.07-.39,.47-1.14,.57-2.36,.66-3.58,.35-4.55,.33-9.11,.32-13.66,0-.88,.02-1.77,.45-2.54,.3,.01,.39,.14,.44,.29,.34,1.01,.52,2.06,.67,3.1,1.35,9.4,1.81,18.88,1.9,28.36,.08,8.45,.75,16.83,2.16,25.15,1.03,6.07,1.96,12.16,2.24,18.29,.25,5.44,.52,10.87,.18,16.35-.49,7.91-1.4,15.71-3.14,23.44-1.06,4.7-2.24,9.39-2.29,14.26Zm66.77-82.94c-1.8,8.63-4.19,17.12-6.69,25.57-1.57,5.32-3.17,10.63-5,15.87-1.34,3.84-2.58,7.73-4.5,11.34-.95,1.78-1.91,3.53-2.56,5.44-.22,.66-.28,1.3-.25,2,.1,2.24-.46,4.41-1.03,6.54-1.1,4.19-1.98,8.41-2.68,12.68-.14,.83-.11,1.69-.06,2.54,.06,.97-.28,1.88-.41,2.82-.08,.57-.46,1.02-1.02,1.34-2.33,1.35-5.16,.03-5.56-2.62-.05-.36,.06-.75-.18-1.09-.54-.15-.58,.34-.74,.63-.42,.78-1.03,1.35-1.86,1.64-.57,.2-.89-.1-.82-.73,.09-.79,.32-1.55,.67-2.27,.72-1.47,1.41-2.97,2.22-4.4,3.61-6.37,6.44-13.08,8.95-19.95,2.66-7.25,4.76-14.67,6.49-22.18,.87-3.8,1.56-7.63,2.17-11.49,.9-5.76,1.27-11.53,1.26-17.35,0-2.15,.39-4.3,.6-6.45,.04-.38,.09-.82,.55-.84,.5-.02,.5,.53,.54,.84,.2,1.3,.44,2.61,.46,3.92,.06,3.55,.14,7.11-.03,10.65-.11,2.11-.26,4.21,.02,6.36,.74-2.36,1.53-4.7,2.22-7.07,1.21-4.16,2.69-8.24,4.18-12.31,.73-1.99,1.43-3.98,2.44-5.85,.18-.33,.34-.66,.52-.98,.11-.19,.28-.37,.49-.35,.33,.04,.35,.34,.36,.61,.05,1.76-.4,3.46-.76,5.15Z"/>
      </g>
      <path class="cls-1" d="M369.7,366.84s0,0,0,0c.13,.21,.07,.11,0,0Z"/>
    </g>
  </g>
</svg>