<svg xmlns="http://www.w3.org/2000/svg" viewBox="0 0 800 800"><title>guate-jugArtboard 1SVG</title><path d="M552.5,559.36c-10.48,0-21-.18-31.5-.13-1.45,0-5.1-2.05-6-3.24-1.87-2.62-4.45-6.48-6.3-9.1-4.7-6.68-7.94-13.38-11.72-20.65-2.95-5.68-5.16-12.3-7.53-18.2-4-9.91-6.28-20.61-8.75-31-.7-3-.79-5.89-1.49-8.86-.16-.7-.12-1.33-.67-1.47a6.45,6.45,0,0,0-.66.51,82.05,82.05,0,0,1-15.49,12.17A37.23,37.23,0,0,1,452,484.06a77.48,77.48,0,0,1-14.14,2,55.32,55.32,0,0,1-25.11-3.83c-18.14-7.3-30.12-20.4-35.85-39.09a56.27,56.27,0,0,1-2.2-19.87,28.91,28.91,0,0,0-.29-5.73c-.08-.58-.32-.77-.87-.74a31.54,31.54,0,0,0-8.11,1.33,88.24,88.24,0,0,0-10.8,4.68c-3.29,1.56-6.61,3.09-9.76,4.95a30.14,30.14,0,0,0-4.32,2.18,48.34,48.34,0,0,0-7.51,4.64,1.45,1.45,0,0,0-1,.69h0a7.79,7.79,0,0,0-3.54,4.52q-1.36,4.35-2.54,8.74c-2.88,10.76-5.18,21.66-7.39,32.57q-2.87,14.13-5.29,28.34-2.12,12.56-3.92,25.16-1.89,13.36-2.51,26.84a199.51,199.51,0,0,0,.45,25.64,156.69,156.69,0,0,0,2.83,20,87.07,87.07,0,0,0,7.6,22.28,40.51,40.51,0,0,0,9.17,12.21,41.06,41.06,0,0,0,17,8.46,28.64,28.64,0,0,0,11.35.57A37.54,37.54,0,0,0,366.27,647c5.78-2.84,10.09-7.25,13.81-12.35,2.85-3.91,5.46-8,8.82-11.51a55.37,55.37,0,0,1,11.6-9.72c4-2.42,8.07-4.87,12.63-6.28,8.72-2.69,17.43-5.23,26.7-5.14a72.79,72.79,0,0,1,13.91,1.35,46.42,46.42,0,0,1,14,5.59,42.37,42.37,0,0,1,7.62,5.27,53.86,53.86,0,0,1,6.74,7.09c2.77,3.69,5.84,7.18,7.58,11.53a16.72,16.72,0,0,0,4.21,5.83c6.11,5.9,13.62,8.61,22,9.07A85,85,0,0,0,528,647.2a80.85,80.85,0,0,0,18-3.71c2-.68,4-1.6,6-2.33a30.24,30.24,0,0,0,8.82-5.22,40.84,40.84,0,0,0,11.92-17.13c1.21-3.1,2.09-6.3,3.07-9.47a85.44,85.44,0,0,0,3.55-17.67c.4-4.65.61-9.32.69-14,.1-6.64.37-11.7-.25-18.33Z" style="fill:#fff"/><path d="M492.79,416a59.27,59.27,0,0,0-2.07-7.93,3.39,3.39,0,0,1,2.34-.26,85.37,85.37,0,0,1,9.39,1.78c2.46.5,4.89,1.22,7.46,1.06.24,0,.51.19.76.29,0,.84-.78.74-1.22.87-5,1.49-9.94,3.06-14.92,4.59C493.84,416.65,493.22,416.83,492.79,416Z" style="fill:#fff"/><path d="M500.81,340l.8,0C501.33,340.39,501.07,340.13,500.81,340Z" style="fill:#c7b197"/><path d="M248.91,452.55a.34.34,0,0,1-.26-.39A.38.38,0,0,1,248.91,452.55Z" style="fill:#8f7b60"/><path d="M488.32,324.41a.37.37,0,0,1,.37.33A.37.37,0,0,1,488.32,324.41Z" style="fill:#9a846a"/><path d="M482.91,461a.33.33,0,0,1-.25.38A.33.33,0,0,1,482.91,461Z" style="fill:#9a846a"/><path d="M442.72,252.35a1.54,1.54,0,0,1,.13-1.11,1.07,1.07,0,0,1,.49,1.12Z" style="fill:#9f8b6f"/><path d="M476.85,184.23a.69.69,0,0,1-.74-.22A1.22,1.22,0,0,1,476.85,184.23Z" style="fill:#518a4d"/><path d="M322.64,221.57a.58.58,0,0,1,.42-.67A.85.85,0,0,1,322.64,221.57Z" style="fill:#6cac64"/><path d="M179.91,404.19l.34.34Z" style="fill:#ccb8a2"/><path d="M197.84,433.28l.32.34Z" style="fill:#cdb8a2"/><path d="M444.75,248.62a.3.3,0,0,1-.28-.31s.11-.08.18-.12l.08.45Z" style="fill:#9f896e"/><path d="M640.27,424.42a48.64,48.64,0,0,0-1.66-10.7,7.53,7.53,0,0,0-5-5.25c-7.51-2.81-15.49-4.44-23.68-6-6.2-1.18-12.83-2.14-19.73-2.87-5.85-.61-11.55-1.56-17.26-1.47-1,0-1.81-.08-2.76-.07-4.32,0-6.25,0-11,.09l-20.52,1.22c-1.7.19-2.3,1.21-3.11-.3-.42-.77-.87-1.52-1.32-2.28s-.89-1.49-1.3-2.24c-6.13-11.19-12.63-22.22-17.62-30.59-2.77-4.65-5.91-9.92-8.54-15.4l-.08-.17c-.49-1-1.91-3.93,1.1-5.74l.14-.19c1.7-2.12,2.59-4.78,2.9-8.63a52.1,52.1,0,0,0-1.77-17.08l-.05-.19a22.74,22.74,0,0,0-2.78-7.32c-2.05-3-2.91-6.48-2.71-11,.06-1.3.17-2.6.28-3.9s.2-2.47.26-3.7a54.6,54.6,0,0,0-.14-8.48c-.51-4.83-.78-9.73-1-14.47l-.08-1.34c-.17-3.06-.23-6.16-.28-9.16l-.09-3.94c0-.65,0-1.29,0-1.94,0-1.26-.05-2.52-.11-3.77a155.59,155.59,0,0,1,0-17.34,5.26,5.26,0,0,1,1.71-3.58,32,32,0,0,0,5.81-7.92,42.44,42.44,0,0,0,3.81-11.42,28.47,28.47,0,0,0,.4-11,9.54,9.54,0,0,1,.41-4.91,80.47,80.47,0,0,1,9.46-19,3.49,3.49,0,0,0,.64-1.35,42.65,42.65,0,0,1,2.1-7.33,13.56,13.56,0,0,1,.65-1.32,5.33,5.33,0,0,0,.52-1.12c.55-2.36,1.25-4.68,1.92-6.93a74.84,74.84,0,0,0,2.49-9.91c.15-1,.31-1.91.47-2.86a83.1,83.1,0,0,0,1.19-9.32c.17-3.47.12-7,.07-10.49l0-1.58a5.23,5.23,0,0,0-.81-2.76,5,5,0,0,0-3.61-2.25,5.18,5.18,0,0,0-4.2,1.33,3.57,3.57,0,0,0-.27.28,5,5,0,0,1-2.24,1.58l-2.52.81-.22-2.63c-.44-5.31-1.11-10.44-1.72-14.77l-.15-1.23a10.67,10.67,0,0,0-.82-3.67,4.71,4.71,0,0,0-3.92-2.48,4.94,4.94,0,0,0-4.35,1.82l-.11.16A4.15,4.15,0,0,1,507,98.17l-2.85,1.08v-3c0-.42,0-.83,0-1.22,0-.77,0-1.49,0-2.21a120.71,120.71,0,0,0-1.35-14.72c-.2-1.16-.27-2.3-.35-3.39a27.61,27.61,0,0,0-.29-3,3.91,3.91,0,0,0-1.76-2.61,4.94,4.94,0,0,0-3.77-.75,9.86,9.86,0,0,0-5.88,3.77l-.18.26a4.76,4.76,0,0,1-2,1.84l-2.47,1.08L485.2,70a110.6,110.6,0,0,0-2.84-13.45c-1-3.35-2.8-5.11-5.87-5.72a5.73,5.73,0,0,0-4.63,1C470.1,53,469.07,55,468,57.17l-.1.2A2.47,2.47,0,0,1,464.8,59l-1.19-.32-.29-1.2c-.22-.86-.42-1.72-.61-2.58-.43-1.82-.86-3.71-1.41-5.49l-.24-.77c-1.33-4.37-2.72-8.89-4.41-13.19a15,15,0,0,0-2.31-3.78,3.24,3.24,0,0,0-1.41-1,6.07,6.07,0,0,0-7.29,2.16,34.52,34.52,0,0,0-2.38,3.95c-.75,1.43-1.38,2.91-2.05,4.47-.46,1.07-.92,2.13-1.41,3.18l-.89,1.89L437,45.49a3.12,3.12,0,0,1-1.67-1.94c-2.41-5.93-5.21-12-8.59-18.62-.35-.68-.67-1.38-1-2.09a19.1,19.1,0,0,0-2.19-4,4.51,4.51,0,0,0-4-1.75,4.83,4.83,0,0,0-4.57,3.7c-1,2.88-1.93,5.49-3,8.21l-1.86,4.7L406,24.14c-.86-2-1.63-4-2.37-6-.44-1.18-.88-2.35-1.35-3.52-.78-2-3-3.52-4.64-3.31-2.61.32-4.08,1.44-4.77,3.62-.37,1.15-.76,2.29-1.16,3.43L390,23c-.95,2.66-1.9,5.31-2.83,8a175.65,175.65,0,0,0-4.65,17c-.25,1.06-.5,2.12-.76,3.17-.13.56-.23,1.13-.34,1.69a21.19,21.19,0,0,1-.81,3.38l-.81,2.32-2.16-1.15a4,4,0,0,1-1.59-1.64l-.09-.15c-1.33-2-2.64-4-4-6l-3.42-5.17-1.43-2.17a97.53,97.53,0,0,0-6.92-9.65c-2-2.35-3.48-3.91-5.85-4.27a5.66,5.66,0,0,0-4,.78,7.35,7.35,0,0,0-3.19,4.71c-1.42,5.75-1.83,11.82-2.22,17.69l-.79,11.11-7.32-8.37c-.68-.79-1.37-1.57-2.07-2.35l-.63-.7c-1.31-1.45-2.66-2.94-4-4.36s-4.39-1.65-6.31-.33c-1.25.86-1.82,2.14-2,4.41-.12,1.81-.17,3.67-.22,5.47l0,1.57c-.13,4.06-.2,8.2-.26,12.2,0,2-.07,4-.11,6.08a2.8,2.8,0,0,1-1.06,2.7l-1.23.92-1.26-.9c-.46-.33-.92-.66-1.37-1-1-.74-2-1.44-3-2.11A7.29,7.29,0,0,0,307,74.64a4.51,4.51,0,0,0-3.25,2.8,10.53,10.53,0,0,0-.56,6.12,19.14,19.14,0,0,1,.33,2.06c.35,3.49.7,7,1,10.46a3.69,3.69,0,0,0,.08.46,5.08,5.08,0,0,1-.14,3l-1,2.41-2.15-1.43A12.53,12.53,0,0,0,297,99a5.65,5.65,0,0,0-5.11,1.81,8,8,0,0,0-1.42,5.1c0,.42,0,.84,0,1.26a19.88,19.88,0,0,1,0,2,13.12,13.12,0,0,0,.66,5.17,25,25,0,0,1,1,4.33c.08.47.17.94.26,1.4l2.21,11.37-4-2.26a10.25,10.25,0,0,0-3.21-1.36,4.81,4.81,0,0,0-4.19.89,5.48,5.48,0,0,0-1.68,4.43,27.32,27.32,0,0,0,.85,5.09l.3,1.25a22.21,22.21,0,0,1,.72,4.47,6.42,6.42,0,0,0,.7,2.82,13.69,13.69,0,0,1,1.18,3.69l.46,2.14-2.16.37a2.41,2.41,0,0,1-1.13.06l-.18,0a9,9,0,0,1-1.24-.29c-1.45-.46-3-.23-5.13.78a4.82,4.82,0,0,0-2.6,3.2,5.5,5.5,0,0,0,.78,4.56,6.41,6.41,0,0,1,.94,2.05l.36,1.48c.27,1.13.55,2.27.85,3.4l0,.13a16.52,16.52,0,0,0,1.35,3.81,17.43,17.43,0,0,1,2.37,6.42,4.21,4.21,0,0,0,1.74,3.22,4.12,4.12,0,0,1,1.15,1.25c.38.62.78,1.24,1.17,1.85,1,1.61,2.08,3.27,3.07,5a59.2,59.2,0,0,0,9.31,12.17q1.92,1.94,3.81,3.92c.9.94,1.8,1.89,2.69,2.84,1.75,1.85,3.54,3.76,5.36,5.57a53.53,53.53,0,0,1,4.54,5.13,7.22,7.22,0,0,1,1.82,4.95,26.15,26.15,0,0,0,.27,4.68c.07.57.14,1.13.2,1.7a23.28,23.28,0,0,0,1.8,7.79,34.69,34.69,0,0,0,7.49,10.43,9.85,9.85,0,0,0,4.56,2.64,3.79,3.79,0,0,1,3.17,2.93c.12.61.26,1.22.4,1.82.23,1,.46,2,.62,3.07,1.08,7.27,2.44,14.61,4,21.8a135.63,135.63,0,0,1,3.07,21.24c.33,5.54.58,11.17.83,16.61l.24,5.41a83.3,83.3,0,0,0,1.36,13.45c.71,3.43,1.45,7,3.43,9.87a6.58,6.58,0,0,1,.79,6.4c-.09.21-.16.43-.23.65s-.13.39-.2.58c-.7,2-1.39,3.93-2.09,5.9-1.58,4.44-3.2,9-4.86,13.54-1.18,3.23-2.33,6.48-3.48,9.73-2.33,6.59-4.73,13.4-7.45,20A109.85,109.85,0,0,1,320.79,421a252.74,252.74,0,0,1-20.87,28.67,49.15,49.15,0,0,1-11.93,11c-2.3,1.4-4.68,2.85-7.27,4.11l-1.8.87-1-1.76a42.57,42.57,0,0,0-3.36-5.05l-.09-.12a33.28,33.28,0,0,0-9.17-8.75l-.3-.18a16.81,16.81,0,0,0-3.85-2,13.91,13.91,0,0,0-7.28-.16,4.22,4.22,0,0,1-5.13-3.11,6.08,6.08,0,0,0-.84-1.64l-.11-.18-1.78-2.81c-.89-1.4-1.78-2.8-2.65-4.21-.18-.29-.37-.58-.56-.87a16.37,16.37,0,0,1-2.09-4.06,22,22,0,0,0-2.87-5.6l-.58-.88a24.42,24.42,0,0,0-1.41-2,4.26,4.26,0,0,1-.53-4.52c1.7-4.4,2-7.63,1-10.8-.32-1-.6-2-.88-3a29.39,29.39,0,0,0-2.19-6.21,57.8,57.8,0,0,0-7.48-10.67,14,14,0,0,0-3.66-3.34,31.5,31.5,0,0,1-4.51-3l-.66-.5a2.55,2.55,0,0,0-1.19-.53,10.1,10.1,0,0,1-5.13-2.33c-1.32-1.1-2.66-2.36-4.23-3.95l-.1-.11a8.64,8.64,0,0,1-2.77-4.49l-.13-.17-.23-.33c-1.24-1.84-3.11-2.91-5.53-3.95-7.19-3.06-14.4-2.87-22.06.59a38.62,38.62,0,0,0-10.6,7.43,16.1,16.1,0,0,0-4.44,6.33,18.93,18.93,0,0,0-.88,8.27c.31,2.92,1,4.76,2.39,6.15a5.21,5.21,0,0,1,1.06,1.65,42.29,42.29,0,0,0,5.16,8.9,20.26,20.26,0,0,1,2.79,5.7,19.35,19.35,0,0,1,.85,5.07c0,.31.05.62.07.94a20.43,20.43,0,0,0,1,4.31,29.23,29.23,0,0,1,1.08,4.17,12.1,12.1,0,0,0,2,4.59,75.59,75.59,0,0,0,5.66,7.48,43.47,43.47,0,0,0,11.16,9.49,19.79,19.79,0,0,1,8.27,9.28l.23.53a21.68,21.68,0,0,0,3.33,6.12,5.94,5.94,0,0,1,1.17,2.07,14.42,14.42,0,0,0,3.06,5.37,2.87,2.87,0,0,1,.42,3.39c-.4.77-.78,1.56-1.16,2.34s-.76,1.57-1.16,2.35a10.18,10.18,0,0,0-.95,7.77,10.61,10.61,0,0,0,5.44,6.94,4.45,4.45,0,0,1,2.35,3.19l.08.42a15.17,15.17,0,0,0,1.81,5.36,17.08,17.08,0,0,1,2,4.8,10.24,10.24,0,0,0,1.58,3.28,17.21,17.21,0,0,0,3.4,3.62c1.54,1.22,3.65,2.9,4.07,5.89a1.94,1.94,0,0,0,.21.27l.73,1c.79,1,1.53,2,2.35,2.9a3.94,3.94,0,0,0,1.78,1.24,41.3,41.3,0,0,0,4.87,1.05c2.54.33,5.07.43,7.75.54l1.35.05a4.8,4.8,0,0,1,4,1.94c.45.66.94,1.29,1.47,2,.7.91,1.44,1.84,2.09,2.88,3.17,5.09,6.64,10.09,10.29,14.87a44.26,44.26,0,0,0,10.14,10.1,15.63,15.63,0,0,0,9.33,2.73c3.57-.08,6.67-.43,9.32-2.29l3-1.75a12.84,12.84,0,0,0,1.34-1.43,28.68,28.68,0,0,0-.18,6.06h0a87.4,87.4,0,0,0-.48,10.73c.08,5.87.43,11.89,1,17.9.58,5.77,1.28,11.93,2.46,17.9a86,86,0,0,0,4.65,16.65c4,9.59,9,17.2,15.14,23.26a29.14,29.14,0,0,0,9.08,6.4c.84.35,1.67.73,2.5,1.11a34.76,34.76,0,0,0,5.35,2.12,23.61,23.61,0,0,1,3,1.1,22.6,22.6,0,0,0,2.62.95,24.53,24.53,0,0,0,4,.56l.88.08a42.35,42.35,0,0,0,11.39-.47l.85-.14a14.87,14.87,0,0,0,4.13-1.08,23,23,0,0,1,5.56-2,7.1,7.1,0,0,0,2.33-.85,105,105,0,0,0,10.07-7,18.46,18.46,0,0,0,1.58-1.42,52.07,52.07,0,0,0,6.87-8.65,66.24,66.24,0,0,1,14.43-15.82,45.24,45.24,0,0,1,18.55-8.85,87.08,87.08,0,0,1,9.42-1.41,95,95,0,0,1,17.08-.7,28.84,28.84,0,0,1,12.09,3.61c6.49,3.57,11.95,9,17.19,17a51.62,51.62,0,0,1,2.62,4.65,48,48,0,0,0,2.35,4.21l.42.65a18.83,18.83,0,0,0,3.94,4.88l2,1.54c.91.67,1.82,1.35,2.71,2.06a23.29,23.29,0,0,0,5.66,3.19A15.88,15.88,0,0,0,501,653c.72.14,1.46.3,2.23.52a47,47,0,0,0,12,1.8,114.34,114.34,0,0,0,20.07-1,91.12,91.12,0,0,0,9.88-1.92c2.44-.65,4.91-1.41,7.3-2.15l3.65-1.11a30.16,30.16,0,0,0,11-5.79,39.08,39.08,0,0,0,4.7-5c.49-.58,1-1.17,1.5-1.75a56.8,56.8,0,0,0,10.4-17c2.57-6.68,4.07-13.63,5.63-21.37a118.09,118.09,0,0,0,1.9-15.67l0-.33A89.15,89.15,0,0,0,591.5,570c-.2-2.81-.4-5.35-.67-8l-.23-2.31h7.83c3.23,0,6.57,0,9.85,0,2.62,0,4.33-.94,5.38-2.83.25-.45.46-.91.68-1.37l.87-1.93c.52-1.17,1-2.34,1.61-3.49a126.18,126.18,0,0,0,6.75-16.63c3.91-12.34,7-23.58,9.43-34.35,1.66-7.39,3-15,4.13-22.14a226.87,226.87,0,0,0,2.6-23.62c.37-6.44.54-12.85.69-19.39C640.49,430.71,640.44,427.52,640.27,424.42Zm-338.1,95.07a13.83,13.83,0,0,1-.47,2.22c0,.38,0,.77,0,1.16-.33,2-.63,4-.87,6-.13,1-.22,2-.3,3.07a34.49,34.49,0,0,0-3.38-7.25c0-.14-.08-.29-.11-.43l-1.86-3.85c-1.12-2.74-1.17-3.32-2.32-5.83-3.68-8-8.79-15.6-13.46-23.27l-1.32-2.17,2.16-1.34a170.48,170.48,0,0,0,26.47-20.4l.46-.42.61-.17a2.81,2.81,0,0,1,3,.87h0a2.91,2.91,0,0,1,.59,2.41c-.51,2.48-1,4.89-1.52,7.31-1.13,5.37-2.29,10.93-3.36,16.41C304.58,503.6,303.21,511.77,302.17,519.49ZM580,577.68c-.08,4.67-.29,9.34-.69,14a85.44,85.44,0,0,1-3.55,17.67c-1,3.17-1.86,6.37-3.07,9.47a40.84,40.84,0,0,1-11.92,17.13,30.24,30.24,0,0,1-8.82,5.22c-2,.73-3.93,1.65-6,2.33a80.85,80.85,0,0,1-18,3.71,85,85,0,0,1-12.14.48c-8.34-.46-15.85-3.17-22-9.07a16.72,16.72,0,0,1-4.21-5.83c-1.74-4.35-4.81-7.84-7.58-11.53a53.86,53.86,0,0,0-6.74-7.09,42.37,42.37,0,0,0-7.62-5.27,46.42,46.42,0,0,0-14-5.59A72.79,72.79,0,0,0,439.83,602c-9.27-.09-18,2.45-26.7,5.14-4.56,1.41-8.59,3.86-12.63,6.28a55.37,55.37,0,0,0-11.6,9.72c-3.36,3.53-6,7.6-8.82,11.51-3.72,5.1-8,9.51-13.81,12.35a37.54,37.54,0,0,1-10.95,3.68,28.64,28.64,0,0,1-11.35-.57,41.06,41.06,0,0,1-17-8.46,40.51,40.51,0,0,1-9.17-12.21,87.07,87.07,0,0,1-7.6-22.28,156.69,156.69,0,0,1-2.83-20,199.51,199.51,0,0,1-.45-25.64q.63-13.47,2.51-26.84,1.78-12.61,3.92-25.16,2.4-14.22,5.29-28.34c2.21-10.91,4.51-21.81,7.39-32.57q1.17-4.4,2.54-8.74a7.79,7.79,0,0,1,3.54-4.52h0a1.45,1.45,0,0,1,1-.69,48.34,48.34,0,0,1,7.51-4.64,30.14,30.14,0,0,1,4.32-2.18c3.15-1.86,6.47-3.39,9.76-4.95a88.24,88.24,0,0,1,10.8-4.68,31.54,31.54,0,0,1,8.11-1.33c.55,0,.79.16.87.74a28.91,28.91,0,0,1,.29,5.73,56.27,56.27,0,0,0,2.2,19.87c5.73,18.69,17.71,31.79,35.85,39.09a55.32,55.32,0,0,0,25.11,3.83,77.48,77.48,0,0,0,14.14-2,37.23,37.23,0,0,0,10.42-4.65,82.05,82.05,0,0,0,15.49-12.17,6.45,6.45,0,0,1,.66-.51c.55.14.51.77.67,1.47.7,3,.79,5.9,1.49,8.86,2.47,10.37,4.77,21.07,8.75,31,2.37,5.9,4.58,12.52,7.53,18.2,3.78,7.27,7,14,11.72,20.65,1.85,2.62,4.43,6.48,6.3,9.1.85,1.19,4.5,3.24,6,3.24,10.48-.05,21,.12,31.5.13h27.26C580.38,566,580.11,571,580,577.68Z" style="fill:#231f20"/><path d="M487.11,426.79a52.92,52.92,0,1,1-52.55-53A53,53,0,0,1,487.11,426.79Z" style="fill:#e91d27"/><path d="M492.79,416a59.27,59.27,0,0,0-2.07-7.93,3.39,3.39,0,0,1,2.34-.26,85.37,85.37,0,0,1,9.39,1.78c2.46.5,4.89,1.22,7.46,1.06.24,0,.51.19.76.29,0,.84-.78.74-1.22.87-5,1.49-9.94,3.06-14.92,4.59C493.84,416.65,493.22,416.83,492.79,416Z" style="fill:#fff"/><path d="M500.81,340l.8,0C501.33,340.39,501.07,340.13,500.81,340Z" style="fill:#c7b197"/><path d="M248.91,452.55a.34.34,0,0,1-.26-.39A.38.38,0,0,1,248.91,452.55Z" style="fill:#8f7b60"/><path d="M488.32,324.41a.37.37,0,0,1,.37.33A.37.37,0,0,1,488.32,324.41Z" style="fill:#9a846a"/><path d="M482.91,461a.33.33,0,0,1-.25.38A.33.33,0,0,1,482.91,461Z" style="fill:#9a846a"/><path d="M442.72,252.35a1.54,1.54,0,0,1,.13-1.11,1.07,1.07,0,0,1,.49,1.12Z" style="fill:#9f8b6f"/><path d="M476.85,184.23a.69.69,0,0,1-.74-.22A1.22,1.22,0,0,1,476.85,184.23Z" style="fill:#518a4d"/><path d="M322.64,221.57a.58.58,0,0,1,.42-.67A.85.85,0,0,1,322.64,221.57Z" style="fill:#6cac64"/><path d="M179.91,404.19l.34.34Z" style="fill:#ccb8a2"/><path d="M197.84,433.28l.32.34Z" style="fill:#cdb8a2"/><path d="M444.75,248.62a.3.3,0,0,1-.28-.31s.11-.08.18-.12l.08.45Z" style="fill:#9f896e"/><path d="M232.59,422l-2.14-6c-7.9-12-15.45-26.14-23.42-35.57-1.36-1.34-2.73-2.67-4.05-4s-2.57-2.51-3-4.18a4.15,4.15,0,0,0-2.41-2.78A20,20,0,0,0,185,367.34a25.29,25.29,0,0,0-12.57,6h0a20,20,0,0,0-6.28,6.83,4.29,4.29,0,0,0-.61,2.85,2.83,2.83,0,0,1,0,.58L165.4,390a3.25,3.25,0,0,0,.23,1.27l5.9,11.57a6.91,6.91,0,0,0,1,1.33L179,413a3.7,3.7,0,0,0,.51.67c7.85,8,9.89,15.19,14.49,23l10.53,11.62a17.82,17.82,0,0,1,2.11,4.29,3.18,3.18,0,0,0,1.91,2.14h0a5.3,5.3,0,0,0,.74,1.6c.89,2.11,1.77,4.23,2.65,6.34a8.15,8.15,0,0,0,1,1.73,1.25,1.25,0,0,0,1.72.48,40.39,40.39,0,0,0,4.12-1.89q8.29-4.47,16.22-9.55a49.48,49.48,0,0,0,8.57-6.77c.56-.57,1.88-1.79,1.47-2.4Zm-16.54,5.87a1.64,1.64,0,0,1-2.31.67,14,14,0,0,1-4.08-2.94,56.54,56.54,0,0,1-13.16-18,38.24,38.24,0,0,1-3.29-9.71c-.09-.55-.1-1.12-.15-1.67a5.78,5.78,0,0,1,.36-2.33,2.15,2.15,0,0,1,2.7-1.38,10.63,10.63,0,0,1,4.53,2.82,58.92,58.92,0,0,1,10.16,13.19,56.94,56.94,0,0,1,5.52,11.74,14.52,14.52,0,0,1,.79,4.29A6.32,6.32,0,0,1,216.05,427.89Z" style="fill:#a0a2a4"/><polygon points="488.33 325.1 488.32 325.09 488.32 325.09 488.33 325.1" style="fill:#a0a2a4"/><path d="M504.86,324.28a29.47,29.47,0,0,0-3.81-11.42,16.15,16.15,0,0,1-2.18-5.44c-.29-1.42-.48-2.87-.72-4.31-.54,1-.49,2.16-.88,3.21-.65,1.74-1.32,2.12-3.06,1.59-9-2.81-18.12-5.25-27.29-7.48a85.17,85.17,0,0,0-14.61-2.33,97.59,97.59,0,0,0-12-.39h0c-6.93-.06-13.86-.09-20.79,0l-.24-.22c-1.78-.76-3.56,0-5.34.05a108.89,108.89,0,0,0-17.45,1.86,105.59,105.59,0,0,0-25.61,8.45c-5.31,2.46-10.64,4.95-15.36,8.47-3.92,2.91-7,6.48-7.31,11.63a37.58,37.58,0,0,0,1.18,12.57,20.08,20.08,0,0,0,1.76,5.09c1.19,2,2.44,2.17,4,.42a53.25,53.25,0,0,0,4.68-6.4,27.29,27.29,0,0,1,9.26-9.18c7.7-4.56,16.23-6.93,24.83-9,10.25-2.41,20.76-2.25,31.19-2.7,3.81-.16,7.64.11,11.47.22,7.25.2,14.49.48,21.72,1.06a197.37,197.37,0,0,1,21.56,2.8c3,.58,6.23.64,8.46,3.24a.7.7,0,0,1,.37.33c2.29,2.63,3.9,5.72,5.77,8.63,1.24,1.93,2.46,3.87,3.77,5.76a1.61,1.61,0,0,0,2,.77l.61.06a.85.85,0,0,0,.79,0h0a2.56,2.56,0,0,0,2.7-1.85,15.91,15.91,0,0,0,1.25-5.19A56.58,56.58,0,0,0,504.86,324.28Z" style="fill:#a0a2a4"/><path d="M296.7,538.68a29.61,29.61,0,0,0-2.27-5.26c-5-9-10-18-15.1-26.92-2.73-4.78-5.72-9.41-8.07-14.4,0-.32,0-.64,0-1,.82-1.87.79-1.84-.56-3.11a14,14,0,0,1-2.39-2.58c-1-1.6-2.1-3.17-3.17-4.74A3.88,3.88,0,0,0,263.4,479h0a1.72,1.72,0,0,0-2.38-.33c-2.08,1.11-3.82,2.71-5.8,4h0a2,2,0,0,0-.49.09,27.84,27.84,0,0,1-14.62,2c-2.7-.31-5.3-.89-7.47-2.7-1.44-2-1.42-2.51.2-4.48a1.64,1.64,0,0,0,.16-.29h0c2.25-1.66,2.25-1.66,2.52-2.83-2.18,1.1-4.51,1.35-6.58,2.37-.4.2-.76.48-1.16.69-.8.41-.81.91-.35,1.63a12.92,12.92,0,0,0,4,3.62,28.68,28.68,0,0,0,13.38,4.21,22.65,22.65,0,0,1,10.51,3.26h0a6.54,6.54,0,0,1,1.7,7,5.49,5.49,0,0,0-.88,1.61c-1,2.15-.46,3.26,1.94,3.86h0l1.37,1h0c.1.47.5.73.77,1.08a4.85,4.85,0,0,1,.68,4.48,14.73,14.73,0,0,1-.91,2c-.57,1.25-1.79,2-2.31,3.28h0A15.06,15.06,0,0,0,255,516.5a18.88,18.88,0,0,1-6.63,2.89,17,17,0,0,1,4.11,1.79,4.83,4.83,0,0,1,2,1.82c.89,1.89,2.47,3.28,3.57,5,1.85,3.12,3.94,6.09,6,9.08a49.64,49.64,0,0,0,4.11,5.46,23.1,23.1,0,0,0,2.71,3.43,25.39,25.39,0,0,0,6.46,5.81h0a9.61,9.61,0,0,0,9.57,1.38,16.86,16.86,0,0,0,9.75-9.72A6.86,6.86,0,0,0,296.7,538.68Z" style="fill:#a0a2a4"/><path d="M250.53,452.74a2.12,2.12,0,0,1-1.62-.18h0a.51.51,0,0,1-.26-.39c-.14-.49-.06-1.23-1-.73-.71.4-1.45.75-2.18,1.12a4.92,4.92,0,0,0-2,.86,12.3,12.3,0,0,0-1.22.56c-2.91,1.78-5.86,3.49-8.88,5.08l-3.73,1.66-2.34.71h0a6.85,6.85,0,0,0-2.48.9h0a3.75,3.75,0,0,0-1.58.76,2,2,0,0,0-1.15.85h0a1.67,1.67,0,0,0-.45.2c-.12.09-.31.31-.28.37.18.3.38.05.55,0a2.18,2.18,0,0,0,.35-.33h0a2.46,2.46,0,0,0,1.32-.72,7.42,7.42,0,0,0,1.83-1h0a6.09,6.09,0,0,0,2.24-.69h0a7.72,7.72,0,0,1,6,2.37h0a1.2,1.2,0,0,0,.39.72,14.82,14.82,0,0,1,2.67,4.84,5.41,5.41,0,0,1,.07,3.92,28.47,28.47,0,0,0,4.33-4.81h0a27.18,27.18,0,0,0,4.74-7.08,5.74,5.74,0,0,0,1.28-2.31,16.08,16.08,0,0,1,4.37-5.85c.31-.27.85-.32.89-.89A4.73,4.73,0,0,0,250.53,452.74ZM237.72,468.5l-.05,0h.05v0Z" style="fill:#a0a2a4"/><path d="M496.82,280.5a14.42,14.42,0,0,0-.44-3.16,2.66,2.66,0,0,0-2-2.06l-2.86-.16a3.24,3.24,0,0,0-2.15.12,70.21,70.21,0,0,1-19.27,2c-1.38,0-1.89-.52-1.89-1.89,0-6.82-.18-13.63-.24-20.44-.09-10.53-.63-21.06-.43-31.6,0-2.2-.3-2.54-2.39-3.3a42.52,42.52,0,0,1-6.48-2.45,44.6,44.6,0,0,1,9.45,2.48c2.81.95,2.81.95,2.82,3.9q0,24.77,0,49.53c0,2.84,0,1.94,2.89,1.93A64.25,64.25,0,0,0,493,272.67a2.23,2.23,0,0,0,1.61-2.3c.1-1.93-.29-3.82-.32-5.73-.12-8.33-.1-16.67-.27-25-.18-8.84-.38-17.68-.44-26.53,0-2.08-.35-2.47-2.37-3.11-19.88-6.27-40.34-8.78-61.1-9.24a185.77,185.77,0,0,0-18.73.67,104.34,104.34,0,0,0-22.91,4.11,168.4,168.4,0,0,0-28.55,12.22,94,94,0,0,0-20.72,14.77c-.86.82-1.77,1.61-1.82,2.93.29,3.2.62,6.4.76,9.62.11,1.16.25,2.32.39,3.48,0,3.19.08,6.37-.07,9.56a29.26,29.26,0,0,0,1,6.77c.3,2.72.88,5.39,1.43,8.06a3.88,3.88,0,0,1,.7,1.51c1.15,4.19,1.94,8.46,3.07,12.64a37.67,37.67,0,0,0,1.87,5.61c.74,1.63,1.07,1.45,2.84,1.22a32.34,32.34,0,0,0,4-.7c5.43-1.55,10.21-4.16,15.49-6.13,2.67-1,3.37-.3,2.68-3-1.64-6.6-3.31-13.21-4.78-19.85-1.57-7.09-3.27-14.15-4.26-21.37a7.4,7.4,0,0,1,3.24-7.55,99.1,99.1,0,0,1,25.25-13.51c7.07-2.68,14.19-5.2,21.77-6a10,10,0,0,1,4.09.19,5.08,5.08,0,0,1-1.88.4,32.82,32.82,0,0,0-9,1.54,140.56,140.56,0,0,0-30.7,12.69c-3.3,1.83-6.6,3.69-9.22,6.5a4.21,4.21,0,0,0-1.28,3.51,149.5,149.5,0,0,0,2.53,15.17c2,9.81,4.44,19.54,7,29.22.63,2.37.6,2.37-1.78,3.25-7.56,2.79-15.2,5.37-22.8,8-2.14.76-2.31,1-2.33,3.3s0,4.74,0,7.1a31.14,31.14,0,0,0,.44,6.4c.34,1.73,1.08,2.21,2.77,1.69a23,23,0,0,0,4.17-1.82c3.36-1.84,6.61-3.87,10.13-5.43,6.19-2.73,12.53-5.06,18.85-7.45a82.75,82.75,0,0,1,30.28-5.27c11.6.09,23.21-.34,34.81.28a102.74,102.74,0,0,1,16.4,2.08c5.62,1.23,11.16,2.76,16.75,4.08,1,.24,2,.73,3.13.27l.06-.13h0a5.48,5.48,0,0,0,2.11.53,42.85,42.85,0,0,0,6.26,1.16c1.47.09,1.8-.19,2.09-1.58a56.51,56.51,0,0,0,1-9.17C496.92,288.37,496.79,284.43,496.82,280.5ZM339.57,264.73c0-.1,0-.19.09-.21Zm78.2-3.14c3.28.76,5.29,3.62,4.52,6.63A6,6,0,0,1,417.77,261.59Zm-4.29-2.92c1.19,1.31,2.33,2.21,2.89,3.6a5.21,5.21,0,0,1,.07,3.9c-.31.8-.56.85-1.23.34a5.83,5.83,0,0,1-2.11-5A22.33,22.33,0,0,1,413.48,258.67Zm-3.72-2.89A10.49,10.49,0,0,1,412,260a4.68,4.68,0,0,1-.58,3.54c-.38.66-.75.76-1.32.23a4.92,4.92,0,0,1-1.33-3.49A11.19,11.19,0,0,1,409.76,255.78Zm-4.38-1.95a15.83,15.83,0,0,1,1.38-3.57c1.28,2.11,2.2,4,1.5,6.33-.27.89-.61,2-1.51,2s-1.05-1.14-1.34-1.94A4.8,4.8,0,0,1,405.38,253.83Zm-2-1.06c-1.95-1.92-.5-5.93,1.95-8C406.83,248.84,405.7,252,403.39,252.77Zm1.75-9.1c-.6.62-1.35,1.57-2.25,1.07s-.5-1.65-.34-2.49a5.52,5.52,0,0,1,1.85-2.94,6.65,6.65,0,0,1,2.4-1.64C406.88,239.9,406.72,242,405.14,243.67Zm-2.8-7.92A9,9,0,0,1,406,231c.2,2,.33,3.63-.37,5.23a4.58,4.58,0,0,1-2.25,2.38c-.54.26-.8.19-1-.39A3.81,3.81,0,0,1,402.34,235.75Zm-3.88.8a14.32,14.32,0,0,1,.39-1.72,8.43,8.43,0,0,1,3,5,3.55,3.55,0,0,1-.12,1.8c-.47,1.5-.9,1.62-2,.43C398.3,240.5,398.27,238.54,398.46,236.55Zm-1.12,5.86c1.68,1.06,3.07,2,3.85,3.69a5.9,5.9,0,0,1,.46,3.09c0,.55-.32.81-.91.63a3.81,3.81,0,0,1-2.28-1.86A10.29,10.29,0,0,1,397.34,242.41Zm-.08,8.07c.4-.42.95.06,1.4.21a7.62,7.62,0,0,1,2.43,1.1,4.68,4.68,0,0,1,2.16,4.25,5,5,0,0,1-4.33-1.94,8,8,0,0,1-1.33-2.31C397.43,251.35,396.82,250.93,397.26,250.48Zm1.62,7.5c-.33-.54-.16-.86.48-.87.95,0,1.91-.07,2.86,0,2,.15,3.22,1.37,4.25,3.09A6.27,6.27,0,0,1,398.88,258Zm8.49,4.41c.79.43,1.86,1,1.64,1.89s-1.39.94-2.33.93c-2.24,0-3.9-1.17-5.8-2.83C403.29,261.74,405.34,261.28,407.37,262.39Zm1.91,6.12a12.32,12.32,0,0,1-3.55-1.58,9.91,9.91,0,0,1,4.58-1.51,5.49,5.49,0,0,1,3.55,1.26c.5.37.34.7-.12,1.05A5.3,5.3,0,0,1,409.28,268.51Zm2.44,1.71c2.57-2.43,6.16-3.22,8.08-1.12C418.19,271.54,414.21,272.09,411.72,270.22Zm6.2,2.83c2.16-2.46,4-5,7.67-3.67C425.26,272,422.2,273.54,417.92,273.05Zm5-8.85c1.81,0,3.3-.22,4.77.3a5,5,0,0,1,2.46,1.93c.67,1,.42,1.49-.76,1.72a4.22,4.22,0,0,1-2.29-.34A8.67,8.67,0,0,1,423,264.2Zm7.61,7.92a7.26,7.26,0,0,1-3.51,1.48,20.94,20.94,0,0,1-2.2.17c1-1.85,2-3.59,4.11-4.27,1-.34,2.43-.68,3,.2S431.28,271.43,430.56,272.12Zm17.26.41a3.05,3.05,0,0,1-.2.46c-.38.59-.5,1.46-1.42,1.5-.58,0-1-.79-1.15-2a6,6,0,0,1,.39-3.15,22.29,22.29,0,0,0,2.2-9.28c0-4-.57-7.9-2.88-11.33.29,4,1,7.94,1.05,11.95a18.35,18.35,0,0,1-1,5.44c-.13.45-.29.9-.84.91s-.65-.53-.84-.92c-1.09-2.28-.89-4.7-.64-7.1a35.72,35.72,0,0,1,.78-3.78,6,6,0,0,0,.07-2.83c-.2-.27-.4-.83-.62,0s-.47,1.62-.75,2.42a.82.82,0,1,1-1.55-.49,10,10,0,0,0,.28-3.35,9,9,0,0,0-5.37-7.61,2.87,2.87,0,0,0-1.16-.11c-1.24,0-2.48,0-3.72,0a4.65,4.65,0,0,1-4.65-4.62c-.09-1.91,0-3.83,0-5.74s-.35-2.11-2.21-2.15c-.73,0-1.46,0-2.18,0,0-.18-.09-.33,0-.39a5.82,5.82,0,0,0,1.47-3.94,3.91,3.91,0,0,1,2.9-3.59,3.82,3.82,0,0,1,4,.63,4.54,4.54,0,0,1,1.35,4.17,2.66,2.66,0,0,0,1.63,2.82c.34.19.71.33,1.07.49a8.11,8.11,0,0,1,4,3.77c.68,1.35,1.36,2.71,2.07,4.06a23.91,23.91,0,0,0,4.78,6.5c4.15,3.92,5.83,8.85,5.94,14.4A31.13,31.13,0,0,1,447.82,272.53Z" style="fill:#a0a2a4"/><path d="M213.13,421.55c0,1.57-.91,2.1-2,1.39a13.13,13.13,0,0,1-2.61-2.21,62.52,62.52,0,0,1-11.34-18.94,20.6,20.6,0,0,1-.76-3,1.12,1.12,0,0,1,.41-1.32,1.45,1.45,0,0,1,1.55.06,8.64,8.64,0,0,1,2,1.65,60.35,60.35,0,0,1,12.07,20C212.8,420,213,421,213.13,421.55Z" style="fill:#b2842d"/><path d="M232.39,407.38c0,1.42-.82,1.91-1.78,1.26a11.86,11.86,0,0,1-2.36-2A56.25,56.25,0,0,1,218,389.52a19.11,19.11,0,0,1-.7-2.7,1,1,0,0,1,.38-1.19,1.29,1.29,0,0,1,1.4.05,7.91,7.91,0,0,1,1.82,1.49,54.61,54.61,0,0,1,10.91,18.07C232.09,406,232.25,406.84,232.39,407.38Z" style="fill:#b2842d"/><path d="M190.36,436.54c0,1.27-.73,1.71-1.59,1.12a10.38,10.38,0,0,1-2.13-1.79,50.94,50.94,0,0,1-9.21-15.39,16.64,16.64,0,0,1-.62-2.43.92.92,0,0,1,.34-1.07,1.17,1.17,0,0,1,1.26,0,6.82,6.82,0,0,1,1.63,1.35,48.82,48.82,0,0,1,9.81,16.24A18.31,18.31,0,0,1,190.36,436.54Z" style="fill:#b2842d"/><path d="M497.55,220.12c.24,1,.31,2.22,1.24,3h0a1.46,1.46,0,0,0,.16.19c.8-.79,1.65-1.54,2.4-2.37A30.39,30.39,0,0,0,508,207.8a25.57,25.57,0,0,0,.72-11.37l-2.09-4.66c-1.36-.89-.18,0-1.5-.8a13.35,13.35,0,0,0-1.18-.63,50.12,50.12,0,0,0-7-2.65.35.35,0,0,0-.3,0,3.1,3.1,0,0,0-1.19-.32l-13-3.14c-1.24-1.1-2.81-.75-4.26-.91a2.55,2.55,0,0,1-1.25-.13,1.6,1.6,0,0,1-.74-.22,35.66,35.66,0,0,1-6.18-.78,177.67,177.67,0,0,0-20.32-1.8c-8.72-.29-17.45-.38-26.18.13-4.43.26-8.86.56-13.28,1.06-5.48.61-10.9,1.5-16.3,2.6-2.42.49-4.79,1.23-7.26,1.52l-.24,0a3.21,3.21,0,0,0-1.44.16c-4.2,1.19-8.41,2.36-12.49,3.93-5.2,2-10.36,4.08-15.36,6.56a182.82,182.82,0,0,0-29.86,19,15.63,15.63,0,0,0-4.31,4.23c-.17.28-.33.57-.49.86s-.16.29-.23.44l-.08.17a10.43,10.43,0,0,0-1.07,2.17c-.19.4-.26.85-.73,1.06a27.66,27.66,0,0,0,.45,6.42h0c-.16,1.62.68,3,1.16,4.44h0a18.94,18.94,0,0,0,4.15,7.17c1.79,1.94,3.59,3.76,6.36,4.38a6,6,0,0,1,3.79,2.58c.86-.14.57-.8.53-1.29a17,17,0,0,0-.56-3.4c-.71-3-1.15-6-1.83-8.94a2.38,2.38,0,0,1,.93-2.52c2.62-2.23,5.06-4.65,7.71-6.84,8.32-6.89,17.81-11.82,27.53-16.37a122.28,122.28,0,0,1,16.7-6.44c10.17-3,20.68-3.93,31.2-4.36a234.31,234.31,0,0,1,32.55,1,198.31,198.31,0,0,1,27.51,4.45c4.15,1,8.27,2.21,12.32,3.59a7.22,7.22,0,0,1,5.29,6c.24,1.39.51,2.78.87,4.14Zm7.38-27.34h-.06l0,0Zm-.77-1.15.12.11h0l-.15-.05Zm1.43,12,0,0v0Z" style="fill:#a0a2a4"/><path d="M541.84,545.4c-4.33.18-8.5-.15-13-.34a10.28,10.28,0,0,1-7.13-2.85,58.16,58.16,0,0,1-7.05-8.38c-.1-.16-.2-.32-.31-.47a4.94,4.94,0,0,1-.76-1.34,162.58,162.58,0,0,1-15.84-33.42c-1.09-3.14-1.75-6.4-2.92-9.5a4,4,0,0,1-.44-1.43,4.91,4.91,0,0,0-.15-.51c-1-4.48-2.1-9-3-13.47-1.13-5.77-2.32-11.54-3.24-17.36-.11-.71.1-1.76-1-2.07-1.3,2.28-2.65,4.54-4.12,6.72-.08.13-.16.26-.25.38l-.12.32a8,8,0,0,0,.12,2.18,285.8,285.8,0,0,0,9,35,222.69,222.69,0,0,0,10.91,27.65,93.77,93.77,0,0,0,11.94,19.38c2,2.38,3.77,5.05,5.83,7.22,1.23,1.3,2.12,2.1,3.89,2.08,7.16-.07,14.32-.11,21.47,0,10.82.15,21.62-.57,32.44-.37l28.91-.91a1.66,1.66,0,0,0,1.91-1.18c.57-1.52,1.31-3,2-4.45a141.87,141.87,0,0,0,8.22-20.65c1.23-4,2.53-8,3.51-12.14h0c.68-2.31,1.39-4.61,2-6.93,2.46-9.07,4-18.34,5.75-27.56,1.21-6.47,2-13,2.74-19.54.62-5.77,1.11-11.54,1.23-17.34.14-6.64.06-13.29.08-19.94a27.91,27.91,0,0,0-1.64-9.23h0c-.28-1.31-1.39-1.69-2.43-2.1-7-2.78-14.43-4.22-21.83-5.6-5.8-1.08-11.63-2-17.51-2.59-4.07-.43-8.15-1-12.24-1.11a227.17,227.17,0,0,0-27.86.23c-6.34.56-12.64,1.39-18.89,2.55s-12.54,2.58-18.71,4.35a15.49,15.49,0,0,0-2.71.29.82.82,0,0,1-.26.2L494,416.23a1.2,1.2,0,0,1-1.25-.19c-.11.43.25.68.36,1h0c.21,3.94.73,7.87.63,11.82l6.66-2.83a177.57,177.57,0,0,1,20.65-7.3,65.34,65.34,0,0,1,7-1.6,5,5,0,0,1,2.39.06c-.11.83-.78.93-1.3,1.15a55.12,55.12,0,0,1-7.2,2.37c-6.24,1.71-12.35,3.78-18.39,6.09-2.73,1-5.41,2.2-8.12,3.31a2.83,2.83,0,0,0-2,2.14h0c-.19,1.39-.36,2.79-.57,4.18a63.25,63.25,0,0,1-3.24,12,6.56,6.56,0,0,0-.15,3q.56,3,1,6a236,236,0,0,0,15.68,56.7c3.53,8.37,7.57,16.46,13.28,23.63a14.29,14.29,0,0,0,9.93,5.78c1.34.14,2.68.35,4,.44,7.53.46,15.07.47,22.61.66Zm-4.19-130.07a33.46,33.46,0,0,1,5.59-1.17c3.17-.46,6.36-.66,9.55-.81a2.12,2.12,0,0,1,1.88.73,122.26,122.26,0,0,1-17.61,2C537,415.43,537.35,415.43,537.65,415.33Zm18.13,45.55a3,3,0,0,1-3.3,1.32c-2-.36-4-.24-6.07-.41-4.37-.37-8.76-.52-13.14-.82a6,6,0,0,0-3.95,1.18,16.53,16.53,0,0,0-7.46,14.34,23.17,23.17,0,0,0,4.37,13.93c2.67,3.67,6.13,6.12,10.89,6.12,2.1,0,3.1-1,3.28-3.07,0-.39,0-.79.06-1.18a74.6,74.6,0,0,0,.06-8.59c0-4,0-8,0-12a12.17,12.17,0,0,1,0-1.35c.13-1.1.6-1.48,1.67-1.35,2.35.29,4.69.6,7,.91,1.4.18,2.79.39,4.18.59,1.22.18,1.29.23,1.29,1.49,0,3.1,0,6.2,0,9.3,0,5.58-.19,11.16,0,16.74.25,6.47.1,12.94.17,19.42,0,2.21-.1,2.32-2.3,2a15.06,15.06,0,0,0-2-.12c-9.45-.44-18.16-3-25.71-8.92a37.6,37.6,0,0,1-8.18-9.37,84,84,0,0,1-7.53-14.71,34.11,34.11,0,0,1-2.31-10.49c-.14-2.31-.24-4.61-.15-6.91.13-3.71.43-7.43,2.37-10.76a46.46,46.46,0,0,1,5.23-7c5.16-6,11.91-8.6,19.57-9.39,2.46-.26,4.92-.48,7.39-.59s5.06,0,7.59,0l20.79,0h1.08a14.82,14.82,0,0,1-2.55,3.81C564.07,450.2,559.87,455.5,555.78,460.88Zm35.45,4.62c.4,6,.15,11.94.4,17.91.23,5.35.11,10.71.32,16,.13,3.44.21,6.87.24,10.31,0,2-.26,2.38-2.14,3.11-4,1.56-7.91,3.25-11.95,4.64a8.39,8.39,0,0,1-.79.29c-1,.23-1.31,0-1.38-1-.21-2.92-.42-5.84-.6-8.76q-.68-10.87-1.32-21.75c-.27-4.55-.5-9.11-.77-13.66-.18-3.15-.4-6.29-.62-9.44-.08-1.1-.11-1.08-1.23-1l-10.6.82c-.51,0-1,.12-1.39-.39s.06-1.05.33-1.52a121.74,121.74,0,0,1,9.08-13c1.55-2.07,3.16-4.1,4.7-6.18a1.88,1.88,0,0,1,1.7-.85q16.06,0,32.12,0c.27,0,.53.05,1,.1-1.43,2-2.78,3.74-4.06,5.57-3.58,5.14-7.6,9.92-11.65,14.69A5.36,5.36,0,0,0,591.23,465.5ZM624,456.91a19.4,19.4,0,0,0,0,2c-.11,2.92-.31,5.83-.62,8.73-.16,1.51-.24,3-.36,4.53-.28,3.36-.69,6.7-1.14,10-.76,5.55-1.75,11.07-2.91,16.56-1.21,5.72-2.69,11.36-4.38,17-1.38,4.58-2.89,9.11-4.43,13.63a109.48,109.48,0,0,1-4.32,10.8,9.92,9.92,0,0,1-1.89,3c-.31.31-.58.74-1.14.46a1.14,1.14,0,0,1-.66-1.25,8.43,8.43,0,0,1,.51-1.78,303.54,303.54,0,0,0,10.25-30.51A171.5,171.5,0,0,0,617,493.22c.6-3.31,1.15-6.63,1.57-10,.39-3.17.89-6.32,1.26-9.49.31-2.73.51-5.48.75-8.21.32-3.47.63-6.93.95-10.39,0-.11,0-.22,0-.34-.13-2.59.42-5.15.36-7.74-.08-3.49.54-7,.32-10.45a93.14,93.14,0,0,0-.88-9.71c-.25-1.44-.31-2.9-.46-4.35s-.46-1.81-1.9-2.12c-5-1.06-10-2.18-15-3.21-4.67-1-9.35-1.85-14.06-2.57l-13-2a1.89,1.89,0,0,1-1.34-.74c2.59.12,4.93-.16,7.27.27,1.38.26,2.79.21,4.19.37q5.34.62,10.65,1.5a161,161,0,0,1,16,3.32c3,.83,6.05,1.72,9.06,2.63,1.49.44,1.5.48,1.5,2q0,7.69,0,15.38v8.43C624.28,449.49,624.56,453.21,624,456.91Z" style="fill:#b2842d"/><polygon points="347.81 69.41 347.81 69.41 347.81 69.42 347.81 69.41" style="fill:#089347"/><path d="M528.19,118.3l-3.77,3.44a53.4,53.4,0,0,1-5.29,4.56,10.62,10.62,0,0,0-2.59,2.32,2.1,2.1,0,0,1-.63.66,3.81,3.81,0,0,0-1.84-.86,9.16,9.16,0,0,1-.08-2.28c-.37-4.43-.46-8.87-.83-13.3-.38-4.6-1-9.16-1.62-13.72-.07-.56-.19-1.11-.31-1.81-1.83,2.18-3.32,4.32-4.82,6.45a25.63,25.63,0,0,1-3.7,4.28c-1.93,1.76-3.39,1.37-4.21-1.1,0-.11-.06-.22-.08-.33a22.44,22.44,0,0,1-.63-4.6c-.06-6-.22-12-.68-18-.31-4.13-.94-8.22-1.5-12.44-1,1.19-2,2.27-2.91,3.34s-2.18,2.13-3.12,3.37a35.52,35.52,0,0,1-4.86,5.25,1.59,1.59,0,0,1-2.74-.43c-.25-.43-.39-.92-.61-1.37A15.42,15.42,0,0,1,480.9,79c-.74-2.8-1.1-5.67-1.6-8.51-.79-4.42-1.38-8.89-2.58-13.23a8.53,8.53,0,0,0-1.11-2.59,1.32,1.32,0,0,0-2.33-.11A13.61,13.61,0,0,0,472,56.67c-1,2-1.91,4-3,6a31.56,31.56,0,0,0-2.21,3.69,16.88,16.88,0,0,1-3.2,4.79c0,.75.36,1.43.07,2.27a19.76,19.76,0,0,0-.82,8.4c.31,3.21.45,6.44.9,9.64.11.77-.23,2,.83,2.08s1-1.16,1.23-1.91q2.71-8.79,4.71-17.75a3.49,3.49,0,0,1,1.15-2.4,3.46,3.46,0,0,1,.4,2.24c-.17,1.33-.21,2.67-.37,4a270.69,270.69,0,0,1-7.26,36.66c-1.06,4-2.92,7.73-3.92,11.7-3.14,12.54-5.6,25.21-6.14,38.17-.07,1.54,0,3.21-1.21,4.42a4.06,4.06,0,0,0-1,3.53c.27,2.43.06,2.79-2.31,3a113.12,113.12,0,0,1-16.67.12,38.85,38.85,0,0,1-5.15-.41c-1.33-.24-1.68-.86-1.3-2.08.49-1.6,1-3.19,1.6-4.75,6.18-15.8,9.1-32.31,10.68-49.11.75-7.93.73-15.89.7-23.85a130.59,130.59,0,0,0-1.22-16.29c-.74-5.75-2.29-11.35-3.22-17.06a8,8,0,0,1-.19-1.82,1.27,1.27,0,0,1,1.54-1.33A1.15,1.15,0,0,1,437.85,60a17.79,17.79,0,0,0-.07,3.5A90.38,90.38,0,0,0,440.13,77a9.91,9.91,0,0,0,.81,2.37c.65,1.23,1.51,1.27,2.24.1a7.85,7.85,0,0,0,.95-2.66,151.9,151.9,0,0,0,3.29-24.12,8.79,8.79,0,0,1,.77-4.08.63.63,0,0,1,.52.55A11,11,0,0,1,449,51c.64,6,1,12.05.12,18.13-1,6.81-1.4,13.72-2.24,20.57-1.06,8.62-2.51,17.17-4.14,25.71-2.91,15.23-3.23,30.73-4.4,46.14-.26,3.37-.24,6.8-1.45,10-.33.9-.78,1.84.11,2.62a2.58,2.58,0,0,0,3,.12,7,7,0,0,0,2.76-2.83,54.81,54.81,0,0,0,4.57-10A223.91,223.91,0,0,0,459.53,118a176.36,176.36,0,0,0,2.16-19.57c.21-4.44.16-8.9,0-13.35-.21-4.66-1.73-9.33,0-14a9.51,9.51,0,0,1-2-4.18c-.22-1.08-.42-2.17-.63-3.26a166.19,166.19,0,0,0-8-28.16,4.35,4.35,0,0,0-1.22-1.71c-.44.14-.61.5-.83.81a35.2,35.2,0,0,0-3.46,6.64c-1.62,3.83-3.13,7.71-5,11.45a20.18,20.18,0,0,1-2.18,3.54C437,57.94,436.26,57.9,435,56a12.67,12.67,0,0,1-1.46-3.17c-1.5-4.6-3.37-9-5.28-13.49-2.31-5.37-5-10.54-7.49-15.82-.33-.72-.7-1.41-1.13-2.25a11.29,11.29,0,0,0-.93,2.53c-.9,2.8-2.25,5.44-2.91,8.33a25.65,25.65,0,0,1-3.85,8.42,3.41,3.41,0,0,1-1.58,1.39,4.31,4.31,0,0,0-1.29.07,3.92,3.92,0,0,1-1.57-2,63.07,63.07,0,0,0-2.66-7c-2.26-5.23-4.45-10.49-6.67-15.75-.64-.3-.72.25-.89.62-.42.88-.72,1.82-1.17,2.69h0a13,13,0,0,1-.68,1.69v0c-.17.23-.15.55-.33.78-.79,1.65-1.29,3.42-1.92,5.14a105.93,105.93,0,0,0-4,12.88c-1,4.36-2.55,8.59-2.71,13.13-.06,1.86-.91,3.65-1.22,5.46-.44,2.57-1,5.1-1.57,7.65a7.86,7.86,0,0,0,0,3,70.11,70.11,0,0,1,.56,9.48c.09,7.52.2,15,1,22.49a214.86,214.86,0,0,0,5.57,30.86,181.44,181.44,0,0,0,14.56,38.68,17.37,17.37,0,0,1,1.41,3.56c.21.76.18,1.5-.83,1.64a1.06,1.06,0,0,1-1.29-1.16c0-3.09-1.87-5.42-3.26-7.93-.25-.46-.58-1.14-1.21-.92s-.56.95-.46,1.48c.28,1.6.19,3.22.41,4.82.37,2.63-.23,3.93-2.39,4.85a2.12,2.12,0,0,0-.12-1.48,33.47,33.47,0,0,0-1.66-3.47,74.62,74.62,0,0,1-7.06-20.44c-1-5.53-2.31-11-3.6-16.47-1-4.16-2.07-8.33-1.78-12.68a3.47,3.47,0,0,0-.1-1.16c-.34-1.15-.86-2.11-2.31-1.87-.87.14-1.18-.34-1.38-1.06-1.38-4.79-3.63-9.21-5.61-13.75-1.89-4.32-4.09-8.55-4.77-13.31a3,3,0,0,0-.64-1.53c-1.91-2.19-2.47-4.94-3.19-7.62-1.27-4.73-1.92-9.61-3.42-14.28-.81-2.54-2.11-4.9-2.54-7.58a100,100,0,0,1-1.45-14.2c.67,2.32,1.66,4.44,2.51,6.62,2,5.13,3.66,10.41,5.76,15.47,4.51,10.83,9.9,21.29,14.83,31.94a6,6,0,0,0,.75,1.3c.17.21.36.46.67.39s.38-.37.45-.64a3,3,0,0,0,0-1.16c-.31-2.15-.38-4.32-.49-6.48a161.61,161.61,0,0,0-1.46-16.44c-.63-4-1.15-8.17-3.81-11.86.6.39,1,.8,1.5.56-.21-1.19-1.26-1.78-1.89-2.67-2.95-4.17-5.75-8.45-8.62-12.68-2.08-3.09-4.23-6.13-6.15-9.32a60,60,0,0,0-6.61-8.74c-.64-.18-1.17-.9-1.94-.39a5,5,0,0,0-1.25,3c-1.2,7.34-1.45,14.77-2,22.17a86,86,0,0,1-1.05,8.9,4.32,4.32,0,0,1-1.28,2.81l-.06.27.18.19a3.59,3.59,0,0,1,2.46,2.88,42.66,42.66,0,0,1,1.23,8.08,138.25,138.25,0,0,0,5.36,28.66A201.86,201.86,0,0,0,373,148.88a141.37,141.37,0,0,0,16.18,24.67,20.29,20.29,0,0,0,6.24,5.2l.28.14c-2.45.75-4.94,1.34-7.4,2.07-.48.15-1.07.17-1.4.57l-.66.09c-.57.07-1.14.15-1.71.26a14.67,14.67,0,0,1-3.13.49.83.83,0,0,1-.17-.65,5,5,0,0,0-.45-1.94c-1.49-4.43-3.59-8.61-5.42-12.9a49.65,49.65,0,0,1-3-8.29,33.71,33.71,0,0,0-.68-3.41c-2.2-6.73-5.31-13.07-8.28-19.46-1.62-3.48-3.4-6.89-5.14-10.31-1.52-3-3-6-4.65-8.86A160.45,160.45,0,0,1,346.25,102C344.08,97,342,92.08,340.1,87a82.41,82.41,0,0,1-2.84-8.18,39.52,39.52,0,0,0-2.91-7.94,13.11,13.11,0,0,1-1.09-3,8.69,8.69,0,0,1-.45-3.28c.09-.56.54-.73.95-.34a4.72,4.72,0,0,1,.59.8,33.19,33.19,0,0,1,1.89,3.53c1.19,2.12,2.26,4.31,4.17,6a3.18,3.18,0,0,1,1,2.39,6.14,6.14,0,0,0,.24,1.64,34.87,34.87,0,0,0,6.08,11.76c.28.36.51.79,1,.66s.6-.69.68-1.19a24.63,24.63,0,0,0,.05-4.78,42.83,42.83,0,0,0-2.3-12.71,2.5,2.5,0,0,1,.56-3,.18.18,0,0,0-.31,0l-.34.07a.66.66,0,0,1-.68,0,5.1,5.1,0,0,1-2.07-1.35,35.25,35.25,0,0,1-3.29-3.73A184.42,184.42,0,0,0,328.57,50c-.76.51-.46,1.31-.45,2,.05,4.58-.45,9.14-.46,13.72-.12,1.32,0,2.64-.06,4v2.06c-.1,1,.22,2.06-.18,3.06,0,.66-.08,1.32-.07,2,.08,4-.14,8.07-.27,12.11-1.82-.33-2.4,1.55-2.46,3.33-.5-.4-1.06-.73-1.53-1.16L315.33,84a23,23,0,0,0-3.77-2.74c-.76-.46-1.11-.26-1.21.62a9.15,9.15,0,0,0,0,1.17c0,2.11.16,4.22.2,6.32.06,3.29.64,6.51,1,9.76a87.78,87.78,0,0,1,.84,9.44,8.35,8.35,0,0,1-.26,2.48c-.54,1.82-1.36,2.21-3.08,1.33a19.73,19.73,0,0,1-3.42-2.38,35.71,35.71,0,0,0-5.42-4.15c-2.4-1.3-2.57-1.2-2.62,1.58a57.76,57.76,0,0,0,1,9.08c1,7.31,2.9,14.45,4.62,21.61.18.72.8,1.59.11,2.19s-1.48-.06-2.18-.34c-2.79-1.12-5.39-2.63-8.07-4a15.51,15.51,0,0,0-4.15-1.33,6,6,0,0,0,.23,2.56,10.34,10.34,0,0,1,.39,1.45,90.28,90.28,0,0,0,3.85,14.45,53.75,53.75,0,0,1,1.76,7.63c.2.95-.07,1.26-1,1.58a4.69,4.69,0,0,1-2.32.13,16.08,16.08,0,0,1-4.43-1.39,29,29,0,0,1-3.61-2.4c-1.05-.75-2.11-1.18-3.34-.33.23.16.6.27.66.48.75,2.66,1.45,5.33,2.17,8a4.57,4.57,0,0,0,.92,2.13c.19.58.36,1.17.6,1.73.84,2,1.71,4.08,2.56,6.12a.48.48,0,0,0,.28.4,2.7,2.7,0,0,1,.29.4c2.21,4.23,4.92,8.16,7.32,12.27a37.55,37.55,0,0,0,6.4,7.84c4.91,4.81,9.56,9.87,14.32,14.83a19.11,19.11,0,0,1,5.09,8.08c.17,0,.38,0,.42-.14.94-3.55,3.71-5.39,6.58-7.18,1.51-1,1.52-1.45.3-2.74-2.07-2.17-4.13-4.36-6.23-6.5-8.39-8.53-16.72-17.11-24.84-25.9a74.26,74.26,0,0,1-9.83-12.83c3.27,3.08,6.19,6.51,9.45,9.6a21.74,21.74,0,0,0,2.81,2.35c.46.3,1,.7,1.53.29s.35-1.11.14-1.69c-.14-.36-.34-.7-.5-1-1.12-2.37-2.56-4.57-3.64-7a14.58,14.58,0,0,1-1.37-4.62,3.79,3.79,0,0,1,1.45,1.64c1.54,2.45,2.8,5.07,4.15,7.62,6.3,11.89,13.94,22.77,23.76,32a22.46,22.46,0,0,0,5,3.83,4.47,4.47,0,0,0,5.4-.67c2.71-2.3,3-4.28,1.17-7.3-.32-.52-.69-1-1.05-1.5a28.7,28.7,0,0,1-3.19-4.89,29.4,29.4,0,0,0-5.72-8,256.86,256.86,0,0,1-17.22-20.62c-3.89-5.21-8.07-10.22-10.9-16.16a35,35,0,0,0-2.9-5.44c-.06-.07-.06-.08-.05-.07l.06.07A158.24,158.24,0,0,1,308.09,159a6,6,0,0,0,1.73,1.56c.42.26.88.63,1.38.32a1.27,1.27,0,0,0,.36-1.52,24,24,0,0,0-1.64-4.55A71.91,71.91,0,0,0,302,141.43c1.11.72,2-1.35,3-.17a14,14,0,0,1,1.74,3c.27.55.57,1.08.82,1.64A155.38,155.38,0,0,0,315,160.67a149.85,149.85,0,0,0,18.06,25,80.43,80.43,0,0,0,10.75,10.45,16.85,16.85,0,0,0,4.83,2.6,3.52,3.52,0,0,0,3.72-.8,3,3,0,0,0,.75-3.38,21.39,21.39,0,0,0-.68-2.05,80.28,80.28,0,0,0-4.78-9.55,144.31,144.31,0,0,0-14.22-20.78C330,158,326.24,154,323.38,149.29c-2.61-4.28-5.35-8.47-8-12.7a130,130,0,0,1-8.09-13.83,9.4,9.4,0,0,1-1-3.27,18.1,18.1,0,0,1,3.78,4,75.16,75.16,0,0,1,6.62,10c.38.66.88,1.49,1.81,1.05s.56-1.25.41-1.95a52,52,0,0,0-5.49-15,31,31,0,0,0-3.36-4,5,5,0,0,1,4.78,2.81,43.71,43.71,0,0,1,3,6.53c1.84,5.19,3.7,10.38,6,15.38a156,156,0,0,0,20.35,32.65,161.81,161.81,0,0,0,12.95,14.37,27.71,27.71,0,0,0,6.41,5c2.13,1.08,3.23.31,3-2.05a19,19,0,0,0-2.1-6.3c-2.95-6.36-5.95-12.69-8.93-19-1.37-2.94-2.66-6.06-5.75-7.78a.94.94,0,0,1-.42-.69c-.52-3.12-2.34-5.64-4-8.21-4.59-7.3-9.49-14.41-13.7-22-4.56-8.16-9.16-16.3-12.6-25a4,4,0,0,1-.52-2.21,1.71,1.71,0,0,1,1.23.9,70.47,70.47,0,0,1,8.84,14.31c.42.91.44,2,.93,2.85a2,2,0,0,0,1.85,1.22,1.58,1.58,0,0,0,1.36-.85,2.34,2.34,0,0,0,0-1.94,72.25,72.25,0,0,1-1.89-7.78c-.79-4.73-2.19-9.17-5.47-12.81.07-1.47.43-3.22,1.81-3.63l.17.05a.21.21,0,0,0,.26-.14,2.8,2.8,0,0,1,.29,0,3.2,3.2,0,0,1,2.35,2.29,9.11,9.11,0,0,1,.44,2.11,34.63,34.63,0,0,0,1,5.73,135.06,135.06,0,0,0,4.4,14.31c2.8,7.74,6.1,15.26,9.64,22.68,1.67,3.52,3.58,6.91,5.45,10.32a138.75,138.75,0,0,0,13.4,19.45c3.66,4.6,7.48,9.06,11.19,13.62a25.34,25.34,0,0,1,2,3.07c.23.38.71.9.18,1.33s-.81-.13-1.17-.36a9.56,9.56,0,0,1-2.62-2.53,12.67,12.67,0,0,0-2.59-2.58c-.23-.18-.56-.45-.89-.16s-.09.51,0,.78a21.29,21.29,0,0,0,1.76,4.14,2.45,2.45,0,0,1,0,2.82c-.1.14,0,.3.16.38a31.79,31.79,0,0,0,4.25-1.35c2.75-.78,5.46-1.68,8.19-2.54l2.18-.17a4.22,4.22,0,0,0,2.08-.22,190.11,190.11,0,0,1,45.16-4.9c3.29,0,6.57,0,9.85,0,5.4,0,10.77.5,16.14.92,4.83.37,9.6,1.2,14.41,1.75a4.71,4.71,0,0,1,1.12.14,3.33,3.33,0,0,0,1.37,0c1.12-.5.51-.82-.13-1.1-.87-.38-1.93-.34-2.78-1a26,26,0,0,0,4-5.5,133.8,133.8,0,0,0,6.85-14.1c3.86-9.07,7.39-18.26,9.24-28,.94-4.92,1.89-9.83,3-14.73a19.16,19.16,0,0,1,.9-3.21c.2-.49.37-1.25,1.06-1s.37,1,.32,1.48a6.71,6.71,0,0,1-.37,1.45,36.29,36.29,0,0,0-1.83,12.32c0,1-.27,2.35.9,2.58s1.33-1.17,1.68-2c1.57-3.63,2.78-7.39,4.22-11.07a86.74,86.74,0,0,1,3.88-9.14,11.34,11.34,0,0,1-.3,2.44,199.71,199.71,0,0,1-14.3,43.86c-1.51,3.27-3,6.57-5.7,9.15a2,2,0,0,0-.61,1.84c.64,2.87-.27,5.5-1.13,8.15a20.58,20.58,0,0,0-1.34,5.84c-.05,2,0,2-2,1.8-1.1-.1-1.1-.1-1.52.78a1.87,1.87,0,0,0,.88.46c3.57.76,7.12,1.64,10.64,2.6a1.9,1.9,0,0,0,1.46-.06,79.86,79.86,0,0,1,5.15-10.81,25,25,0,0,0,1.59-3.3c4.81-12.66,9.62-25.31,11.08-38.91a1.7,1.7,0,0,1,2.58.16v.08c0,3.22,0,6.44-.33,9.66-.06.71-.3,1.87.59,2s1.08-1,1.32-1.72a51.46,51.46,0,0,1,3.31-7.1,10.2,10.2,0,0,1,3-3.86,46.9,46.9,0,0,1-2.67,7.85c-2.67,6.48-5.61,12.84-8.66,19.15-3.64,7.51-7.29,15-11.29,22.34-1,1.89-2.57,3.47-3.31,5.52a4.12,4.12,0,0,0,1.78.84,28.52,28.52,0,0,1,6.35,2.84c1.45,1,1.59.89,2.58-.6s1.85-3.28,2.74-4.93c.21-.25.1-.66.43-.84a54.62,54.62,0,0,1,2.22-5c1.74-3.11,3.21-6.33,4.71-9.55.26-.55.45-1.37.88-1.55.94-.37.9-1.1,1.11-1.8.83-2.76,1.42-5.6,3-8.1a2.51,2.51,0,0,0,.33-1.1,9.08,9.08,0,0,1,.53-2.26c.86-2.93,1.92-5.81,2.54-8.78a103,103,0,0,0,2.19-15C528.26,125.82,528.1,122.24,528.19,118.3ZM295.68,143.47a.7.7,0,0,0,.06.19C295.66,143.63,295.45,143.61,295.68,143.47Zm118.75,21.21a50.06,50.06,0,0,1-1,10.41,12.07,12.07,0,0,1-.57,1.73c-.14.36-.32.77-.81.7s-.49-.4-.6-.72c-.31-1-.7-1.89-.93-2.86a114.09,114.09,0,0,1-2.33-13.23c-.33-3-.53-6.07-.83-9.09-.22-2.32,0-4.67-.54-7a1.68,1.68,0,0,1,0-.5c.19-4.34-.49-8.65-.32-13.32-.31-2.9.31-6.1.35-9.32a8.78,8.78,0,0,1,.92-4,2.08,2.08,0,0,0-.6-3,4.69,4.69,0,0,0-.68-.49,4.07,4.07,0,0,1-1.91-4.73,7.68,7.68,0,0,0-.87-6.07c-1.19-1.79-1.46-4-1.86-6-.89-4.67-1.64-9.37-2.1-14.11-.34-3.58-1-7.13-1.22-10.71-.14-1.93-.26-3.88-.48-5.8-.27-2.37,0-4.77-.56-7.11a2.8,2.8,0,0,1,0-.5c.13-4.28-.49-8.54-.37-12.82,0-1.68.4-3.3.42-5,0-.54.05-1.38.78-1.48s.93.71,1.14,1.24a24.68,24.68,0,0,1,1.34,5.13c.76,4.59,1.19,9.22,1.93,13.8a20.09,20.09,0,0,1,.43,5,6.87,6.87,0,0,0,.35,2.3c.31,1.26.46,1.35,1.93,1.28.65,0,.73.35.71.84,0,.67-.33,1.27-.34,2a24.78,24.78,0,0,0,.58,4.94c.6,3.22,1.65,6.33,2.41,9.5,1.14,4.79,2.11,9.62,2.77,14.51.48,3.62,1,7.23,1.31,10.87.26,2.59.47,5.18.68,7.77.36,4.48.44,9,.68,13.45C414.8,143.11,414.47,153.9,414.43,164.68Zm8.33,9.37c0,1.11-.78,1.51-2.32,1.41-1.09-.07-1.5-.61-1.31-1.64a19.38,19.38,0,0,1,1.23-3.8,95,95,0,0,0,6.58-32.41,179.55,179.55,0,0,0-.85-26.83,251.61,251.61,0,0,0-13.28-56.61,78.19,78.19,0,0,1-3-10.25,2.36,2.36,0,0,1,.53,0,26.47,26.47,0,0,1,1.89,4c1.26,3.09,2,6.38,3.37,9.43a7.12,7.12,0,0,0,1.23,2.16c.89.91,1.69.78,2.18-.41a12.2,12.2,0,0,0,.69-3.76c.38-4.77.35-9.56.35-14.34a5.37,5.37,0,0,1,.47-2.67c.32,0,.41.15.46.3a18.23,18.23,0,0,1,.71,3.26,226.36,226.36,0,0,1,2,29.77,167.83,167.83,0,0,0,2.27,26.41,165.11,165.11,0,0,1,2.54,36.38,156.68,156.68,0,0,1-3.3,24.61C424.05,164,422.82,168.94,422.76,174.05ZM492.87,87c-1.89,9.07-4.4,18-7,26.85-1.66,5.58-3.34,11.16-5.26,16.66a83,83,0,0,1-4.73,11.9,38.16,38.16,0,0,0-2.68,5.72,5.5,5.5,0,0,0-.27,2.1,22.87,22.87,0,0,1-1.07,6.87c-1.16,4.39-2.08,8.83-2.82,13.31A12.52,12.52,0,0,0,469,173a15.31,15.31,0,0,1-.42,3,1.94,1.94,0,0,1-1.07,1.41,3.84,3.84,0,0,1-5.83-2.75c-.06-.38.06-.78-.19-1.14-.57-.15-.62.36-.78.66a3.47,3.47,0,0,1-2,1.72c-.6.2-.94-.11-.87-.77a7.35,7.35,0,0,1,.71-2.38c.76-1.55,1.48-3.12,2.33-4.62a139.49,139.49,0,0,0,9.4-21,192.76,192.76,0,0,0,6.81-23.29c.92-4,1.64-8,2.28-12.06a114.65,114.65,0,0,0,1.32-18.22c0-2.25.41-4.51.63-6.77,0-.39.1-.86.57-.88s.53.56.58.88A30.24,30.24,0,0,1,483,91c.06,3.72.15,7.46,0,11.18a35.4,35.4,0,0,0,0,6.67c.78-2.47,1.6-4.93,2.33-7.42,1.28-4.38,2.83-8.65,4.39-12.93a47.06,47.06,0,0,1,2.56-6.14c.19-.34.36-.69.54-1a.6.6,0,0,1,.52-.37c.35,0,.38.35.38.64A23,23,0,0,1,492.87,87Z" style="fill:#089347"/><path d="M196.74,750.24c0,5.19,0,10.37,0,15.55A1.09,1.09,0,0,1,196,767a54.65,54.65,0,0,1-15.74,4.1,57.13,57.13,0,0,1-13.89.2c-7.3-.88-13.85-3.44-19.2-8.62a29.74,29.74,0,0,1-8.19-14.6,45.14,45.14,0,0,1,.59-24.9c3.47-10.76,10.8-17.54,21.74-20.37a41.79,41.79,0,0,1,15.6-.81,37.16,37.16,0,0,1,13.21,4,29.5,29.5,0,0,1,4.87,3.36c.31.26.25.46.11.75-1.26,2.68-2.53,5.35-3.75,8-.29.66-.54.29-.83.08a34.15,34.15,0,0,0-8.14-4.68,29.49,29.49,0,0,0-11.08-1.87,23.74,23.74,0,0,0-9.62,1.87,17.5,17.5,0,0,0-9.5,10.56c-2,5.46-2.18,11.12-1.71,16.84a29.44,29.44,0,0,0,2.31,9.63,17.74,17.74,0,0,0,13.35,10.6,39.94,39.94,0,0,0,14.38-.07c1.54-.24,3-.63,4.56-1,.45-.11.56-.29.56-.72,0-5.37,0-10.73,0-16.09,0-.65-.29-.64-.76-.64-4.4,0-8.81,0-13.21,0-.7,0-.83-.19-.82-.85,0-2.45,0-4.91,0-7.37,0-.52.08-.71.67-.71q12.27,0,24.54,0c.66,0,.7.27.7.79C196.73,739.81,196.74,745,196.74,750.24Z"/><path d="M656.85,718.68a41.53,41.53,0,0,0-6.35-4.06A28.85,28.85,0,0,0,637,711.7a23.71,23.71,0,0,0-9.85,2,17.19,17.19,0,0,0-8.32,8.35,29.11,29.11,0,0,0-2.68,11.27,41.69,41.69,0,0,0,1.21,13.89c1.67,5.9,5,10.43,10.79,12.83a26.11,26.11,0,0,0,10.2,1.75,49.92,49.92,0,0,0,12.34-1.61c.61-.16.72-.4.72-1q0-7.87,0-15.74c0-.62-.16-.8-.79-.8-4.37,0-8.75,0-13.12,0-.72,0-.9-.19-.88-.89,0-2.43,0-4.86,0-7.28,0-.59.14-.76.74-.76q12.24,0,24.46,0c.62,0,.71.21.71.76q0,15.69,0,31.38c0,.61-.27.81-.74,1a54.64,54.64,0,0,1-15.82,4.12,57,57,0,0,1-13.81.19c-8-1-15.07-3.94-20.56-10a30.89,30.89,0,0,1-7.26-15,45.69,45.69,0,0,1,.54-21.53c3.44-12.2,11.42-19.74,23.87-22.27a41.64,41.64,0,0,1,24.57,2.33,27.16,27.16,0,0,1,7.37,4.56c.24.2.42.34.24.73C659.55,712.88,658.23,715.73,656.85,718.68Z"/><path d="M255.14,724.9c0-7.19,0-14.38,0-21.57,0-.68.14-.91.87-.9,3.51,0,7,0,10.52,0,.64,0,.79.18.79.8,0,14.11,0,28.23-.1,42.34a28.41,28.41,0,0,1-3.67,14.09A21.72,21.72,0,0,1,253.15,769a35.63,35.63,0,0,1-15.09,2.63A35,35,0,0,1,224.4,769a21.58,21.58,0,0,1-11.48-11.43,35.91,35.91,0,0,1-2.66-14.73c0-13.15,0-26.31,0-39.46,0-.75.19-.94.93-.93q5.13.06,10.25,0c.8,0,1.05.15,1,1q0,19.77,0,39.55a30.21,30.21,0,0,0,.87,7.92,13.72,13.72,0,0,0,12.59,10.66,23,23,0,0,0,8.9-.66c4.92-1.48,7.9-4.84,9.36-9.67a26.1,26.1,0,0,0,1-7.55C255.15,737.43,255.14,731.17,255.14,724.9Z"/><path d="M591.25,726.53c-.07,5.54.17,12.41-.11,19.26a29.9,29.9,0,0,1-3.6,13.75,21.61,21.61,0,0,1-10.41,9.39,36,36,0,0,1-15.62,2.64,34.71,34.71,0,0,1-13-2.53,21.55,21.55,0,0,1-11.59-11.43c-2.12-4.81-2.68-9.89-2.68-15.08q0-19.59,0-39.19c0-.77.23-.92,1-.91q5.13.06,10.25,0c.77,0,1,.16,1,1q0,19.79,0,39.56a28.39,28.39,0,0,0,1.11,8.78c1.92,5.95,6.14,9.06,12.23,9.81a21.78,21.78,0,0,0,9.15-.67c4.92-1.51,7.85-4.92,9.28-9.75a26,26,0,0,0,.93-7.45q0-20.1,0-40.18c0-.88.23-1.08,1.08-1.07,3.42.06,6.83.05,10.25,0,.78,0,.91.23.91,1C591.24,710.65,591.25,717.93,591.25,726.53Z"/><path d="M404,736.58q0-16.59,0-33.17c0-.79.18-1,1-1q21.88,0,43.77,0c.75,0,.94.19.93.93q-.08,3.9,0,7.82c0,.83-.15,1.09-1.05,1.09-10.52,0-21,0-31.55,0-.8,0-1,.19-1,1q.06,8.55,0,17.08c0,.71.17.89.88.89,9.92,0,19.84,0,29.75,0,.74,0,.95.14.94.91-.06,2.66-.05,5.33,0,8,0,.7-.17.87-.87.87l-29.66,0c-.79,0-1.05.15-1,1q.06,9,0,18.06c0,.8.16,1,1,1,10.51,0,21,0,31.55,0,.84,0,1,.23,1,1-.05,2.67,0,5.34,0,8,0,.53,0,.78-.7.78q-22.11,0-44.22,0c-.82,0-.74-.4-.74-.93Q404,753.21,404,736.58Z"/><path d="M273.74,770.74l4.08-9Q291,732.5,304.24,703.27a1.18,1.18,0,0,1,1.32-.84c2.76,0,5.52,0,8.27,0a1.1,1.1,0,0,1,1.2.76q10.7,23.63,21.42,47.24L345.33,770c.09.21.19.42.33.72-3.42,0-6.74-.13-10,0a2.82,2.82,0,0,1-3.28-2.14c-1.73-4.45-3.7-8.81-5.54-13.22a1,1,0,0,0-1.11-.72q-15.87,0-31.74,0a1.08,1.08,0,0,0-1.19.76c-2.05,4.84-4.15,9.66-6.21,14.49a1.06,1.06,0,0,1-1.15.8C281.57,770.72,277.73,770.74,273.74,770.74Zm36.06-54.85-12.57,29.26h.91c7.75,0,15.5,0,23.26,0,.81,0,.94-.14.6-.9q-4.19-9.64-8.32-19.32C312.41,722,311.15,719,309.8,715.89Z"/><path d="M373.09,741.71c0,9.38,0,18.75,0,28.13,0,.76-.21.93-.94.92-3.54,0-7.07,0-10.61,0-.8,0-1-.19-1-1,0-18.69,0-37.39.05-56.08,0-.94-.26-1.09-1.13-1.09-6.74,0-13.48,0-20.22,0-.77,0-.93-.22-.92-.95,0-2.81,0-5.63,0-8.44,0-.59.08-.83.76-.83q27.76,0,55.54,0c.56,0,.77.11.76.73,0,2.91,0,5.81,0,8.72,0,.67-.22.77-.82.76-6.86,0-13.72,0-20.58,0-.78,0-1,.17-1,1C373.1,723,373.09,732.33,373.09,741.71Z"/><path d="M519.81,737.45c0,10.12,0,20.25,0,30.38a37.29,37.29,0,0,1-1.29,10.39c-1.66,5.72-5.48,8.93-11.26,10a45.7,45.7,0,0,1-14.39-.19c-.38,0-.5-.2-.5-.57,0-3.06,0-6.11,0-9.17,0-.51.21-.51.59-.45,1.78.28,3.56.46,5.36.59a14.1,14.1,0,0,0,4.1-.31c2.72-.62,4.17-2.36,4.67-5.57a31.24,31.24,0,0,0,.37-4.83q0-32.08,0-64.18c0-.85.16-1.1,1.05-1.08,3.48.06,6.95.05,10.43,0,.77,0,.92.23.92,1Q519.78,720.41,519.81,737.45Z"/><path d="M474.33,749.65c-4.53,0-9.05,0-13.57,0-.63,0-.81-.15-.8-.79,0-2.69,0-5.39,0-8.08,0-.59.14-.76.74-.76q13.67,0,27.32,0c.61,0,.82.14.81.78,0,2.67,0,5.33,0,8,0,.67-.17.85-.85.84C483.43,749.63,478.88,749.65,474.33,749.65Z"/></svg>